<svg class="main-svg" xmlns="http://www.w3.org/2000/svg" xmlns:xlink="http://www.w3.org/1999/xlink" width="1600" height="600" style="" viewBox="0 0 1600 600"><rect x="0" y="0" width="1600" height="600" style="fill: rgb(255, 255, 255); fill-opacity: 1;"/><defs id="defs-deb180"><g class="clips"><clipPath id="clipdeb180xyplot" class="plotclip"><rect width="1380" height="419"/></clipPath><clipPath class="axesclip" id="clipdeb180x"><rect x="91" y="0" width="1380" height="600"/></clipPath><clipPath class="axesclip" id="clipdeb180y"><rect x="0" y="100" width="1600" height="419"/></clipPath><clipPath class="axesclip" id="clipdeb180xy"><rect x="91" y="100" width="1380" height="419"/></clipPath></g><g class="gradients"/><g class="patterns"/></defs><g class="bglayer"/><g class="layer-below"><g class="imagelayer"/><g class="shapelayer"><g class="shape-group" data-index="0" clip-path="url(#clipdeb180x)"><path data-index="0" fill-rule="evenodd" d="M91,519H197.72V100H91Z" style="opacity: 1; stroke: rgb(0, 0, 0); stroke-opacity: 0; fill: rgb(200, 0, 0); fill-opacity: 0.1; stroke-width: 0px;"/></g><g class="shape-group" data-index="1" clip-path="url(#clipdeb180x)"><path data-index="1" fill-rule="evenodd" d="M197.72,519H489.13V100H197.72Z" style="opacity: 1; stroke: rgb(0, 0, 0); stroke-opacity: 0; fill: rgb(0, 0, 0); fill-opacity: 0; stroke-width: 0px;"/></g><g class="shape-group" data-index="2" clip-path="url(#clipdeb180x)"><path data-index="2" fill-rule="evenodd" d="M489.13,519H780.61V100H489.13Z" style="opacity: 1; stroke: rgb(0, 0, 0); stroke-opacity: 0; fill: rgb(200, 0, 0); fill-opacity: 0.1; stroke-width: 0px;"/></g><g class="shape-group" data-index="3" clip-path="url(#clipdeb180x)"><path data-index="3" fill-rule="evenodd" d="M780.61,519H1161.19V100H780.61Z" style="opacity: 1; stroke: rgb(0, 0, 0); stroke-opacity: 0; fill: rgb(0, 0, 0); fill-opacity: 0; stroke-width: 0px;"/></g><g class="shape-group" data-index="4" clip-path="url(#clipdeb180x)"><path data-index="4" fill-rule="evenodd" d="M1161.19,519H1471V100H1161.19Z" style="opacity: 1; stroke: rgb(0, 0, 0); stroke-opacity: 0; fill: rgb(200, 0, 0); fill-opacity: 0.1; stroke-width: 0px;"/></g></g></g><g class="cartesianlayer"><g class="subplot xy"><g class="layer-subplot"><g class="shapelayer"/><g class="imagelayer"/></g><g class="minor-gridlayer"><g class="x"><path class="xgrid crisp" transform="translate(108.02,0)" d="M0,100v419" style="stroke: rgb(211, 211, 211); stroke-opacity: 1; stroke-width: 1px;"/><path class="xgrid crisp" transform="translate(137.1,0)" d="M0,100v419" style="stroke: rgb(211, 211, 211); stroke-opacity: 1; stroke-width: 1px;"/><path class="xgrid crisp" transform="translate(166.18,0)" d="M0,100v419" style="stroke: rgb(211, 211, 211); stroke-opacity: 1; stroke-width: 1px;"/><path class="xgrid crisp" transform="translate(195.26999999999998,0)" d="M0,100v419" style="stroke: rgb(211, 211, 211); stroke-opacity: 1; stroke-width: 1px;"/><path class="xgrid crisp" transform="translate(224.35,0)" d="M0,100v419" style="stroke: rgb(211, 211, 211); stroke-opacity: 1; stroke-width: 1px;"/><path class="xgrid crisp" transform="translate(253.44,0)" d="M0,100v419" style="stroke: rgb(211, 211, 211); stroke-opacity: 1; stroke-width: 1px;"/><path class="xgrid crisp" transform="translate(282.52,0)" d="M0,100v419" style="stroke: rgb(211, 211, 211); stroke-opacity: 1; stroke-width: 1px;"/><path class="xgrid crisp" transform="translate(311.61,0)" d="M0,100v419" style="stroke: rgb(211, 211, 211); stroke-opacity: 1; stroke-width: 1px;"/><path class="xgrid crisp" transform="translate(340.69,0)" d="M0,100v419" style="stroke: rgb(211, 211, 211); stroke-opacity: 1; stroke-width: 1px;"/><path class="xgrid crisp" transform="translate(369.78,0)" d="M0,100v419" style="stroke: rgb(211, 211, 211); stroke-opacity: 1; stroke-width: 1px;"/><path class="xgrid crisp" transform="translate(398.86,0)" d="M0,100v419" style="stroke: rgb(211, 211, 211); stroke-opacity: 1; stroke-width: 1px;"/><path class="xgrid crisp" transform="translate(427.95,0)" d="M0,100v419" style="stroke: rgb(211, 211, 211); stroke-opacity: 1; stroke-width: 1px;"/><path class="xgrid crisp" transform="translate(457.03,0)" d="M0,100v419" style="stroke: rgb(211, 211, 211); stroke-opacity: 1; stroke-width: 1px;"/><path class="xgrid crisp" transform="translate(486.12,0)" d="M0,100v419" style="stroke: rgb(211, 211, 211); stroke-opacity: 1; stroke-width: 1px;"/><path class="xgrid crisp" transform="translate(515.2,0)" d="M0,100v419" style="stroke: rgb(211, 211, 211); stroke-opacity: 1; stroke-width: 1px;"/><path class="xgrid crisp" transform="translate(544.29,0)" d="M0,100v419" style="stroke: rgb(211, 211, 211); stroke-opacity: 1; stroke-width: 1px;"/><path class="xgrid crisp" transform="translate(573.37,0)" d="M0,100v419" style="stroke: rgb(211, 211, 211); stroke-opacity: 1; stroke-width: 1px;"/><path class="xgrid crisp" transform="translate(602.45,0)" d="M0,100v419" style="stroke: rgb(211, 211, 211); stroke-opacity: 1; stroke-width: 1px;"/><path class="xgrid crisp" transform="translate(631.54,0)" d="M0,100v419" style="stroke: rgb(211, 211, 211); stroke-opacity: 1; stroke-width: 1px;"/><path class="xgrid crisp" transform="translate(660.62,0)" d="M0,100v419" style="stroke: rgb(211, 211, 211); stroke-opacity: 1; stroke-width: 1px;"/><path class="xgrid crisp" transform="translate(689.71,0)" d="M0,100v419" style="stroke: rgb(211, 211, 211); stroke-opacity: 1; stroke-width: 1px;"/><path class="xgrid crisp" transform="translate(718.79,0)" d="M0,100v419" style="stroke: rgb(211, 211, 211); stroke-opacity: 1; stroke-width: 1px;"/><path class="xgrid crisp" transform="translate(747.88,0)" d="M0,100v419" style="stroke: rgb(211, 211, 211); stroke-opacity: 1; stroke-width: 1px;"/><path class="xgrid crisp" transform="translate(776.96,0)" d="M0,100v419" style="stroke: rgb(211, 211, 211); stroke-opacity: 1; stroke-width: 1px;"/><path class="xgrid crisp" transform="translate(806.05,0)" d="M0,100v419" style="stroke: rgb(211, 211, 211); stroke-opacity: 1; stroke-width: 1px;"/><path class="xgrid crisp" transform="translate(835.13,0)" d="M0,100v419" style="stroke: rgb(211, 211, 211); stroke-opacity: 1; stroke-width: 1px;"/><path class="xgrid crisp" transform="translate(864.22,0)" d="M0,100v419" style="stroke: rgb(211, 211, 211); stroke-opacity: 1; stroke-width: 1px;"/><path class="xgrid crisp" transform="translate(893.3,0)" d="M0,100v419" style="stroke: rgb(211, 211, 211); stroke-opacity: 1; stroke-width: 1px;"/><path class="xgrid crisp" transform="translate(922.39,0)" d="M0,100v419" style="stroke: rgb(211, 211, 211); stroke-opacity: 1; stroke-width: 1px;"/><path class="xgrid crisp" transform="translate(951.47,0)" d="M0,100v419" style="stroke: rgb(211, 211, 211); stroke-opacity: 1; stroke-width: 1px;"/><path class="xgrid crisp" transform="translate(980.55,0)" d="M0,100v419" style="stroke: rgb(211, 211, 211); stroke-opacity: 1; stroke-width: 1px;"/><path class="xgrid crisp" transform="translate(1009.64,0)" d="M0,100v419" style="stroke: rgb(211, 211, 211); stroke-opacity: 1; stroke-width: 1px;"/><path class="xgrid crisp" transform="translate(1038.72,0)" d="M0,100v419" style="stroke: rgb(211, 211, 211); stroke-opacity: 1; stroke-width: 1px;"/><path class="xgrid crisp" transform="translate(1067.81,0)" d="M0,100v419" style="stroke: rgb(211, 211, 211); stroke-opacity: 1; stroke-width: 1px;"/><path class="xgrid crisp" transform="translate(1096.8899999999999,0)" d="M0,100v419" style="stroke: rgb(211, 211, 211); stroke-opacity: 1; stroke-width: 1px;"/><path class="xgrid crisp" transform="translate(1125.98,0)" d="M0,100v419" style="stroke: rgb(211, 211, 211); stroke-opacity: 1; stroke-width: 1px;"/><path class="xgrid crisp" transform="translate(1155.06,0)" d="M0,100v419" style="stroke: rgb(211, 211, 211); stroke-opacity: 1; stroke-width: 1px;"/><path class="xgrid crisp" transform="translate(1184.15,0)" d="M0,100v419" style="stroke: rgb(211, 211, 211); stroke-opacity: 1; stroke-width: 1px;"/><path class="xgrid crisp" transform="translate(1213.23,0)" d="M0,100v419" style="stroke: rgb(211, 211, 211); stroke-opacity: 1; stroke-width: 1px;"/><path class="xgrid crisp" transform="translate(1242.32,0)" d="M0,100v419" style="stroke: rgb(211, 211, 211); stroke-opacity: 1; stroke-width: 1px;"/><path class="xgrid crisp" transform="translate(1271.4,0)" d="M0,100v419" style="stroke: rgb(211, 211, 211); stroke-opacity: 1; stroke-width: 1px;"/><path class="xgrid crisp" transform="translate(1300.49,0)" d="M0,100v419" style="stroke: rgb(211, 211, 211); stroke-opacity: 1; stroke-width: 1px;"/><path class="xgrid crisp" transform="translate(1329.57,0)" d="M0,100v419" style="stroke: rgb(211, 211, 211); stroke-opacity: 1; stroke-width: 1px;"/><path class="xgrid crisp" transform="translate(1358.66,0)" d="M0,100v419" style="stroke: rgb(211, 211, 211); stroke-opacity: 1; stroke-width: 1px;"/><path class="xgrid crisp" transform="translate(1387.74,0)" d="M0,100v419" style="stroke: rgb(211, 211, 211); stroke-opacity: 1; stroke-width: 1px;"/><path class="xgrid crisp" transform="translate(1416.82,0)" d="M0,100v419" style="stroke: rgb(211, 211, 211); stroke-opacity: 1; stroke-width: 1px;"/><path class="xgrid crisp" transform="translate(1445.91,0)" d="M0,100v419" style="stroke: rgb(211, 211, 211); stroke-opacity: 1; stroke-width: 1px;"/></g><g class="y"><path class="ygrid crisp" transform="translate(0,516.9100000000001)" d="M91,0h1380" style="stroke: rgb(211, 211, 211); stroke-opacity: 1; stroke-width: 1px;"/><path class="ygrid crisp" transform="translate(0,498.05)" d="M91,0h1380" style="stroke: rgb(211, 211, 211); stroke-opacity: 1; stroke-width: 1px;"/><path class="ygrid crisp" transform="translate(0,479.19)" d="M91,0h1380" style="stroke: rgb(211, 211, 211); stroke-opacity: 1; stroke-width: 1px;"/><path class="ygrid crisp" transform="translate(0,460.34)" d="M91,0h1380" style="stroke: rgb(211, 211, 211); stroke-opacity: 1; stroke-width: 1px;"/><path class="ygrid crisp" transform="translate(0,441.48)" d="M91,0h1380" style="stroke: rgb(211, 211, 211); stroke-opacity: 1; stroke-width: 1px;"/><path class="ygrid crisp" transform="translate(0,422.63)" d="M91,0h1380" style="stroke: rgb(211, 211, 211); stroke-opacity: 1; stroke-width: 1px;"/><path class="ygrid crisp" transform="translate(0,403.77)" d="M91,0h1380" style="stroke: rgb(211, 211, 211); stroke-opacity: 1; stroke-width: 1px;"/><path class="ygrid crisp" transform="translate(0,384.92)" d="M91,0h1380" style="stroke: rgb(211, 211, 211); stroke-opacity: 1; stroke-width: 1px;"/><path class="ygrid crisp" transform="translate(0,366.06)" d="M91,0h1380" style="stroke: rgb(211, 211, 211); stroke-opacity: 1; stroke-width: 1px;"/><path class="ygrid crisp" transform="translate(0,347.21000000000004)" d="M91,0h1380" style="stroke: rgb(211, 211, 211); stroke-opacity: 1; stroke-width: 1px;"/><path class="ygrid crisp" transform="translate(0,328.35)" d="M91,0h1380" style="stroke: rgb(211, 211, 211); stroke-opacity: 1; stroke-width: 1px;"/><path class="ygrid crisp" transform="translate(0,309.5)" d="M91,0h1380" style="stroke: rgb(211, 211, 211); stroke-opacity: 1; stroke-width: 1px;"/><path class="ygrid crisp" transform="translate(0,290.64)" d="M91,0h1380" style="stroke: rgb(211, 211, 211); stroke-opacity: 1; stroke-width: 1px;"/><path class="ygrid crisp" transform="translate(0,271.78999999999996)" d="M91,0h1380" style="stroke: rgb(211, 211, 211); stroke-opacity: 1; stroke-width: 1px;"/><path class="ygrid crisp" transform="translate(0,252.93)" d="M91,0h1380" style="stroke: rgb(211, 211, 211); stroke-opacity: 1; stroke-width: 1px;"/><path class="ygrid crisp" transform="translate(0,234.08)" d="M91,0h1380" style="stroke: rgb(211, 211, 211); stroke-opacity: 1; stroke-width: 1px;"/><path class="ygrid crisp" transform="translate(0,215.22)" d="M91,0h1380" style="stroke: rgb(211, 211, 211); stroke-opacity: 1; stroke-width: 1px;"/><path class="ygrid crisp" transform="translate(0,196.37)" d="M91,0h1380" style="stroke: rgb(211, 211, 211); stroke-opacity: 1; stroke-width: 1px;"/><path class="ygrid crisp" transform="translate(0,177.51)" d="M91,0h1380" style="stroke: rgb(211, 211, 211); stroke-opacity: 1; stroke-width: 1px;"/><path class="ygrid crisp" transform="translate(0,158.66)" d="M91,0h1380" style="stroke: rgb(211, 211, 211); stroke-opacity: 1; stroke-width: 1px;"/><path class="ygrid crisp" transform="translate(0,139.81)" d="M91,0h1380" style="stroke: rgb(211, 211, 211); stroke-opacity: 1; stroke-width: 1px;"/><path class="ygrid crisp" transform="translate(0,120.95)" d="M91,0h1380" style="stroke: rgb(211, 211, 211); stroke-opacity: 1; stroke-width: 1px;"/><path class="ygrid crisp" transform="translate(0,102.09)" d="M91,0h1380" style="stroke: rgb(211, 211, 211); stroke-opacity: 1; stroke-width: 1px;"/></g></g><g class="gridlayer"><g class="x"><path class="xgrid crisp" transform="translate(195.26999999999998,0)" d="M0,100v419" style="stroke: rgb(211, 211, 211); stroke-opacity: 1; stroke-width: 1px;"/><path class="xgrid crisp" transform="translate(340.69,0)" d="M0,100v419" style="stroke: rgb(211, 211, 211); stroke-opacity: 1; stroke-width: 1px;"/><path class="xgrid crisp" transform="translate(486.12,0)" d="M0,100v419" style="stroke: rgb(211, 211, 211); stroke-opacity: 1; stroke-width: 1px;"/><path class="xgrid crisp" transform="translate(631.54,0)" d="M0,100v419" style="stroke: rgb(211, 211, 211); stroke-opacity: 1; stroke-width: 1px;"/><path class="xgrid crisp" transform="translate(776.96,0)" d="M0,100v419" style="stroke: rgb(211, 211, 211); stroke-opacity: 1; stroke-width: 1px;"/><path class="xgrid crisp" transform="translate(922.39,0)" d="M0,100v419" style="stroke: rgb(211, 211, 211); stroke-opacity: 1; stroke-width: 1px;"/><path class="xgrid crisp" transform="translate(1067.81,0)" d="M0,100v419" style="stroke: rgb(211, 211, 211); stroke-opacity: 1; stroke-width: 1px;"/><path class="xgrid crisp" transform="translate(1213.23,0)" d="M0,100v419" style="stroke: rgb(211, 211, 211); stroke-opacity: 1; stroke-width: 1px;"/><path class="xgrid crisp" transform="translate(1358.66,0)" d="M0,100v419" style="stroke: rgb(211, 211, 211); stroke-opacity: 1; stroke-width: 1px;"/></g><g class="y"><path class="ygrid crisp" transform="translate(0,422.63)" d="M91,0h1380" style="stroke: rgb(211, 211, 211); stroke-opacity: 1; stroke-width: 1px;"/><path class="ygrid crisp" transform="translate(0,347.21000000000004)" d="M91,0h1380" style="stroke: rgb(211, 211, 211); stroke-opacity: 1; stroke-width: 1px;"/><path class="ygrid crisp" transform="translate(0,271.78999999999996)" d="M91,0h1380" style="stroke: rgb(211, 211, 211); stroke-opacity: 1; stroke-width: 1px;"/><path class="ygrid crisp" transform="translate(0,196.37)" d="M91,0h1380" style="stroke: rgb(211, 211, 211); stroke-opacity: 1; stroke-width: 1px;"/><path class="ygrid crisp" transform="translate(0,120.95)" d="M91,0h1380" style="stroke: rgb(211, 211, 211); stroke-opacity: 1; stroke-width: 1px;"/></g></g><g class="zerolinelayer"><path class="yzl zl crisp" transform="translate(0,498.05)" d="M91,0h1380" style="stroke: rgb(169, 169, 169); stroke-opacity: 1; stroke-width: 2px;"/></g><g class="layer-between"><g class="shapelayer"/><g class="imagelayer"/></g><path class="xlines-below"/><path class="ylines-below"/><g class="overlines-below"/><g class="xaxislayer-below"/><g class="yaxislayer-below"/><g class="overaxes-below"/><g class="overplot"><g class="xy" transform="translate(91,100)" clip-path="url(#clipdeb180xyplot)"><g class="scatterlayer mlayer"><g class="trace scatter trace33f2a1" style="stroke-miterlimit: 2; opacity: 1;"><g class="fills"/><g class="errorbars"/><g class="lines"><path class="js-line" d="M916.81,121.29L916.95,120.72L917.54,121.37L917.58,121.43L918.14,122.32L918.46,121.85L918.48,121.81L919.04,120.63L919.41,121.34L919.43,121.37L919.87,122.08L919.89,122.16L920.65,122.57L920.8,122.34L920.82,122.27L921.18,121.65L921.6,122.32L921.62,122.31L923.27,121.25L923.29,121.22L924.34,121.58L924.36,121.6L925.37,120.84L925.39,120.78L926.59,120.96L926.61,120.98L927.22,120.86L927.36,120.71L927.38,120.68L928.85,119.9L928.87,119.89L929.37,119.87L929.61,120.11L929.63,120.13L930,120.11L930.12,119.69L930.14,119.59L931.59,116.67L931.61,116.62L932.29,115.9L932.31,115.82L933.66,113.02L933.68,112.99L940.1,96.86L940.12,96.85L943.69,85.64L943.71,85.6L945.36,78.59L945.38,78.49L951.85,52.13L951.87,52.11L953.58,47.32L953.6,47.21L954.82,45.48L954.84,45.45L964.7,22.7L964.72,22.72L967.63,21.04L967.66,21.08L967.68,21.12L970.27,24.72L970.29,24.8L972.21,31.17L972.23,31.22L974.3,40.15L974.32,40.34L976.81,53.36L976.83,53.45L982.78,87.81L982.8,88L985.51,105.76L985.59,105.9L990.49,133.76L990.51,133.83L996.37,149.12L996.39,149.15L997.29,150.99L997.31,151.03L1002.91,165.75L1002.93,165.89L1004.9,175.49L1004.92,175.55L1007.75,188.17L1007.77,188.31L1008.84,197.46L1008.86,197.69L1011.23,214.75L1011.25,214.8L1015.87,236.6L1016.19,236.65L1016.87,240.67L1016.89,240.87L1018.8,251.97L1018.82,252.03L1022.25,264.13L1022.27,264.14L1023.03,265.12L1023.26,264.71L1023.28,264.63L1023.56,264.16L1023.94,264.86L1023.98,264.87L1024.12,265.15L1024.44,264.26L1024.46,264.16L1026.31,260.51L1026.49,261.29L1026.51,261.43L1028.18,268.8L1028.2,268.86L1028.82,270.62L1029.2,270.16L1029.22,270.09L1030.36,273.74L1030.81,272.84L1030.83,272.79L1031.49,272.84L1031.65,273.07L1031.67,273.11L1032.51,273.21L1032.59,272.88L1032.61,272.79L1033.05,271.51L1033.52,272.06L1033.54,272.03L1034.84,269.52L1035.2,269.98L1035.22,270.02L1035.99,271.53L1036.01,271.59L1036.65,273.64L1037.06,273.06L1037.08,272.98L1037.66,275.07L1038,273.64L1038.02,273.55L1038.43,272.9L1038.77,273.62L1038.79,273.72L1039.41,276.03L1039.43,276.29L1040.8,284.15L1040.82,284.27L1042.61,294.65L1042.63,294.79L1047.43,322.36L1047.45,322.43L1048.11,324.64L1048.45,323.91L1048.47,323.89L1048.88,322.73L1049.28,323.41L1049.3,323.47L1051.05,328.27L1051.13,328.31L1051.45,328.3L1051.61,327.84L1051.67,327.74L1052.4,325.79L1052.42,325.64L1053.35,323.78L1053.59,323.85L1053.61,323.84L1054.29,323.13L1054.31,323.07L1054.92,322.97L1055.02,323.35L1055.04,323.47L1056.18,326.61L1056.2,326.69L1057.29,328.43L1057.37,328.48L1058.56,330.18L1058.76,329.79L1058.78,329.76L1059.49,327.75L1059.81,328.75L1059.83,328.83L1061.02,331.92L1061.28,331.66L1061.3,331.54L1063.47,321.96L1063.49,321.89L1064.38,320.52L1064.46,320.84L1064.48,320.93L1068.23,337.04L1068.27,337.05L1071.73,347.64L1071.75,347.69L1075.86,358.97L1075.88,358.98L1076.95,359.93L1076.97,359.91L1077.19,359.74L1077.43,360.55L1077.45,360.62L1079.94,365.44L1079.98,365.5L1082.01,371.81L1082.03,371.85L1084.38,376.02L1084.48,375.96L1084.5,375.94L1085.18,378.05L1085.2,378.1L1086.02,378.44L1086.17,377.81L1086.19,377.73L1086.87,375.35L1087.13,376.2L1087.15,376.25L1088.17,377.86L1088.51,377.45L1088.53,377.42L1088.7,377.61L1088.92,376.73L1088.98,376.65L1090.46,373.11L1090.66,373.45L1090.68,373.49L1091.06,374.12L1091.35,373.27L1091.37,373.24L1091.47,373.05L1091.97,373.69L1091.99,373.74L1092.39,373.51L1092.51,373.18L1092.53,373.14L1094.22,369.11L1094.52,369.32L1094.54,369.3L1096.02,371.43L1096.04,371.54L1099.02,382.5L1099.04,382.51L1099.34,382.58L1099.58,382.02L1099.6,382L1099.82,381.75L1100.18,382.42L1100.2,382.5L1100.92,383.28L1101.18,382.71L1101.2,382.68L1102.19,379.51L1102.21,379.36L1102.33,379.02L1102.79,380.03L1102.81,380.1L1103.33,381.75L1103.65,380.75L1103.67,380.68L1103.81,380.48L1104.2,381.33L1104.22,381.33L1104.24,381.36L1104.84,382.42L1104.86,382.53L1105.16,382.99L1105.46,382.06L1105.48,381.99L1105.74,381.63L1106.14,382.47L1106.16,382.57L1106.57,383.3L1106.97,383.06L1106.99,382.95L1108.86,373.04L1109.2,374.95L1109.22,374.97L1110.2,374.79L1110.22,374.82L1110.24,374.83L1110.68,375.81L1110.7,375.9L1111.37,379.43L1111.85,378.86L1111.87,378.88L1113.39,381.86L1113.41,382.02L1113.9,383.57L1113.92,383.71L1116.75,395.69L1116.77,395.7L1118.37,396.93L1118.39,396.87L1118.67,395.97L1119.14,396.79L1119.16,396.81L1121.18,395.73L1121.2,395.66L1121.93,394.77L1122.41,394.71L1123.57,394.24L1123.67,394.49L1123.69,394.52L1124.94,396.05L1125.2,395.75L1125.22,395.71L1125.82,396.48L1125.84,396.52L1126.81,398.05L1127.09,397.69L1127.11,397.62L1127.85,394.87L1128.13,395.73L1128.15,395.82L1128.79,396.43L1128.99,396.25L1129.01,396.2L1129.66,394.65L1129.68,394.55L1129.92,393.66L1130.44,394.55L1130.46,394.61L1130.96,395.48L1131.3,394.98L1131.32,394.92L1132.19,392.48L1132.45,393.35L1132.47,393.48L1132.87,394.15L1133.25,393.82L1133.29,393.8L1133.97,392.2L1134.36,392.9L1134.38,392.89L1135.28,391L1135.32,390.95L1135.82,389.7L1135.84,389.58L1138.05,380.88L1138.07,380.86L1138.67,378.49L1138.69,378.34L1141.69,356.82L1141.71,356.57L1144.54,334.17L1144.62,334.02L1145.16,329.34L1145.18,329.1L1146.69,319.05L1146.75,319.03L1148.95,307.12L1148.97,306.99L1151.26,294.21L1151.36,294.17L1152.31,288.46L1152.33,288.28L1155.39,268.69L1155.41,268.63L1155.83,266.49L1155.85,266.39L1156.74,259.82L1156.76,259.6L1158.77,247.01L1158.79,246.84L1160.93,234.88L1160.95,234.78L1161.91,229.96L1161.93,229.81L1163.73,221.91L1164.01,221.82L1170.23,195.6L1170.25,195.48L1172.87,184.26L1172.93,184.18L1173.67,180.51L1173.69,180.4L1178.59,157.87L1178.61,157.76L1179.43,154.07L1179.45,154.02L1181.84,144.57L1181.86,144.54L1185.7,132.81L1185.76,132.84L1185.78,132.87L1186.96,135.08L1186.98,135.15L1187.37,135.59L1187.69,135.19L1187.75,135.15L1188.17,136.63L1188.19,136.75L1193.55,146.54L1193.57,146.51L1193.59,146.5L1193.71,146.3L1193.97,146.87L1194.21,146.88L1194.23,146.9L1195.24,146.98L1195.28,146.9L1195.3,146.87L1195.74,146.81L1195.92,147.32L1195.94,147.39L1196.64,147.75L1196.78,147.53L1196.8,147.48L1198.51,148.85L1198.65,148.67L1198.67,148.61L1199.19,148.34L1199.45,148.92L1199.47,148.98L1199.92,149.98L1200.22,149.11L1200.24,149.03L1201.44,147.43L1201.54,147.5L1201.56,147.52L1202.63,147.8L1202.65,147.75L1202.67,147.69L1204.03,146.58L1204.07,146.61L1204.09,146.62L1205.42,147L1205.46,146.89L1205.48,146.84L1206.54,145.85L1206.68,145.97L1206.7,145.97L1207.41,144.86L1207.43,144.75L1211,131.41L1211.02,131.38L1211.9,124.83L1211.92,124.64L1213.95,114.4L1213.97,114.35L1218.09,104.01L1218.11,104.01L1218.83,103.14L1218.85,103.1L1221.96,96.86L1221.98,96.84L1223.63,93.3L1223.91,93.65L1223.93,93.69L1224.65,92.77L1224.67,92.65L1225.58,90.32L1225.84,90.69L1225.86,90.72L1226.44,91.36L1226.64,90.75L1226.66,90.69L1227.77,88.79L1227.81,88.86L1227.85,88.85L1228.75,89.76L1229.07,89.21L1229.09,89.16L1230.36,88.1L1230.42,88.15L1230.44,88.16L1231.52,88.42L1231.66,88.14L1231.68,88.09L1233.01,86.36L1233.05,86.32L1234.45,86.69L1234.51,86.54L1234.53,86.44L1235.86,84.48L1235.88,84.45L1237.06,83.44L1237.1,83.49L1237.12,83.49L1237.49,83.49L1237.79,83.08L1237.81,83.06L1238.51,83.13L1238.59,83.32L1238.61,83.42L1239.47,85.66L1239.81,85.04L1239.83,84.99L1240.38,84.37L1240.72,84.51L1240.74,84.51L1242.22,84.56L1242.24,84.6L1242.75,84.87L1243.05,84.38L1243.07,84.31L1243.43,83.68L1243.93,84.25L1243.95,84.3L1244.73,84.66L1244.95,84.4L1244.97,84.37L1245.98,83.15L1246.22,83.57L1246.24,83.63L1246.76,84.27L1247.12,83.87L1247.14,83.82L1248.27,82.46L1248.35,82.55L1248.37,82.52L1249.01,81.89L1249.03,81.85L1250.84,78.6L1250.94,78.64L1250.96,78.64L1251.66,77.57L1251.68,77.51L1253.51,75.11L1253.55,75.13L1253.57,75.12L1255.05,74.22L1255.07,74.18L1255.58,74.51L1255.88,74.08L1255.9,74.05L1259.49,73.78L1259.51,73.71L1260.78,70.11L1261.04,70.19L1261.08,70.16L1264.95,67.76L1264.97,67.72L1267.64,64.45L1267.66,64.5" style="vector-effect: none; fill: none; stroke: rgb(0, 0, 0); stroke-opacity: 1; stroke-width: 2px; opacity: 1;"/></g><g class="points"/><g class="text"/></g><g class="trace scatter tracef3cb19" style="stroke-miterlimit: 2; opacity: 1;"><g class="fills"/><g class="errorbars"/><g class="lines"><path class="js-line" d="M916.81,179.22L917.54,178.09L917.64,178.51L917.66,178.56L918.72,180.56L918.78,180.54L918.8,180.61L919.59,179.15L919.79,179.51L919.81,179.58L920.65,180.56L920.73,180.35L920.75,180.24L921.12,178.45L921.6,179.64L921.62,179.66L922.06,177.72L922.49,178.95L922.51,178.95L922.93,179.1L923.17,178.64L923.19,178.53L923.47,178.26L923.69,178.95L923.8,178.97L923.82,178.95L924.32,179.22L924.56,178.82L924.58,178.76L925.89,175.8L925.91,175.8L926.25,176.45L926.73,176.07L926.74,176.03L929.25,169.45L929.55,170.13L929.57,170.18L929.9,171.34L930.24,169.82L930.26,169.71L932.37,162.19L932.39,162.07L934.69,149.17L934.71,148.92L943.08,94.41L943.1,94.18L944.21,84.63L944.23,84.57L948.46,57.19L948.48,57.15L950.91,44.39L950.93,44.25L952.19,39.44L952.21,39.45L954.12,33.79L954.2,34.2L954.22,34.3L954.5,34.6L954.82,33.57L954.84,33.52L955.65,34.18L955.89,33.48L955.91,33.39L956.93,32L957.11,32.27L957.13,32.27L958.08,31.31L958.1,31.17L959.4,26.95L959.76,27.94L959.78,27.98L960.15,28.06L960.43,27.59L960.45,27.55L961.99,26.54L962.03,26.69L962.05,26.78L962.47,28.07L962.94,27.86L962.96,27.9L963.86,26.98L963.88,26.9L966.03,22.43L966.05,22.48L966.07,22.47L967.25,20.95L967.59,21.18L967.61,21.22L968,21.91L968.02,21.97L970.39,27L970.41,26.89L970.83,28.44L970.85,28.64L971.83,30.66L971.85,30.64L971.87,30.62L974.5,40.65L974.52,40.54L974.54,40.57L974.88,41.8L974.9,42.05L976.43,49.45L976.45,49.49L977.65,56.72L977.67,56.93L979.48,70.88L979.5,70.93L984.36,102.67L984.54,102.72L987.27,119.55L987.29,119.67L991.39,136.19L991.47,135.99L991.49,135.85L991.77,135.4L992.05,136.55L992.07,136.7L993.48,141.8L993.5,141.75L994.62,143.32L994.64,143.29L994.66,143.39L994.86,144.09L995.36,143.17L995.38,143.19L995.39,143.15L996.95,139.28L997.45,139.8L997.47,139.85L997.61,140.17L997.98,139.48L998,139.5L998.02,139.34L999.02,134.37L999.04,134.19L1000.43,127.93L1000.47,127.8L1001.27,124.46L1001.75,125.12L1001.77,125.16L1003.08,130.31L1003.1,130.49L1006.07,142.75L1006.09,142.71L1007.71,149.26L1007.73,149.3L1008.24,154.91L1008.26,155.21L1010.57,174.65L1010.59,174.78L1011.05,176.4L1011.35,175.65L1011.43,175.53L1011.59,175.35L1011.87,176.03L1011.89,176.09L1013.68,183.06L1013.8,182.9L1013.82,182.86L1014.52,181.71L1014.74,182.44L1014.76,182.46L1014.88,182.36L1015,183L1015.02,183.25L1016.97,189.12L1016.99,189.29L1018.62,200.68L1018.8,200.64L1018.82,200.56L1019.58,203.71L1019.6,203.87L1020.99,213.08L1021.09,212.44L1021.11,212.41L1021.43,213.65L1021.45,213.7L1022.61,217.05L1022.63,216.99L1022.65,216.87L1022.69,217.03L1023.09,215.72L1023.13,215.51L1024.1,210.44L1024.12,210.3L1024.98,203.84L1025,203.57L1026.47,193.2L1026.57,193.24L1026.61,193.14L1027.09,195.91L1027.11,196.25L1027.69,200.93L1028.03,200.16L1028.05,199.94L1030.42,190.97L1030.44,190.58L1031.95,178.4L1031.97,178.42L1034.96,162.61L1035.02,162.82L1035.04,162.84L1035.42,163.36L1035.63,162.67L1035.65,162.62L1035.77,162.45L1035.93,163.79L1035.95,163.92L1036.41,164.99L1036.67,164.08L1036.73,163.86L1037.06,163.2L1037.26,164.6L1037.28,164.84L1037.96,167.65L1038.24,166.71L1038.26,166.78L1039.13,164.83L1039.19,165.38L1039.21,165.59L1041.32,180.8L1041.34,180.88L1042.67,185.76L1042.92,185.43L1042.94,185.4L1043.22,187.02L1043.24,187.21L1044.08,188.98L1044.14,189.16L1045.45,195.16L1045.47,195.3L1046.88,204.21L1046.9,204.27L1048.01,206.78L1048.03,206.75L1048.05,206.71L1048.11,206.94L1048.55,205.3L1048.57,204.9L1049.2,199.55L1049.6,200.72L1049.62,201L1050.99,207.74L1051.13,207.7L1051.21,207.78L1051.61,206.78L1051.67,206.62L1052.78,201.38L1053.02,201.98L1053.04,202L1053.89,202.05L1053.91,202.04L1054.05,202.36L1054.27,200.8L1054.29,200.59L1054.88,198.82L1055.12,199.79L1055.14,199.97L1056.37,205.3L1056.47,204.89L1056.49,204.81L1057.27,203.49L1057.49,203.87L1057.51,204L1057.59,204.19L1057.98,203.4L1058.06,203.4L1058.08,203.37L1058.44,204.27L1058.68,203.42L1058.7,203.24L1059.61,198.04L1060.13,198.96L1060.15,198.92L1060.67,197.69L1060.69,197.55L1061.14,196.53L1061.16,196.24L1064.14,174.56L1064.16,174.53L1064.36,174.14L1064.6,175.3L1064.62,175.54L1066.35,183.33L1066.55,183.08L1066.57,183.07L1067.17,184.64L1067.19,184.97L1067.71,186.97L1068.01,185.94L1068.03,185.73L1068.17,185.33L1068.7,185.99L1068.72,185.97L1068.74,186.02L1069.72,190.53L1069.74,190.77L1070.6,193.85L1071.09,193.01L1071.11,193.04L1071.35,193.97L1071.71,191.8L1071.73,191.72L1072.19,189.85L1072.49,191.37L1072.51,191.56L1073.21,193.19L1073.45,192.44L1073.47,192.31L1074.72,188.75L1074.9,189.84L1074.92,189.93L1076.02,190.8L1076.04,190.77L1076.06,190.6L1076.15,190.76L1076.51,189.9L1076.61,189.75L1077.23,188.03L1077.53,188.21L1077.55,188.16L1077.73,187.97L1078.19,188.56L1078.21,188.63L1078.7,189.62L1078.72,189.76L1078.82,190.07L1079.18,189L1079.24,189.1L1079.34,189.01L1080.02,187.97L1080.18,188.22L1080.2,188.12L1080.3,187.92L1080.48,189.19L1080.5,189.34L1081.13,191.98L1081.33,190.39L1081.35,190.08L1082.17,187.44L1082.31,187.69L1082.33,187.64L1082.59,187.52L1082.87,188.11L1082.91,188.09L1082.93,188.24L1083.45,190.93L1083.88,189.97L1083.9,189.94L1084.38,189.72L1084.58,190.18L1084.6,190.33L1085.82,193.07L1085.86,193.03L1085.88,192.94L1086.1,192.03L1086.12,191.68L1086.57,188.76L1087.01,189.58L1087.03,189.77L1087.75,192.31L1088.07,191.97L1088.09,191.93L1088.25,192.11L1088.37,191.62L1088.72,191.65L1088.74,191.31L1089.84,186.58L1089.86,186.4L1091.25,181.58L1091.27,181.55L1091.45,180.64L1091.93,182.31L1091.95,182.45L1092.45,183.67L1092.71,182.62L1092.73,182.53L1093.09,182.75L1093.41,182.09L1093.57,182.25L1093.59,182.3L1094.74,185.12L1094.76,185.31L1100.18,230.26L1100.2,230.3L1101.49,238.77L1101.51,238.74L1101.65,238.69L1107.59,282.13L1107.65,281.92L1107.67,281.78L1107.79,281.34L1108.19,283.82L1108.21,284.18L1108.61,284.11L1110.32,303.29L1110.34,303.41L1116.73,361.73L1116.89,360.93L1116.91,361L1117.95,362.87L1118.01,362.92L1118.81,363.15L1118.83,363.25L1119.8,368.36L1120.5,368.57L1121.51,369.82L1121.85,369.92L1123.23,370.49L1123.25,370.68L1125.08,380.37L1125.12,380.28L1125.14,380.24L1125.32,379.85L1125.64,381.25L1125.66,381.5L1127.09,392.14L1127.43,390.73L1127.45,390.67L1127.63,390.17L1127.95,391.37L1127.97,391.65L1128.89,394.52L1128.95,394.41L1128.99,394.41L1130.18,395.74L1130.2,395.86L1130.96,398.04L1131.08,397.06L1131.1,396.92L1132.17,393.94L1132.37,394.48L1132.39,394.61L1132.87,396.96L1133.21,395.75L1133.23,395.7L1133.93,393.33L1134.26,394.43L1134.28,394.55L1134.36,394.71L1134.62,393.63L1134.64,393.54L1136.5,389.47L1136.58,389.45L1138.01,383.75L1138.03,383.62L1138.49,383.31L1138.85,383.41L1138.87,383.39L1139.28,383.67L1141.65,373.06L1141.67,372.83L1143.39,364.44L1143.41,364.48L1144.7,359.9L1144.72,359.89L1145.26,357.96L1145.28,357.79L1146.02,353.59L1146.04,353.36L1148.27,346.57L1148.29,346.32L1149.6,342.27L1149.62,342.26L1150.1,338.97L1150.12,338.75L1151.42,327.94L1151.46,327.98L1151.48,328.18L1152.17,326.28L1152.19,325.96L1152.93,319.04L1153.48,319.28L1153.5,319.12L1155.05,308.12L1155.51,308.51L1155.53,308.62L1155.65,308.81L1155.77,307.78L1155.79,307.54L1157.32,297.7L1157.34,297.59L1157.89,294.46L1157.91,294.19L1158.31,292.77L1158.33,292.38L1159.44,286.85L1159.46,286.87L1159.56,286.92L1163.26,259.55L1163.36,259.52L1163.46,259.09L1163.73,259.79L1164.01,259.78L1164.03,259.8L1164.41,258.53L1164.43,258.28L1165.52,251.73L1165.54,251.8L1165.56,251.68L1166.49,248.76L1166.51,248.62L1168.34,235.39L1168.62,235.62L1168.64,235.7L1172.16,209.84L1172.18,209.49L1173.19,204.07L1173.23,204.15L1174.32,197.97L1174.36,197.54L1175.71,187.48L1175.75,187.3L1176.47,177.08L1176.49,176.81L1178.3,163.29L1178.32,163L1181.28,142.57L1181.34,142.62L1181.36,142.71L1181.92,141.48L1181.94,141.29L1182.79,136.73L1183.03,136.75L1183.05,136.78L1183.19,136.98L1183.57,136.18L1183.59,136.1L1185.12,131.82L1185.26,132.27L1185.3,132.19L1185.66,131.46L1186.08,133.34L1186.18,132.69L1186.2,132.53L1186.46,130.5L1187.03,131.45L1187.05,131.41L1187.69,129.77L1187.93,130.56L1187.95,130.61L1188.31,133.24L1188.61,132.18L1188.63,131.98L1189.53,131.39L1189.58,131.46L1189.6,131.56L1190.66,134.81L1190.96,133.86L1190.98,133.81L1191.42,132.7L1191.8,133.33L1191.82,133.55L1192.09,133.31L1193.51,136.53L1193.53,136.48L1193.55,136.45L1193.63,136.11L1193.95,137.64L1194.01,137.54L1194.03,137.69L1194.33,139.27L1194.35,139.48L1195.16,141.7L1195.36,141.09L1195.38,141.08L1196.28,141.5L1196.3,141.66L1197.23,144.45L1197.33,144.37L1197.35,144.31L1197.89,143.73L1198.55,146.23L1198.57,146.18L1198.59,146.11L1199.66,148.78L1199.68,148.83L1199.92,149.42L1200.18,148.42L1200.2,148.18L1201.18,145.78L1201.2,145.72L1202.21,146.68L1202.37,146.24L1202.39,146.15L1202.69,145.19L1202.71,144.94L1203.81,140.96L1203.83,140.99L1203.85,140.95L1204.92,138.15L1204.94,137.93L1209.01,117.19L1209.03,117.04L1212.04,100.78L1212.06,100.78L1214.86,87.56L1215.5,87.91L1215.52,87.91L1217.06,83.62L1217.08,83.62L1218.53,81.43L1218.55,81.44L1219.05,81.11L1219.23,81.57L1219.25,81.64L1219.47,82.32L1219.79,81.25L1219.82,81.08L1220.3,79L1220.32,78.77L1221.36,74.86L1221.66,75.92L1221.68,75.96L1222.2,77.35L1222.53,76.44L1222.55,76.41L1223.21,74.35L1223.23,74.23L1223.63,75.33L1223.65,75.46L1224.41,79.2L1224.84,78.26L1224.86,78.29L1225.96,81.44L1225.98,81.58L1226.56,84.32L1226.92,83.53L1226.94,83.48L1227.22,82.64L1227.77,83.25L1227.79,83.31L1228.23,86.75L1228.25,86.94L1229.25,89.89L1229.27,89.86L1229.49,89.56L1229.98,89.97L1230.18,90.01L1231.64,94.84L1232.2,94.41L1232.22,94.3L1232.47,93.65L1232.97,94.24L1233.01,94.28L1233.35,95.03L1233.65,93.89L1233.67,93.86L1233.77,93.71L1233.99,94.53L1234.05,94.56L1234.11,94.64L1234.37,95.26L1234.73,94.4L1234.75,94.31L1235.24,93.63L1235.26,93.55L1236.08,93.48L1236.1,93.47L1236.36,93.76L1236.72,93.29L1236.74,93.09L1237.87,88.12L1238.01,88.53L1238.03,88.56L1238.97,91.41L1238.99,91.67L1239.17,92.42L1239.59,91.44L1239.63,91.55L1239.65,91.51L1240.06,90.84L1240.4,91.57L1240.42,91.61L1241.38,92.64L1241.4,92.75L1241.88,92.48L1242.16,92.92L1242.18,92.92L1242.38,92.67L1242.65,93.33L1242.69,93.54L1243.87,97.22L1244.01,96.98L1244.03,96.98L1244.35,96.69L1244.47,97.37L1244.49,97.42L1245.58,100.69L1245.68,100.63L1245.7,100.65L1246.34,101.23L1246.36,101.3L1247.02,102.5L1247.26,101.68L1247.28,101.48L1248.23,97.82L1248.57,98.83L1248.59,98.84L1249.33,100.07L1249.57,99.41L1249.59,99.27L1250.64,96.08L1250.76,96.35L1250.78,96.42L1251.28,97.27L1251.62,96.75L1251.64,96.69L1252.91,92.43L1253.01,92.55L1253.03,92.61L1253.51,92.97L1253.75,92.55L1253.77,92.47L1255.16,89.43L1255.3,89.57L1255.32,89.57L1255.68,90.02L1256.04,89.44L1256.06,89.37L1256.72,90.11L1256.76,90.2L1258.25,94.09L1258.29,94.12L1259.49,94.98L1259.53,94.9L1259.55,94.87L1260.48,93.67L1260.76,93.97L1260.78,94.06L1261.16,94.49L1261.58,94.22L1261.6,94.17L1263.17,93.77L1263.19,93.86L1263.21,93.97L1263.43,94.43L1263.83,93.62L1263.85,93.49L1265.07,88.77L1265.2,88.96L1265.22,88.92L1265.26,89.08L1265.6,87.5L1265.62,87.22L1267.62,74.98L1267.64,75.06L1267.66,75.05" style="vector-effect: none; fill: none; stroke: rgb(0, 0, 255); stroke-opacity: 1; stroke-width: 2px; opacity: 1;"/></g><g class="points"/><g class="text"/></g><g class="trace scatter trace6767aa" style="stroke-miterlimit: 2; opacity: 1;"><g class="fills"/><g class="errorbars"/><g class="lines"><path class="js-line" d="M916.81,53.93L916.87,56.45L917.28,47.52L917.5,51.52L917.52,50.93L917.84,46.31L918.14,52.33L918.16,53.22L918.7,69.52L918.72,70.53L919.29,68.92L919.55,75.17L919.57,74.63L919.97,68.67L920.27,75.87L920.41,76.41L920.61,73.43L921,83.98L921.02,84.32L921.08,85.32L921.4,78.62L921.56,79.18L921.58,79.51L921.92,85.31L922.51,84.09L922.55,84.7L923.27,99.68L923.63,95.14L923.65,95.27L924.86,107.67L924.88,107.91L925.87,120.82L926.25,118.72L926.27,118.44L927.96,140.55L928.06,137.15L928.1,136.56L928.27,131.4L928.59,138.79L928.61,139.84L928.91,147L929.11,140.08L929.13,139.49L929.39,138.55L930.18,153.58L930.34,150.64L930.36,149.94L930.42,148.3L930.82,162.73L930.84,163.79L931.61,169.54L931.69,169.07L931.71,168.72L931.79,167.54L932.09,179.05L932.11,179.51L932.35,182.1L932.55,177.17L932.57,177.17L932.59,176.58L933.74,200.88L933.78,200.64L933.8,200.88L933.9,199.35L934.08,207.33L934.1,208.62L935.31,234.56L935.37,233.39L935.39,233.62L935.63,229.75L935.78,233.27L935.8,233.51L935.92,232.45L936.66,244.66L936.68,245.59L937.51,262.96L937.83,260.26L937.85,259.79L937.93,259.21L938.05,263.55L938.07,264.37L939.06,280.33L939.28,278.46L939.3,277.99L939.84,277.16L940.33,287.73L940.35,286.67L940.49,284.79L941.72,302.4L941.98,301.58L942,300.87L942.06,299.35L942.54,309.44L942.56,310.03L942.74,307.21L942.94,310.61L942.96,311.91L943.23,316.25L943.47,312.73L943.49,312.02L944.15,306.97L944.35,309.44L944.37,310.14L945.12,315.78L945.14,316.6L945.44,318.01L945.68,311.08L945.7,310.73L946.35,304.27L946.51,307.91L946.53,308.73L947.27,317.3L947.64,315.19L947.66,314.37L948.28,309.32L948.42,312.61L948.44,313.66L949.42,326.46L949.46,325.63L949.48,325.28L949.82,328.33L950.21,325.16L950.23,325.05L951.49,336.55L951.55,334.44L951.57,333.03L951.61,333.85L951.93,329.04L952.11,329.51L952.13,329.39L952.25,330.09L952.45,327.98L952.58,327.98L952.6,327.51L952.64,327.39L952.94,333.03L953.24,328.22L953.26,328.22L953.4,327.75L953.54,332.32L953.56,333.15L953.7,335.49L954.1,326.1L954.12,326.57L954.24,329.62L954.82,324.11L954.84,323.87L955.07,328.33L955.51,323.75L955.63,326.1L955.65,326.34L955.97,333.85L956.23,329.27L956.25,329.27L956.87,329.5L957.11,323.28L957.21,326.1L957.23,326.81L957.74,325.51L958.18,331.62L958.32,331.26L958.34,330.44L958.82,327.98L959.02,332.44L959.04,332.56L959.08,334.08L959.28,330.56L959.78,332.56L959.8,332.79L960.89,341.59L961.07,341.47L961.09,341.24L961.81,334.78L962.05,335.84L962.07,335.96L963.78,353.92L963.8,353.21L963.82,352.74L963.96,351.45L964.24,356.15L964.26,356.5L967.57,395.47L967.76,393.12L967.78,392.3L968.2,398.05L968.66,394.76L968.68,394.29L968.82,393.24L968.94,395.35L968.96,395.82L969.12,396.99L969.36,393.24L969.38,392.42L970.21,388.19L970.25,388.31L970.27,388.43L970.77,382.32L971.29,383.26L971.31,383.38L972.17,389.72L972.29,387.6L972.31,386.43L973.08,381.03L973.16,381.62L973.18,381.74L973.36,386.9L973.82,381.27L973.96,383.61L973.98,383.85L974.86,365.66L975.2,369.53L975.21,369.88L975.39,370.47L976.55,360.38L976.57,359.91L976.93,357.68L977.09,362.49L977.11,362.84L977.19,363.55L977.31,361.55L977.45,361.55L977.47,360.38L978.64,347.35L978.7,348.52L978.72,348.64L978.74,348.99L979.12,344.65L979.32,346.53L979.34,346.29L981.15,316.83L981.39,321.29L981.41,321.88L982.09,326.11L982.19,324.11L982.21,324.11L983.84,296.76L983.98,299.35L984,299.58L984.04,299.82L984.26,296.65L984.3,296.3L986.41,271.77L986.57,272.71L986.59,272.82L986.79,274.35L986.91,272.35L986.93,271.18L988.06,247.24L988.4,253.69L988.42,253.81L988.44,254.51L988.9,248.76L989.1,251.81L989.12,251.81L990.59,237.26L990.65,237.73L990.67,237.84L991.37,244.18L991.65,241.13L991.67,240.31L992.79,230.45L992.81,230.68L993.5,235.85L993.52,236.55L993.54,236.31L993.76,238.78L994.14,237.37L994.16,238.08L994.2,238.31L994.34,235.38L994.36,234.79L994.56,231.86L994.98,240.31L995,241.48L995.43,252.4L995.91,250.99L995.93,250.87L996.25,252.16L996.71,245.35L996.73,244.53L996.97,240.89L997.39,246.52L997.41,246.64L997.59,247.23L997.98,244.29L998.12,246.76L998.14,247.23L998.38,247.58L998.7,238.19L999.06,242.53L999.08,243L999.52,249.58L999.82,242.77L999.84,242.77L1000.42,250.98L1000.59,246.29L1000.61,245.94L1001.09,239.48L1001.37,244.06L1001.39,244.88L1001.75,252.86L1002.15,246.76L1002.17,246.99L1002.65,249.1L1003.56,233.73L1003.58,234.2L1003.6,235.49L1004.82,247.69L1004.84,247.46L1004.86,247.46L1005.71,233.61L1005.99,237.01L1006.01,237.48L1006.15,239.24L1006.67,235.61L1006.69,235.25L1009.62,204.15L1009.72,205.56L1009.74,205.79L1009.76,206.03L1009.96,200.04L1010,200.04L1010.02,199.46L1010.59,203.45L1010.95,202.39L1010.97,202.51L1011.01,203.33L1011.23,198.87L1011.59,198.99L1011.63,197.58L1012.21,189.95L1012.47,194.29L1012.49,193.94L1012.95,192.41L1013.38,196.64L1013.4,196.41L1014.18,192.42L1014.24,192.65L1014.26,192.53L1015.85,172.11L1016.29,172.93L1016.31,173.52L1016.41,173.87L1016.59,169.88L1016.61,168.24L1017.27,157.09L1017.57,159.91L1017.67,160.02L1018.8,167.3L1018.86,166.6L1018.88,164.95L1019.32,169.41L1019.56,163.43L1019.62,164.37L1019.64,165.19L1020.81,176.1L1020.83,175.98L1020.85,175.63L1020.95,174.69L1021.09,181.27L1021.11,181.97L1021.29,184.2L1021.45,181.03L1021.47,180.21L1021.89,174.58L1022.31,178.57L1022.33,179.27L1022.67,188.31L1023.14,183.15L1023.22,183.38L1023.68,189.02L1024.08,186.9L1024.1,187.02L1025.2,199.7L1025.24,198.76L1025.26,198.87L1025.56,194.3L1026.05,197.58L1026.07,197.94L1026.13,198.29L1026.31,195.94L1026.33,194.42L1026.53,187.84L1027.03,195.35L1027.09,195L1028.42,179.28L1028.46,179.86L1028.48,180.21L1029.1,186.79L1029.3,184.32L1029.32,183.15L1029.46,185.73L1029.9,179.39L1029.92,178.34L1030.34,171.53L1030.75,173.64L1030.77,173.88L1030.91,171.18L1031.33,174.82L1031.37,174.58L1031.39,175.05L1031.53,173.41L1031.81,177.51L1031.85,177.51L1031.87,177.51L1032.03,179.51L1032.35,174.35L1032.37,173.88L1032.97,180.1L1033.11,175.99L1033.13,174.82L1033.24,171.3L1033.84,175.76L1033.86,175.99L1034.12,179.87L1034.42,174.35L1034.46,174.35L1034.48,174L1034.5,174.35L1034.94,170.12L1035.12,172.35L1035.14,171.18L1035.91,166.13L1035.99,167.66L1036.01,167.89L1036.37,160.38L1036.55,165.43L1036.57,166.95L1037.06,173.41L1037.36,169.18L1037.38,169.07L1037.52,168.83L1038.06,178.46L1038.34,172.23L1038.36,172.12L1039.87,156.27L1040.08,156.86L1040.1,157.21L1040.54,150.76L1040.88,152.87L1040.96,153.22L1041.02,154.16L1041.61,150.4L1041.63,150.05L1043.24,127.75L1043.42,128.92L1043.44,129.16L1043.5,128.81L1043.62,131.86L1043.64,132.8L1043.68,133.15L1044.08,127.98L1044.14,127.63L1044.45,128.81L1044.97,124.35L1044.99,124.23L1045.25,127.87L1045.81,120.71L1045.84,121.53L1045.86,121.65L1045.88,122.12L1046.24,113.78L1046.26,113.31L1046.54,110.97L1047.18,117.89L1047.22,117.54L1047.33,116.25L1047.57,120.12L1047.85,118.59L1047.87,119.3L1052.16,176.34L1052.18,177.39L1053,195.7L1053.02,196.41L1054.31,209.32L1054.33,208.61L1054.39,209.55L1055.28,204.85L1055.32,205.79L1055.34,206.26L1055.98,213.19L1056.29,210.84L1056.31,210.61L1056.65,208.38L1056.85,212.37L1056.87,212.37L1057.05,216L1057.69,215.42L1057.71,214.6L1057.86,212.95L1058.14,216.71L1058.16,216.95L1058.18,217.65L1058.68,211.31L1058.72,211.66L1058.74,210.96L1059.51,224.57L1059.71,220.58L1059.73,220L1059.87,223.4L1060.33,215.65L1060.51,218.24L1060.53,218L1060.86,210.96L1061.02,216.47L1061.08,217.53L1062,235.72L1062.06,233.96L1062.08,233.49L1062.85,244.41L1063.29,242.41L1063.31,241.48L1063.35,241.71L1063.72,237.72L1063.74,237.49L1063.84,236.55L1064.14,242.41L1064.16,243.47L1064.24,244.41L1064.76,240.42L1064.8,240.42L1064.82,239.72L1065.08,233.5L1065.38,242.42L1065.4,242.89L1066.13,229.62L1066.37,232.09L1066.39,233.03L1066.59,236.9L1067.05,228.92L1067.07,227.75L1067.29,229.04L1067.63,222.7L1067.83,225.64L1067.89,225.99L1068.15,230.8L1068.86,218.59L1068.88,219.06L1069,220.47L1069.38,214.96L1069.4,214.49L1070.22,211.08L1070.24,210.85L1071.29,202.4L1071.33,202.52L1071.35,202.75L1071.37,202.99L1071.59,196.88L1071.61,196.41L1071.83,191.72L1071.85,190.31L1072.01,192.31L1072.91,179.16L1072.93,178.81L1073.35,179.04L1073.78,173.06L1073.8,172.47L1074.78,162.38L1074.92,163.08L1074.94,163.43L1075.3,165.66L1075.44,159.91L1075.46,160.38L1075.48,160.15L1075.62,159.44L1075.9,165.43L1076.06,163.43L1076.08,163.9L1076.19,163.79L1076.27,166.02L1076.29,165.9L1076.31,166.6L1077.19,178.22L1077.25,177.29L1077.27,177.17L1077.55,177.52L1077.81,174.82L1078.03,176.7L1078.05,177.17L1078.47,170.36L1079.04,172.01L1079.06,172.12L1080.2,192.19L1080.5,189.38L1080.52,188.55L1080.8,189.26L1081.06,185.15L1081.23,188.67L1081.29,189.26L1082.55,209.8L1082.59,209.68L1082.61,209.21L1082.81,209.68L1083.05,205.46L1083.07,204.52L1083.76,205.1L1084.08,198.41L1084.3,199.59L1084.32,199.59L1085.5,214.02L1085.8,211.79L1085.82,211.56L1086.16,208.97L1086.45,213.55L1086.49,213.9L1086.81,218.13L1087.01,210.73L1087.03,210.03L1087.09,207.68L1087.49,215.08L1087.57,215.08L1087.59,214.84L1087.73,216.37L1088.07,213.08L1088.39,213.55L1088.41,213.79L1089.22,226.34L1089.66,223.05L1089.68,223.05L1089.76,221.76L1089.94,226.22L1089.96,226.93L1090.96,235.5L1090.98,234.32L1091.99,219.88L1092.33,223.05L1092.35,223.4L1092.51,228.1L1092.53,229.27L1092.79,228.57L1093.13,234.44L1093.37,233.73L1093.39,233.5L1094.1,242.18L1094.32,241.6L1094.34,241.71L1094.42,241.48L1094.72,245.94L1094.74,246.64L1095.24,252.51L1095.62,249.34L1095.64,249.23L1096.63,238.43L1096.69,241.6L1096.71,242.42L1096.73,242.19L1097.21,244.88L1097.23,245.82L1097.51,249.23L1097.83,243.83L1097.85,244.06L1097.87,243.47L1098.37,233.97L1098.73,239.6L1098.75,240.54L1099.06,239.13L1099.34,242.65L1099.36,243.24L1099.4,243.94L1099.96,239.83L1099.98,238.89L1100.76,226.92L1100.94,231.03L1100.96,231.27L1101.24,228.68L1101.59,235.84L1101.73,232.32L1101.75,231.26L1104.32,189.36L1104.56,190.77L1104.58,191.71L1104.68,193.35L1105.06,185.72L1105.1,185.72L1105.36,186.55L1106.26,163.54L1106.28,164.13L1106.35,164.83L1106.69,161.78L1106.91,162.49L1106.93,162.25L1107.27,152.63L1107.63,156.38L1107.65,157.09L1107.97,162.49L1108.39,157.32L1108.41,157.09L1109.66,136.67L1109.9,138.78L1109.92,139.25L1109.98,140.54L1110.5,134.2L1110.52,134.44L1110.54,134.67L1111.59,122.82L1111.61,123.05L1111.63,123.05L1111.89,130.68L1112.35,125.64L1112.37,125.87L1112.75,125.17L1112.93,130.21L1113.05,126.46L1113.07,125.4L1115.56,92.19L1115.6,92.42L1115.62,92.54L1116.73,71.06L1116.99,77.63L1117.01,77.99L1117.27,79.4L1117.39,78.81L1117.95,78.69L1118.37,79.86L1118.39,80.33L1118.55,80.69L1119.02,74L1119.04,73.64L1119.72,63.2L1119.8,63.43L1120.5,63.55L1121.3,69.54L1121.51,69.18L1121.85,69.42L1122.49,70.01L1122.77,69.54L1122.79,69.3L1123.11,70.48L1123.17,69.54L1123.19,68.6L1123.87,57.33L1124.04,62.49L1124.06,62.61L1124.12,60.5L1124.5,67.66L1124.72,63.55L1124.8,64.02L1124.88,63.67L1125.08,65.9L1125.1,66.25L1125.2,66.37L1125.22,65.9L1125.24,64.49L1125.58,58.51L1126.02,60.5L1126.08,60.27L1126.22,56.28L1126.65,63.2L1126.67,63.44L1127.81,54.87L1127.83,55.22L1127.85,56.16L1127.93,58.51L1128.11,54.75L1128.59,56.28L1128.67,55.46L1128.71,54.63L1129.28,58.74L1129.3,59.33L1129.56,60.97L1129.8,55.57L1129.82,54.75L1130.76,38.67L1130.92,39.73L1130.94,40.43L1131.69,52.52L1131.93,47.83L1131.95,47.59L1132.05,48.06L1132.43,45.48L1132.45,44.89L1132.65,46.77L1133.13,44.07L1133.21,44.66L1133.23,44.66L1133.47,41.14L1133.83,49.35L1133.85,49.7L1134.03,51.58L1134.42,44.31L1134.44,43.13L1134.78,44.78L1135.18,42.43L1135.2,42.54L1135.22,43.13L1135.78,50.53L1135.8,51.11L1136.58,53.93L1136.59,53.46L1136.61,53.34L1136.89,52.29L1137.11,56.16L1137.13,55.92L1137.15,56.16L1137.17,56.39L1137.43,51.11L1137.45,51.11L1137.49,50.76L1137.75,51.35L1138.83,38.67L1138.93,42.66L1138.95,42.9L1139.09,45.01L1139.24,39.73L1139.74,41.72L1139.76,42.31L1139.92,45.48L1140.26,39.14L1140.4,39.96L1140.48,40.08L1140.5,39.85L1140.8,44.89L1140.82,45.01L1140.92,49.24L1141.42,44.31L1141.44,43.37L1142.67,58.63L1142.69,58.16L1142.71,58.04L1142.81,58.16L1142.95,56.04L1143.09,57.92L1143.11,58.27L1143.45,62.15L1143.61,56.75L1143.63,55.34L1144.3,44.19L1144.46,47.01L1144.54,47.24L1145.34,53.58L1145.62,50.53L1145.64,50.29L1145.86,50.76L1146.04,45.72L1146.06,44.78L1147.11,31.4L1147.25,31.16L1147.59,23.3L1148.03,29.64L1148.05,29.87L1148.43,36.44L1148.77,29.28L1148.79,28.93L1149.24,32.34L1149.58,29.99L1149.6,29.64L1149.86,33.86L1150.46,26.94L1150.48,26.82L1151.22,20.95L1151.26,21.89L1151.36,22.24L1151.4,22.12L1153.18,41.61L1153.38,38.56L1153.4,38.56L1154.69,61.56L1154.71,62.62L1154.73,63.09L1155.17,56.16L1155.21,55.93L1155.57,50.06L1155.89,57.34L1155.91,57.69L1156.78,72.83L1156.96,69.31L1156.98,68.6L1157.18,68.96L1157.5,62.73L1157.51,62.38L1157.59,61.56L1157.99,68.6L1158.01,69.07L1158.87,82.8L1159,79.4L1159.02,78.11L1159.56,58.16L1159.94,62.26L1159.96,63.79L1161.05,77.64L1161.19,72.12L1161.21,70.95L1161.73,66.37L1161.97,70.36L1161.98,70.6L1162.14,70.13L1162.58,72.71L1162.7,70.36L1162.72,69.19L1162.82,66.37L1163.02,72.47L1163.04,72.94L1163.18,75.53L1163.71,68.83L1163.73,68.13L1164.07,66.49L1164.09,65.9L1164.25,62.03L1164.61,72.12L1164.63,73.29L1164.69,75.52L1165.08,63.9L1165.1,63.32L1165.26,62.61L1165.44,65.55L1165.5,65.9L1165.7,68.25L1166.1,63.55L1166.14,64.02L1166.16,64.14L1166.69,78.46L1166.71,79.98L1166.89,84.8L1167.23,74.7L1167.25,74L1167.27,73.53L1167.79,78.93L1167.81,78.81L1168.62,69.07L1168.94,70.48L1169,71.89L1169.34,78.34L1169.65,72.59L1169.67,72.01L1169.87,65.67L1170.27,73.18L1170.39,71.89L1170.41,72.59L1170.53,75.17L1171.28,66.72L1171.38,69.89L1171.4,70.01L1171.64,70.83L1172.08,57.69L1172.47,58.27L1172.49,58.27L1172.55,57.69L1172.93,64.73L1173.23,60.62L1173.25,60.03L1173.29,59.09L1173.53,63.67L1173.85,62.85L1173.87,64.14L1173.96,67.78L1174.48,56.98L1174.5,56.98L1174.76,48.65L1175.3,51.58L1175.36,51.11L1175.45,49.82L1175.77,52.99L1175.79,53.81L1176.41,60.5L1176.57,55.92L1176.59,55.45L1177.34,46.18L1177.4,48.06L1177.52,48.18L1177.92,45.83L1178.14,50.88L1178.22,49.94L1178.24,50.53L1178.26,50.88L1178.55,43.02L1178.59,43.72L1178.61,43.84L1178.85,41.14L1179.07,45.6L1179.09,46.3L1179.39,44.89L1179.55,49.24L1179.83,46.3L1179.84,46.42L1180.24,49.35L1180.56,46.07L1180.58,45.72L1180.86,48.3L1181.14,45.36L1181.22,46.66L1181.24,46.89L1181.34,46.19L1182.25,63.09L1182.27,63.79L1182.41,66.73L1182.77,57.92L1182.79,57.92L1183.07,59.1L1183.09,59.92L1183.45,57.45L1183.73,62.62L1183.87,61.68L1183.89,61.44L1183.97,60.86L1184.13,66.96L1184.15,68.02L1185.1,81.04L1185.2,80.46L1185.22,79.16L1185.52,86.32L1185.82,79.63L1185.84,78.81L1185.96,75.41L1186.28,87.26L1186.3,88.56L1186.6,96.07L1186.96,87.15L1186.98,87.15L1187,87.26L1187.03,86.21L1187.41,93.25L1187.57,93.25L1187.61,93.72L1187.81,94.19L1187.93,93.37L1187.95,92.55L1188.35,81.16L1188.73,89.38L1188.75,89.38L1189.66,73.65L1189.76,78.58L1189.78,79.99L1189.92,81.51L1190.22,70.36L1190.24,69.54L1190.4,64.73L1190.88,71.3L1190.9,71.89L1190.96,74.12L1191.52,70.13L1191.66,73.3L1191.68,73.18L1192.06,83.04L1192.59,80.57L1192.61,79.99L1193.17,72.48L1193.43,77.29L1193.45,77.99L1194.01,86.21L1194.03,87.73L1194.05,88.55L1194.68,84.21L1194.7,83.27L1195.02,80.1L1195.5,81.98L1195.52,82.69L1195.6,82.45L1196.76,98.65L1196.78,97.95L1196.8,97.71L1197.13,98.18L1197.19,96.07L1197.21,95.48L1197.77,95.72L1198.03,91.37L1198.05,91.26L1198.07,90.67L1198.33,101.7L1198.43,101.35L1198.45,101.94L1198.47,101.59L1198.89,107.1L1198.91,108.04L1199.57,114.73L1199.7,110.5L1199.74,110.39L1199.84,109.92L1199.92,112.62L1199.94,114.26L1200.3,126.23L1200.84,122.83L1200.9,122.12L1201.16,120.83L1201.44,122.71L1201.46,123.41L1202.63,143.25L1202.77,141.26L1202.79,140.2L1203.49,131.28L1203.67,131.87L1203.69,132.45L1204.31,127.52L1204.47,130.69L1204.49,130.81L1204.67,128.7L1204.76,132.92L1204.8,133.86L1204.9,136.68L1205.12,131.28L1205.14,130.22L1205.5,130.57L1205.94,123.06L1206.1,127.41L1206.12,128.23L1206.16,128.58L1206.44,125.88L1206.62,126.82L1206.64,125.88L1206.92,131.4L1207.21,123.53L1207.41,126.59L1207.43,126.12L1207.47,125.76L1207.69,129.99L1207.71,131.51L1208.05,134.68L1208.49,132.92L1208.51,133.04L1208.67,132.57L1208.99,142.08L1209.23,134.68L1209.25,133.51L1209.63,131.4L1209.86,137.15L1209.88,138.09L1210.92,157.8L1211.38,156.28L1211.4,156.04L1212.65,184.91L1212.95,180.81L1212.97,180.34L1213.01,179.98L1213.29,182.45L1213.47,182.45L1213.49,183.86L1214.51,197.94L1214.53,197.82L1214.76,201.81L1215.2,195.01L1215.22,195.01L1215.58,192.78L1215.74,197.59L1215.76,198.64L1216.94,212.61L1216.96,212.14L1217.57,204.63L1217.59,204.28L1217.71,202.63L1217.87,208.15L1218.21,205.33L1218.27,205.21L1218.71,204.63L1218.85,209.09L1219.05,206.74L1219.07,204.63L1219.27,198.64L1219.61,206.15L1219.88,200.17L1219.92,200.05L1221.1,188.08L1221.12,189.13L1221.52,184.44L1221.78,190.31L1221.8,191.25L1222.61,198.29L1222.73,197.23L1222.75,197.23L1222.95,198.05L1223.61,185.85L1223.89,190.07L1223.91,190.78L1224.96,209.91L1225.32,206.62L1225.34,206.15L1225.42,206.27L1225.86,199.34L1226.04,206.15L1226.06,206.86L1227.02,219.06L1227.08,216.48L1227.1,215.78L1227.87,208.62L1228.05,211.08L1228.07,211.79L1228.73,211.43L1229.03,216.01L1229.05,215.89L1229.27,217.65L1229.39,214.37L1229.41,213.66L1229.87,209.67L1230.22,210.61L1230.24,210.96L1230.36,209.55L1230.92,217.3L1231.1,214.01L1231.12,213.08L1231.22,214.72L1232.04,209.08L1232.16,209.55L1232.18,209.55L1232.49,213.78L1232.93,210.14L1232.97,209.79L1233.07,211.67L1233.45,207.33L1233.65,207.8L1233.67,207.8L1233.71,208.03L1233.85,205.1L1233.87,204.51L1234.23,205.92L1234.35,203.69L1234.47,205.45L1234.49,206.86L1234.87,215.54L1235.24,207.32L1235.26,206.74L1235.4,208.15L1236.6,192.42L1236.7,194.3L1236.72,194.77L1237.18,201.1L1237.53,198.52L1237.55,198.4L1237.73,200.16L1238.09,193.71L1238.45,196.53L1238.47,197.11L1238.65,195L1239.83,211.08L1239.89,209.44L1239.91,209.09L1240.14,205.8L1240.32,208.5L1240.34,208.62L1242.3,230.45L1242.32,230.33L1242.36,229.86L1242.77,236.91L1242.79,237.14L1243.23,240.31L1243.43,235.85L1243.45,235.38L1244.21,228.46L1244.27,229.28L1244.29,229.75L1244.37,230.33L1244.47,228.1L1244.49,227.52L1244.57,226.58L1244.79,232.56L1244.81,233.15L1245.1,238.67L1245.44,233.97L1245.46,233.74L1246.54,221.77L1246.72,225.76L1246.74,226.58L1247.44,234.32L1247.59,229.39L1247.61,228.57L1248.61,216.37L1248.67,218.48L1248.69,219.53L1248.77,219.3L1248.85,221.06L1248.87,221.65L1249.29,220.36L1249.53,224.11L1249.61,222.23L1249.63,221.77L1250.64,214.61L1250.66,214.84L1251.12,221.53L1251.36,219.53L1251.38,218.6L1251.44,218.13L1251.62,224.7L1251.64,225.17L1251.96,220.71L1252.28,227.4L1252.34,226.58L1252.36,226.93L1253.03,230.8L1253.23,229.98L1253.25,229.39L1253.35,227.75L1253.63,238.66L1253.71,237.14L1253.75,236.67L1253.97,231.97L1254.51,235.96L1254.53,235.96L1255.07,246.29L1255.54,243.95L1255.56,243.48L1255.58,243.24L1255.78,248.88L1255.84,248.88L1255.86,249.11L1255.94,246.29L1256.28,250.99L1256.3,251.46L1257.34,272.48L1257.56,270.5L1257.58,270.45L1258.05,268.62L1258.37,269.73L1258.39,270.05L1258.75,269.62L1259.05,274.59L1259.45,273.04L1259.47,272.86L1259.99,278.77L1260.42,277.03L1260.44,276.7L1260.84,273.39L1261.1,277.94L1261.12,278.03L1261.2,278.98L1261.7,275.74L1261.72,275.83L1261.74,275.78L1261.84,277.3L1262.12,274.07L1262.42,275.93L1262.44,276.49L1262.48,276.74L1262.73,273.63L1262.75,273.25L1263.71,268.26L1263.75,268.45L1263.77,268.54L1263.79,268.13L1264.17,270.67L1264.43,269.88L1264.45,270.87L1265.09,278.27L1265.3,274.87L1265.32,274.61L1265.56,277.98L1266.1,271.76L1266.12,272.69L1266.14,273.42L1266.56,272.72L1267,279.88L1267.02,279.36L1267.24,280.53L1267.64,277.56L1267.66,277.01" style="vector-effect: none; fill: none; stroke: rgb(0, 128, 0); stroke-opacity: 1; stroke-width: 2px; opacity: 1;"/></g><g class="points"/><g class="text"/></g><g class="trace scatter traceb65e8a" style="stroke-miterlimit: 2; opacity: 1;"><g class="fills"/><g class="errorbars"/><g class="lines"><path class="js-line" d="M916.81,142.19L916.89,144.48L917.3,134.96L917.4,138.11L917.42,135.61L917.58,133.21L918.66,153.43L918.68,153.94L918.82,158.06L919.24,147.41L919.28,147.67L919.57,150.92L919.95,143.46L920.07,145.43L920.09,145.34L920.15,145.25L920.45,148.49L920.55,145.3L920.57,144.26L921.08,154.06L921.2,149.49L921.22,148.53L921.36,144.31L921.82,150.75L921.9,150.63L921.92,151.11L921.96,151.5L922.16,147.91L922.45,149.61L922.47,148.89L923.37,161.22L923.53,157.87L923.55,156.62L923.76,155.35L924.08,159.06L924.1,159.28L924.36,156.74L925.93,171.86L925.95,171.26L925.97,169.94L926.15,169.41L926.49,173.22L926.71,169.92L926.73,170.05L926.74,169.72L927.26,177.28L927.28,177.54L928.02,188.66L928.22,183.06L928.23,181.49L928.29,181.2L928.47,184.47L928.49,184.86L928.87,195.45L929.23,188.15L929.25,186.82L929.84,182.74L929.98,186.11L930,186.81L931,208.28L931.61,205.72L931.63,205.44L931.79,204.93L932.01,210.9L932.03,211.17L933.08,226.42L933.1,226.48L933.16,226.31L935.37,265.6L935.41,265.06L935.43,265.1L935.63,257.88L936.12,265.62L936.14,266.92L938.68,306.18L938.78,304.53L938.8,304.12L938.84,303.63L939.08,307.35L939.42,306.91L939.44,306.95L939.68,305.07L940,309.69L940.02,310.26L940.1,309.55L940.89,325.2L940.91,325.17L940.93,326.46L941.72,336.01L941.84,335.77L941.86,335.87L941.98,336.19L942.02,334.56L942.04,334.6L942.06,334.15L943.33,356.5L943.43,354.12L943.45,353.9L943.71,351.59L944.19,352.62L944.21,353.57L944.25,352.68L944.66,359.83L944.68,359.94L945.5,369.86L945.74,364.8L945.76,364.74L946.41,359.55L946.53,362.82L946.55,363.32L947.27,372.35L947.64,371.3L947.66,370.25L948.28,361.5L948.5,364.88L948.52,365.96L949.42,371.81L949.44,371.29L949.46,371.05L949.64,373.56L950.37,367.48L950.39,367.63L950.41,367.85L950.55,367.2L950.75,371.03L950.77,371.85L951.31,369.31L951.43,373.66L951.45,373.9L951.79,374.17L952.66,364.99L952.72,365.9L952.74,367.03L952.82,367.47L953.44,360.03L953.58,364.52L953.6,365.19L953.64,365.37L953.82,360.74L953.84,359.4L954.86,349.91L954.88,350.73L954.96,351.14L955.61,342.88L955.77,347.93L955.79,348.69L955.95,352.01L956.51,347.99L956.53,347.89L957.11,342.83L957.58,344.29L957.6,344.26L957.76,343.8L957.86,345.72L957.9,345.53L957.92,346.14L958.46,344.23L958.62,346.64L958.64,346.69L958.84,344.81L959.08,350.16L959.34,347.74L959.36,347.77L960.02,351.06L960.19,350.69L960.21,350.32L960.27,350L960.39,351.81L960.57,351.24L960.59,352.54L961.11,355.04L961.23,351.05L961.29,351.76L961.31,351.66L961.39,351.15L961.45,352L961.47,353.69L961.87,350.87L962.11,351.62L962.13,352.59L962.47,356.45L962.96,355.7L962.98,355.8L963.18,353.63L963.62,358.3L963.64,358.46L963.96,356.06L965.27,367.94L965.51,367.58L965.53,367.62L965.55,367.37L965.85,372.79L965.87,373.86L966.99,387.87L967.17,387.16L967.19,386.95L967.57,389.78L967.7,387.23L967.72,387.19L967.8,386.52L967.92,390.19L967.94,391.08L968.34,395.5L968.74,393.39L968.76,393.47L969.24,395.88L969.5,391.77L969.52,391.98L969.54,392.7L970.29,398.05L970.45,395.8L970.47,394.31L970.73,393.61L970.95,394.85L971.13,394.21L971.15,394.06L971.27,393.91L971.49,395.21L971.61,394.71L971.63,393.02L972.01,390.58L972.21,394.88L972.31,392.5L972.33,391.12L972.61,387.51L972.92,390.25L972.94,391.13L973.08,391.02L973.44,396.8L973.64,393.66L973.66,393.6L973.96,395.18L974.68,379.47L974.7,379.46L974.86,379.13L975.18,384.39L975.83,383.95L975.85,383.63L976.95,368.68L977.21,370.09L977.23,369.99L979.18,344.94L979.22,345.06L979.24,345.08L979.28,346L979.74,340.21L979.8,340.62L979.82,339.82L980.22,336.13L980.24,334.75L980.73,324.44L980.75,324.47L980.77,323.54L981.21,318.53L981.63,321.38L981.65,321.25L982.96,302.86L982.98,302.26L983.1,302.85L983.34,298.53L983.36,297.84L984.34,288.7L984.36,288.7L984.54,288.83L984.6,288.18L984.62,287.4L985.16,281.18L985.18,279.62L986.57,261.62L986.59,261.62L986.65,261.88L986.91,259.81L986.93,258.51L988,246.44L988.22,249.28L988.24,249.76L988.44,250.99L988.8,246.61L988.82,245.75L989.06,246.67L989.92,237.97L989.98,240.28L990,240.55L990.1,241.29L990.35,237.03L990.37,235.59L991.41,241.81L991.47,241.01L991.49,240.72L992.27,229.85L992.57,231.67L992.59,232.32L992.87,231.81L992.98,233.58L993,235.08L994.2,241.09L994.26,240.87L994.28,240.45L994.44,239.71L995.02,251.94L995.04,252.73L995.43,259.16L995.81,254.35L995.83,254.25L995.99,253.49L996.37,256.99L996.53,255.19L996.55,254.39L996.85,250.63L997.03,253.94L997.05,255.16L997.49,262.75L997.94,260.04L997.96,259.93L998,259.75L998.1,262.29L998.12,263.22L998.4,266.36L998.56,261.55L998.58,260.13L998.7,258.54L999.18,268.88L999.2,269.57L999.54,274.17L999.72,271.44L999.74,270.26L999.84,267.89L1000.28,271.6L1000.3,271.42L1000.4,274.17L1000.71,267.34L1000.83,267.66L1000.85,266.28L1001.13,260.8L1001.53,269.29L1001.55,269.49L1001.75,273.82L1002.33,272.35L1002.35,272.43L1002.55,272.25L1002.61,273.34L1002.63,274.07L1002.73,274.95L1003.08,263.8L1003.1,262.28L1003.2,263.39L1003.42,257.65L1003.74,262.43L1003.76,262.5L1004.82,273.06L1004.86,272.18L1004.88,271.86L1005.04,265.23L1005.06,265.64L1005.08,264.77L1005.67,258.71L1005.91,260.81L1005.93,260.75L1005.99,260.56L1006.03,262.65L1006.05,263.56L1006.09,263.82L1006.41,261.42L1006.61,261.95L1006.63,261.49L1008.22,230.15L1008.24,231.45L1008.28,234.11L1008.78,216.7L1008.8,216.33L1009.94,198.66L1009.96,197.15L1010.12,198.47L1010.59,193.81L1010.61,192.9L1012.27,171.48L1012.69,174.58L1012.71,174.51L1012.95,168.43L1013.6,168.73L1013.62,169.1L1013.64,169.57L1014.28,167.12L1014.3,166.86L1015.44,146.57L1015.48,147.21L1015.52,148.58L1016.51,145.43L1016.53,146.38L1017.41,140.02L1017.43,139.69L1019.3,153.64L1019.32,153.52L1019.34,152.42L1019.6,145.89L1019.9,148.96L1019.92,149.91L1020.83,156.28L1020.93,156.24L1020.95,156.22L1021.31,163.79L1021.79,159.92L1021.83,158.96L1021.87,158.04L1022.11,164.05L1022.31,163.78L1022.33,165.32L1022.75,175.03L1023.14,171.64L1023.22,171.66L1023.62,177.06L1024.02,173.19L1024.04,173.11L1024.34,176.22L1024.36,176.98L1025.2,190.77L1025.4,189.19L1025.42,189.34L1025.56,188.24L1025.73,190.52L1026.23,190.02L1026.25,189.49L1026.53,183.49L1026.73,187.53L1026.75,188.66L1026.97,188L1027.11,191.96L1027.49,188.86L1027.51,187.99L1027.63,190.27L1027.89,186.69L1027.91,184.99L1028.36,179.63L1028.38,178.37L1028.4,178.06L1028.62,185.09L1028.64,184.7L1028.66,185.9L1028.76,185.82L1029.46,195.21L1029.52,192.04L1029.54,192.25L1030.2,181.87L1030.54,186.22L1030.56,186.57L1030.75,187.73L1030.91,184.61L1030.97,186.16L1030.99,187.71L1031.07,186.29L1032.03,195.34L1032.07,194.41L1032.09,194.33L1032.39,191.3L1032.97,200.53L1033.01,198.7L1033.03,197.78L1033.22,191.65L1033.82,194.54L1033.84,195.01L1034.12,200.46L1034.48,191.69L1034.5,190.27L1035.83,172.56L1036.01,175.9L1036.03,175.9L1036.07,176.48L1036.39,169.96L1036.53,174.72L1036.55,174.97L1036.63,178.44L1037.2,172.65L1037.22,173.03L1037.24,172.84L1037.42,173.41L1038,169.67L1038.02,170.97L1038.04,172.07L1038.3,163.04L1038.32,162.05L1040.96,127.43L1040.98,128.32L1041.02,129.15L1041.3,129.3L1042.25,111.13L1042.27,109.35L1043.2,93.32L1043.24,93.38L1043.26,94.14L1043.28,94.9L1043.86,89.9L1043.9,89.97L1043.92,89.91L1045.05,81.23L1045.15,83.26L1045.17,83.21L1045.23,85.9L1045.79,80.69L1045.81,80.26L1046.24,74.28L1046.26,73.21L1046.54,71.36L1046.94,76.86L1047.26,76.04L1047.3,75.34L1047.33,75.15L1047.75,76.85L1047.85,76.61L1047.87,77.62L1049.78,99.97L1049.8,100.58L1051.05,116.45L1051.13,116.71L1051.84,128.93L1051.86,130.14L1053.04,151.49L1053.06,152.03L1054.94,180.56L1054.96,179L1054.98,178.69L1055.42,183.26L1055.44,183.86L1056.24,197.71L1056.37,196.43L1056.39,196.22L1056.65,195.33L1056.99,208.17L1057.01,209.67L1057.61,213.4L1057.71,211.08L1057.78,211.06L1057.88,210.32L1058.04,212.92L1058.16,212.71L1058.18,213.92L1058.34,213.31L1058.5,215.04L1058.52,214.8L1058.54,215.67L1058.74,214.24L1058.98,223.22L1059,223.96L1059.89,232.33L1060.09,231.07L1060.11,230.05L1060.21,230.18L1060.23,229.39L1060.29,229.04L1060.51,234.5L1060.74,227.28L1060.82,227.29L1060.84,226.37L1061.12,235.4L1061.14,236.38L1062.83,265.14L1062.93,263.67L1062.95,262.4L1063.05,260.55L1063.29,265.07L1063.72,260.61L1063.74,261.16L1063.86,260.6L1064.02,262.98L1064.04,263.91L1064.1,263.63L1064.16,266.87L1064.18,267.91L1064.46,271.83L1064.8,266.95L1064.82,265.24L1066.13,243.89L1066.15,245.39L1066.45,248.19L1066.79,243.37L1066.81,243.45L1066.83,243.2L1067.83,224.24L1067.99,226L1068.01,226.66L1068.15,228.79L1069.12,211.58L1069.14,211.63L1069.16,211.33L1069.2,211.39L1071.53,177.94L1071.55,177.13L1071.83,168.63L1071.85,167.42L1073.03,150.67L1073.09,152.74L1073.15,151.78L1073.56,156.38L1073.78,152.14L1073.8,151.44L1073.84,151.9L1074.2,148.77L1074.44,150.25L1074.46,150.22L1075.34,141.33L1075.36,139.71L1076.23,132.54L1076.41,135.43L1076.43,135.85L1076.81,134.85L1076.87,135.54L1076.89,136.01L1077.11,137.9L1077.33,134.56L1077.63,135.61L1077.65,135.96L1078.47,129.05L1078.6,130.97L1078.62,131.85L1079.04,131.38L1079.44,137.86L1079.46,137.81L1080.2,146.55L1080.3,145.48L1080.32,144.35L1081.11,138.12L1081.15,139.25L1081.17,139.21L1082.25,151.92L1082.27,153.63L1082.93,158.75L1083.05,157.89L1083.07,156.83L1083.61,153.54L1084.1,153.99L1084.12,155.01L1084.4,156.36L1084.42,157.15L1085.82,176.34L1085.84,175.77L1085.86,174.65L1085.94,176.62L1086.06,173.38L1086.08,172.31L1086.1,171.66L1086.45,183.15L1086.49,183.76L1087.47,199.66L1087.51,199.23L1087.53,199.25L1087.65,197.5L1087.95,202.96L1087.97,202.88L1087.99,202.95L1088.05,202.09L1088.29,204.07L1088.31,204.77L1090.38,244.85L1090.4,245.64L1090.6,242.84L1090.92,248.16L1091.02,245.15L1091.04,244.22L1091.18,240.62L1091.79,243.73L1091.81,244.23L1092.27,235.31L1092.47,239.12L1092.49,240.62L1092.81,238.82L1093.47,248.54L1093.57,247.9L1093.59,247.46L1094.18,254.77L1094.4,252.65L1094.42,252.4L1095.32,255.54L1095.34,255.24L1095.36,253.64L1096.55,238.38L1096.75,241.82L1096.77,242.62L1097.11,241.21L1097.41,247.83L1097.77,245.02L1097.79,244.73L1098.37,233.49L1098.86,236.38L1098.88,236.52L1099.02,236.14L1099.4,240.22L1099.72,238.93L1099.74,238.29L1099.82,238.75L1099.9,236.71L1099.92,235.38L1100.78,219.76L1101.1,221.84L1101.12,221.73L1101.63,223.65L1101.79,217.03L1101.81,217.04L1103.31,192.38L1103.45,192.86L1103.47,192.82L1104.06,177.72L1104.08,176.95L1105.18,164.35L1105.28,165.76L1105.3,165.9L1105.68,155.11L1105.7,153.9L1106.47,138.25L1106.69,139.04L1106.71,139.51L1106.79,141.23L1107.17,129.56L1107.19,129.46L1107.47,121.67L1107.87,131.37L1107.89,132.51L1108.37,133.12L1109.2,120.7L1109.22,119.92L1109.64,115.84L1110,118.11L1110.02,118.06L1110.98,99.99L1111,99.77L1111.06,98.21L1111.2,100.86L1111.71,100.76L1111.73,102.26L1111.93,110.04L1112.51,104.59L1112.53,104.52L1112.73,101.23L1112.95,108.21L1113.25,104.13L1113.27,102.78L1113.31,104.14L1113.69,97.38L1113.98,101.16L1114.02,101.23L1114.36,103.37L1114.62,99.41L1114.64,98.85L1115.34,90.55L1115.6,91.8L1115.62,92.04L1115.68,92.23L1115.8,90.15L1115.82,89.17L1116.75,77.49L1116.77,78.32L1117.11,83.66L1117.39,81.12L1117.95,81.49L1118.61,86.99L1118.71,84.57L1118.73,83.02L1119.72,73.06L1119.74,73.02L1120.56,73.71L1120.58,74.35L1120.72,74.03L1120.88,75.41L1120.9,76.09L1120.94,76.61L1121.34,72.78L1121.4,73.15L1121.51,73.15L1122.77,73.94L1122.99,73.59L1123.01,73.51L1123.11,74.05L1123.89,57.29L1124.18,62.12L1124.2,63.34L1124.22,63.09L1124.44,69.74L1124.46,70.85L1126.22,54.03L1126.26,57.05L1126.28,58.33L1126.3,57.76L1126.73,60.33L1126.95,59.47L1126.97,60.26L1126.99,60.91L1127.51,55.17L1127.53,53.84L1128.11,41.63L1128.43,44.64L1128.55,44.59L1129.04,44.01L1129.56,53.73L1129.66,51.22L1129.68,49.74L1130.54,34.69L1130.72,33.35L1130.76,31.4L1131.24,42.15L1131.26,41.15L1131.28,42.59L1131.67,51.7L1131.95,40.83L1131.97,39.8L1132.55,32.29L1132.85,34.81L1132.87,35.73L1133.45,30.14L1133.69,33.09L1133.71,33.54L1134.03,36.01L1134.24,30.73L1134.3,31.52L1134.32,30.48L1134.94,20.95L1135.22,22.46L1135.26,23.52L1136.5,33.12L1136.58,32.11L1136.71,31.4L1137.15,37.74L1137.37,35.3L1137.39,34.23L1138.31,26.3L1138.33,27.08L1139.46,38.98L1139.66,37.11L1139.68,37.21L1139.88,40.74L1140.16,35.02L1140.4,36.46L1140.48,36.11L1140.5,35.85L1140.86,40.23L1140.88,41.21L1140.92,42.28L1141.1,35.44L1141.42,36.92L1141.44,36.18L1141.5,35.55L1141.99,43.68L1142.23,38.99L1142.31,38.62L1142.35,37.74L1142.65,43.33L1143.01,39.4L1143.05,39.53L1143.47,45.68L1143.71,34.33L1143.73,33.3L1143.83,29.29L1144.01,35.06L1144.36,32.92L1144.38,33.64L1145.38,43.54L1145.68,40.86L1145.7,40.16L1145.9,41.82L1146.36,26.28L1146.83,29.06L1146.85,29.9L1147.41,26.6L1147.43,24.96L1147.59,23.67L1147.75,26.94L1147.77,28.45L1148.43,38.85L1148.71,34.65L1148.73,33.04L1148.75,32.28L1149.24,37.85L1149.34,37.62L1149.42,37.29L1149.74,40.17L1149.76,40.95L1149.86,45.6L1150.34,37.31L1150.36,37.45L1150.46,37.48L1151.22,30.68L1151.54,31L1151.55,32L1151.59,31.45L1151.89,38.32L1152.07,36.1L1152.11,37.05L1152.15,36.37L1153.16,52.46L1153.42,48.36L1153.44,48.33L1154.61,65.81L1154.75,65.36L1154.77,64.19L1154.83,65.41L1155.61,50.22L1155.83,56.84L1155.85,58.18L1156.34,75.46L1156.88,74.5L1156.9,73.11L1157.59,62.54L1157.97,66.32L1157.99,67.77L1158.05,65.97L1158.17,70.64L1158.19,72.01L1158.65,78.79L1158.97,74.5L1158.99,74.32L1159.9,52.66L1159.92,53.68L1159.94,54.75L1160.97,64.33L1161.03,64.69L1162.14,46.96L1162.26,48.07L1162.28,48.73L1162.52,48.9L1162.76,44.73L1162.78,44.05L1162.82,42.93L1163.22,51.44L1163.44,48.3L1163.46,49.66L1164.25,37.21L1164.43,42.12L1164.45,43.42L1164.71,48.08L1164.96,38.96L1164.98,38.9L1165.12,38.1L1165.34,42.62L1165.36,44.21L1165.64,46.89L1165.78,41.9L1165.8,40.94L1165.86,38.44L1166.49,43.65L1166.51,43.56L1166.91,58.5L1167.37,49.19L1167.39,49.15L1167.79,51.22L1168,47.45L1168.02,47.49L1168.04,47.27L1168.08,47.91L1168.88,40.72L1169,41.91L1169.02,42.64L1169.34,49.98L1169.69,40.67L1169.73,41.22L1169.75,39.76L1169.91,36.03L1170.31,42.87L1170.45,41.49L1170.47,43.05L1170.53,45.37L1170.71,40.8L1170.75,40.68L1171.16,38.32L1171.38,42.06L1171.4,43.49L1171.62,45.33L1172.14,31.51L1172.53,31.65L1172.55,31.71L1173.53,42.42L1173.63,42.03L1173.65,42.18L1173.67,41.99L1173.87,47.11L1173.88,47.25L1174.02,50.37L1174.42,41.91L1174.44,40.68L1174.72,30.62L1175.24,36.15L1175.26,36.52L1175.45,34.67L1175.83,40.84L1175.85,41.41L1176.07,40.5L1176.43,47.9L1176.61,42.29L1176.63,41.33L1177.32,35.57L1177.4,37.93L1177.52,38.74L1177.9,35.9L1178.24,39.37L1178.26,40.41L1178.28,40.72L1178.47,33.08L1178.53,33.15L1178.55,32.28L1178.85,30.54L1179.33,38.48L1179.37,37.09L1179.39,36.75L1179.41,36.41L1179.65,44.83L1179.69,44.92L1179.81,44.72L1180.08,50.8L1180.36,45.46L1180.38,43.95L1180.64,43.07L1180.88,46.89L1181.16,45.3L1181.2,45.16L1181.99,57.31L1182.01,58.28L1182.47,68.93L1182.79,62.2L1182.99,62.32L1183.13,66.38L1183.51,58.07L1183.55,58.15L1183.57,58L1183.95,53.23L1184.15,61.64L1184.17,62.38L1184.92,72.79L1185.12,71.52L1185.2,70.81L1185.52,75.79L1186,60.48L1186.1,64.52L1186.12,65.28L1186.62,78.14L1186.92,68.37L1186.94,67.13L1186.98,66.97L1187.11,69.24L1187.13,70.47L1187.39,75.05L1187.61,73.24L1187.63,72.65L1188.17,57.61L1188.55,62.58L1188.57,63.45L1188.75,65.27L1189.03,61.32L1189.05,60.93L1189.58,51.64L1189.8,56.34L1189.82,57.37L1189.92,57.57L1190.22,49.74L1190.24,48.36L1190.4,42.32L1190.86,48.16L1190.88,48.65L1191.04,53.49L1191.52,46.07L1191.58,46.24L1191.6,46.71L1192.07,62.17L1192.51,60.81L1192.53,60.01L1193.17,48.95L1193.37,52.41L1193.39,52.31L1193.79,51.79L1194.07,60.19L1194.55,57.81L1194.57,57.47L1195.18,53.61L1195.42,55.09L1195.44,55.36L1195.5,54.91L1195.68,58.28L1195.7,59.12L1195.9,57.16L1197.15,76.35L1197.25,72.85L1197.27,72.79L1198.09,66.91L1198.13,69.7L1198.15,70.5L1199.07,89.25L1199.15,89.16L1199.19,88.95L1199.25,88.08L1199.57,93.09L1199.78,89.68L1199.82,90.43L1199.84,90.14L1200.08,96.72L1200.1,98.35L1200.66,108.97L1200.94,105.36L1200.98,104.4L1201.42,102.26L1201.54,104.58L1201.76,103.39L1201.78,103.73L1202,101.9L1202.33,108.74L1202.35,108.62L1202.37,108.88L1202.75,122.96L1203.23,118.18L1203.29,119.12L1204.27,106.96L1204.43,109.9L1204.45,110.15L1204.63,109.31L1204.88,116.2L1205.14,109.96L1205.2,108.73L1205.54,112.96L1205.82,110.7L1205.84,110.16L1205.94,109.79L1206.58,115.96L1206.64,114.57L1206.66,114.56L1206.96,121.32L1207.14,116.47L1207.16,115.47L1207.23,114.79L1208.27,125.14L1208.29,125.06L1208.33,125.1L1208.79,130.84L1208.81,131.9L1209.03,139.68L1209.41,128.92L1209.51,130.96L1209.53,129.79L1210.58,146.06L1210.6,145.47L1210.92,152.53L1211.26,149.02L1211.28,147.65L1211.3,147.05L1211.74,156.27L1211.76,156.77L1212.65,168.62L1212.97,165.24L1212.99,165.06L1213.03,164.11L1213.59,171.4L1213.63,171.04L1213.65,170.35L1214.13,179L1214.17,177.64L1214.19,177.8L1214.76,184.37L1214.92,180.81L1214.94,179.44L1215.58,172.71L1215.72,176.05L1215.74,177.15L1216.52,187.54L1216.58,186.71L1216.6,186.51L1216.94,191.15L1217.27,184.3L1217.29,184.54L1217.71,178.83L1218.21,180.7L1218.27,180.89L1218.99,188.29L1219.09,184.26L1219.11,182.61L1219.27,180.9L1219.63,187.31L1219.75,181.31L1219.79,179.81L1220.5,171.23L1220.52,170.23L1220.76,171.42L1221.52,163.62L1221.56,163.64L1221.58,163.98L1222.75,178.03L1222.87,177.55L1222.89,177.51L1222.93,178.74L1223.45,172.11L1223.47,171.21L1223.75,169.26L1223.95,171.13L1223.97,172.49L1225.02,192.28L1225.06,191.17L1225.08,191.38L1225.86,184.66L1225.96,187.27L1225.98,188.64L1226.84,204.1L1226.92,203.23L1226.94,203.13L1227.02,203.74L1227.3,197.95L1227.32,196.78L1227.87,193.63L1228.35,203.4L1228.43,203.48L1228.59,203.29L1228.91,206.86L1228.93,207.93L1229.29,210.14L1230.36,199.76L1230.4,200.22L1230.42,200.58L1231.4,211.29L1231.42,211.12L1231.88,212.48L1231.96,210.62L1232.2,212.32L1232.22,212.34L1232.24,212.18L1232.47,214.97L1232.57,214.64L1232.59,215.5L1232.61,215.92L1232.73,212.5L1233.25,214.29L1233.27,214.01L1233.71,215.48L1233.83,213.32L1233.85,212.3L1234.11,208.8L1234.49,213.9L1234.51,214.29L1234.89,223.89L1235.34,217.76L1235.36,217.84L1235.4,220.05L1235.9,212.59L1235.92,212.71L1235.94,212.7L1236.62,204.16L1236.72,206.86L1236.74,208.38L1237.18,216.49L1237.45,212.74L1237.47,211.96L1237.71,212.66L1238.03,207.77L1238.05,206.65L1238.75,204.15L1238.81,205.26L1238.83,205.5L1239.81,219.49L1239.83,219.41L1240.62,213.49L1240.68,216.1L1240.7,216.87L1241.28,215.78L1241.8,226.33L1241.82,226.09L1241.86,225.6L1242.18,227.87L1242.57,224.67L1242.59,225.31L1242.61,226.46L1242.71,230.93L1242.95,226.16L1243.33,226.19L1243.35,225.65L1244.57,211.99L1244.75,215.64L1244.77,215.7L1245.12,220.04L1245.24,217.82L1245.26,217.48L1246.52,202.8L1246.72,206.44L1246.74,206.78L1247.14,210.73L1247.53,208.8L1247.55,207L1248.43,193.14L1248.45,193.46L1248.47,193.27L1248.65,190.66L1248.95,195.94L1248.99,195.88L1249.01,196.75L1249.29,194.15L1249.51,199.21L1249.67,195.43L1249.69,193.86L1250.72,185.21L1250.82,187.36L1250.84,188.65L1251.64,194.46L1251.66,193.25L1251.68,193.39L1251.98,187.24L1252.42,193.35L1252.44,193.02L1252.52,192.47L1252.83,194.2L1252.93,193.91L1252.95,194.62L1253.65,206.44L1253.83,202.79L1253.85,202.62L1253.97,200.39L1254.31,203.87L1254.45,203.56L1254.47,203.61L1255.1,215.88L1255.48,214.48L1255.5,214.53L1255.62,213.98L1256.38,221.45L1256.4,222.44L1257.32,239.36L1257.65,235.92L1257.67,235.68L1258.05,233.74L1258.15,236.18L1258.21,235.96L1258.23,237.03L1258.79,235.06L1258.89,237.49L1258.91,238.23L1259.77,243.77L1259.83,243.09L1259.85,242.87L1259.95,243.83L1260.56,241.46L1260.66,241.94L1260.68,241.71L1260.86,240.03L1261.22,243.5L1261.38,242.37L1261.4,242.21L1261.44,241.85L1261.86,244.82L1261.88,244.71L1262.16,242.16L1262.48,246.1L1262.52,245.59L1262.54,246.72L1262.62,247.17L1263.15,245.08L1263.17,244.87L1263.79,243.86L1264.03,252.16L1264.05,251.85L1264.29,248.96L1264.57,255.96L1264.59,257.13L1264.65,256.99L1265.09,261.62L1265.36,257.78L1265.38,257.4L1265.54,261.48L1265.98,256.58L1266,256.27L1266.56,255.23L1266.84,262.83L1266.86,262.52L1266.88,262.04L1267.06,268.21L1267.66,264.67" style="vector-effect: none; fill: none; stroke: rgb(255, 0, 0); stroke-opacity: 1; stroke-width: 2px; opacity: 1;"/></g><g class="points"/><g class="text"/></g></g></g></g><g class="zerolinelayer-above"/><path class="xlines-above crisp" d="M89,520H1473M89,99H1473" style="fill: none; stroke-width: 2px; stroke: rgb(0, 0, 0); stroke-opacity: 1;"/><path class="ylines-above crisp" d="M90,100V519M1472,100V519" style="fill: none; stroke-width: 2px; stroke: rgb(0, 0, 0); stroke-opacity: 1;"/><g class="overlines-above"/><g class="xaxislayer-above"><path class="xtick ticks crisp" d="M0,521v4" transform="translate(108.02,0)" style="stroke: rgb(68, 68, 68); stroke-opacity: 1; stroke-width: 1px;"/><path class="xtick ticks crisp" d="M0,521v4" transform="translate(137.1,0)" style="stroke: rgb(68, 68, 68); stroke-opacity: 1; stroke-width: 1px;"/><path class="xtick ticks crisp" d="M0,521v4" transform="translate(166.18,0)" style="stroke: rgb(68, 68, 68); stroke-opacity: 1; stroke-width: 1px;"/><path class="xtick ticks crisp" d="M0,521v4" transform="translate(195.26999999999998,0)" style="stroke: rgb(68, 68, 68); stroke-opacity: 1; stroke-width: 1px;"/><path class="xtick ticks crisp" d="M0,521v4" transform="translate(224.35,0)" style="stroke: rgb(68, 68, 68); stroke-opacity: 1; stroke-width: 1px;"/><path class="xtick ticks crisp" d="M0,521v4" transform="translate(253.44,0)" style="stroke: rgb(68, 68, 68); stroke-opacity: 1; stroke-width: 1px;"/><path class="xtick ticks crisp" d="M0,521v4" transform="translate(282.52,0)" style="stroke: rgb(68, 68, 68); stroke-opacity: 1; stroke-width: 1px;"/><path class="xtick ticks crisp" d="M0,521v4" transform="translate(311.61,0)" style="stroke: rgb(68, 68, 68); stroke-opacity: 1; stroke-width: 1px;"/><path class="xtick ticks crisp" d="M0,521v4" transform="translate(340.69,0)" style="stroke: rgb(68, 68, 68); stroke-opacity: 1; stroke-width: 1px;"/><path class="xtick ticks crisp" d="M0,521v4" transform="translate(369.78,0)" style="stroke: rgb(68, 68, 68); stroke-opacity: 1; stroke-width: 1px;"/><path class="xtick ticks crisp" d="M0,521v4" transform="translate(398.86,0)" style="stroke: rgb(68, 68, 68); stroke-opacity: 1; stroke-width: 1px;"/><path class="xtick ticks crisp" d="M0,521v4" transform="translate(427.95,0)" style="stroke: rgb(68, 68, 68); stroke-opacity: 1; stroke-width: 1px;"/><path class="xtick ticks crisp" d="M0,521v4" transform="translate(457.03,0)" style="stroke: rgb(68, 68, 68); stroke-opacity: 1; stroke-width: 1px;"/><path class="xtick ticks crisp" d="M0,521v4" transform="translate(486.12,0)" style="stroke: rgb(68, 68, 68); stroke-opacity: 1; stroke-width: 1px;"/><path class="xtick ticks crisp" d="M0,521v4" transform="translate(515.2,0)" style="stroke: rgb(68, 68, 68); stroke-opacity: 1; stroke-width: 1px;"/><path class="xtick ticks crisp" d="M0,521v4" transform="translate(544.29,0)" style="stroke: rgb(68, 68, 68); stroke-opacity: 1; stroke-width: 1px;"/><path class="xtick ticks crisp" d="M0,521v4" transform="translate(573.37,0)" style="stroke: rgb(68, 68, 68); stroke-opacity: 1; stroke-width: 1px;"/><path class="xtick ticks crisp" d="M0,521v4" transform="translate(602.45,0)" style="stroke: rgb(68, 68, 68); stroke-opacity: 1; stroke-width: 1px;"/><path class="xtick ticks crisp" d="M0,521v4" transform="translate(631.54,0)" style="stroke: rgb(68, 68, 68); stroke-opacity: 1; stroke-width: 1px;"/><path class="xtick ticks crisp" d="M0,521v4" transform="translate(660.62,0)" style="stroke: rgb(68, 68, 68); stroke-opacity: 1; stroke-width: 1px;"/><path class="xtick ticks crisp" d="M0,521v4" transform="translate(689.71,0)" style="stroke: rgb(68, 68, 68); stroke-opacity: 1; stroke-width: 1px;"/><path class="xtick ticks crisp" d="M0,521v4" transform="translate(718.79,0)" style="stroke: rgb(68, 68, 68); stroke-opacity: 1; stroke-width: 1px;"/><path class="xtick ticks crisp" d="M0,521v4" transform="translate(747.88,0)" style="stroke: rgb(68, 68, 68); stroke-opacity: 1; stroke-width: 1px;"/><path class="xtick ticks crisp" d="M0,521v4" transform="translate(776.96,0)" style="stroke: rgb(68, 68, 68); stroke-opacity: 1; stroke-width: 1px;"/><path class="xtick ticks crisp" d="M0,521v4" transform="translate(806.05,0)" style="stroke: rgb(68, 68, 68); stroke-opacity: 1; stroke-width: 1px;"/><path class="xtick ticks crisp" d="M0,521v4" transform="translate(835.13,0)" style="stroke: rgb(68, 68, 68); stroke-opacity: 1; stroke-width: 1px;"/><path class="xtick ticks crisp" d="M0,521v4" transform="translate(864.22,0)" style="stroke: rgb(68, 68, 68); stroke-opacity: 1; stroke-width: 1px;"/><path class="xtick ticks crisp" d="M0,521v4" transform="translate(893.3,0)" style="stroke: rgb(68, 68, 68); stroke-opacity: 1; stroke-width: 1px;"/><path class="xtick ticks crisp" d="M0,521v4" transform="translate(922.39,0)" style="stroke: rgb(68, 68, 68); stroke-opacity: 1; stroke-width: 1px;"/><path class="xtick ticks crisp" d="M0,521v4" transform="translate(951.47,0)" style="stroke: rgb(68, 68, 68); stroke-opacity: 1; stroke-width: 1px;"/><path class="xtick ticks crisp" d="M0,521v4" transform="translate(980.55,0)" style="stroke: rgb(68, 68, 68); stroke-opacity: 1; stroke-width: 1px;"/><path class="xtick ticks crisp" d="M0,521v4" transform="translate(1009.64,0)" style="stroke: rgb(68, 68, 68); stroke-opacity: 1; stroke-width: 1px;"/><path class="xtick ticks crisp" d="M0,521v4" transform="translate(1038.72,0)" style="stroke: rgb(68, 68, 68); stroke-opacity: 1; stroke-width: 1px;"/><path class="xtick ticks crisp" d="M0,521v4" transform="translate(1067.81,0)" style="stroke: rgb(68, 68, 68); stroke-opacity: 1; stroke-width: 1px;"/><path class="xtick ticks crisp" d="M0,521v4" transform="translate(1096.8899999999999,0)" style="stroke: rgb(68, 68, 68); stroke-opacity: 1; stroke-width: 1px;"/><path class="xtick ticks crisp" d="M0,521v4" transform="translate(1125.98,0)" style="stroke: rgb(68, 68, 68); stroke-opacity: 1; stroke-width: 1px;"/><path class="xtick ticks crisp" d="M0,521v4" transform="translate(1155.06,0)" style="stroke: rgb(68, 68, 68); stroke-opacity: 1; stroke-width: 1px;"/><path class="xtick ticks crisp" d="M0,521v4" transform="translate(1184.15,0)" style="stroke: rgb(68, 68, 68); stroke-opacity: 1; stroke-width: 1px;"/><path class="xtick ticks crisp" d="M0,521v4" transform="translate(1213.23,0)" style="stroke: rgb(68, 68, 68); stroke-opacity: 1; stroke-width: 1px;"/><path class="xtick ticks crisp" d="M0,521v4" transform="translate(1242.32,0)" style="stroke: rgb(68, 68, 68); stroke-opacity: 1; stroke-width: 1px;"/><path class="xtick ticks crisp" d="M0,521v4" transform="translate(1271.4,0)" style="stroke: rgb(68, 68, 68); stroke-opacity: 1; stroke-width: 1px;"/><path class="xtick ticks crisp" d="M0,521v4" transform="translate(1300.49,0)" style="stroke: rgb(68, 68, 68); stroke-opacity: 1; stroke-width: 1px;"/><path class="xtick ticks crisp" d="M0,521v4" transform="translate(1329.57,0)" style="stroke: rgb(68, 68, 68); stroke-opacity: 1; stroke-width: 1px;"/><path class="xtick ticks crisp" d="M0,521v4" transform="translate(1358.66,0)" style="stroke: rgb(68, 68, 68); stroke-opacity: 1; stroke-width: 1px;"/><path class="xtick ticks crisp" d="M0,521v4" transform="translate(1387.74,0)" style="stroke: rgb(68, 68, 68); stroke-opacity: 1; stroke-width: 1px;"/><path class="xtick ticks crisp" d="M0,521v4" transform="translate(1416.82,0)" style="stroke: rgb(68, 68, 68); stroke-opacity: 1; stroke-width: 1px;"/><path class="xtick ticks crisp" d="M0,521v4" transform="translate(1445.91,0)" style="stroke: rgb(68, 68, 68); stroke-opacity: 1; stroke-width: 1px;"/><path class="xtick ticks crisp" d="M0,519v-5" transform="translate(195.26999999999998,0)" style="stroke: rgb(68, 68, 68); stroke-opacity: 1; stroke-width: 1px;"/><path class="xtick ticks crisp" d="M0,519v-5" transform="translate(340.69,0)" style="stroke: rgb(68, 68, 68); stroke-opacity: 1; stroke-width: 1px;"/><path class="xtick ticks crisp" d="M0,519v-5" transform="translate(486.12,0)" style="stroke: rgb(68, 68, 68); stroke-opacity: 1; stroke-width: 1px;"/><path class="xtick ticks crisp" d="M0,519v-5" transform="translate(631.54,0)" style="stroke: rgb(68, 68, 68); stroke-opacity: 1; stroke-width: 1px;"/><path class="xtick ticks crisp" d="M0,519v-5" transform="translate(776.96,0)" style="stroke: rgb(68, 68, 68); stroke-opacity: 1; stroke-width: 1px;"/><path class="xtick ticks crisp" d="M0,519v-5" transform="translate(922.39,0)" style="stroke: rgb(68, 68, 68); stroke-opacity: 1; stroke-width: 1px;"/><path class="xtick ticks crisp" d="M0,519v-5" transform="translate(1067.81,0)" style="stroke: rgb(68, 68, 68); stroke-opacity: 1; stroke-width: 1px;"/><path class="xtick ticks crisp" d="M0,519v-5" transform="translate(1213.23,0)" style="stroke: rgb(68, 68, 68); stroke-opacity: 1; stroke-width: 1px;"/><path class="xtick ticks crisp" d="M0,519v-5" transform="translate(1358.66,0)" style="stroke: rgb(68, 68, 68); stroke-opacity: 1; stroke-width: 1px;"/><g class="xtick"><text text-anchor="middle" x="0" y="547.4" transform="translate(195.26999999999998,0)" style="font-family: 'Courier New'; font-size: 22px; fill: rgb(0, 0, 0); fill-opacity: 1; white-space: pre;">1980</text></g><g class="xtick"><text text-anchor="middle" x="0" y="547.4" style="font-family: 'Courier New'; font-size: 22px; fill: rgb(0, 0, 0); fill-opacity: 1; white-space: pre;" transform="translate(340.69,0)">1985</text></g><g class="xtick"><text text-anchor="middle" x="0" y="547.4" style="font-family: 'Courier New'; font-size: 22px; fill: rgb(0, 0, 0); fill-opacity: 1; white-space: pre;" transform="translate(486.12,0)">1990</text></g><g class="xtick"><text text-anchor="middle" x="0" y="547.4" style="font-family: 'Courier New'; font-size: 22px; fill: rgb(0, 0, 0); fill-opacity: 1; white-space: pre;" transform="translate(631.54,0)">1995</text></g><g class="xtick"><text text-anchor="middle" x="0" y="547.4" style="font-family: 'Courier New'; font-size: 22px; fill: rgb(0, 0, 0); fill-opacity: 1; white-space: pre;" transform="translate(776.96,0)">2000</text></g><g class="xtick"><text text-anchor="middle" x="0" y="547.4" style="font-family: 'Courier New'; font-size: 22px; fill: rgb(0, 0, 0); fill-opacity: 1; white-space: pre;" transform="translate(922.39,0)">2005</text></g><g class="xtick"><text text-anchor="middle" x="0" y="547.4" style="font-family: 'Courier New'; font-size: 22px; fill: rgb(0, 0, 0); fill-opacity: 1; white-space: pre;" transform="translate(1067.81,0)">2010</text></g><g class="xtick"><text text-anchor="middle" x="0" y="547.4" style="font-family: 'Courier New'; font-size: 22px; fill: rgb(0, 0, 0); fill-opacity: 1; white-space: pre;" transform="translate(1213.23,0)">2015</text></g><g class="xtick"><text text-anchor="middle" x="0" y="547.4" style="font-family: 'Courier New'; font-size: 22px; fill: rgb(0, 0, 0); fill-opacity: 1; white-space: pre;" transform="translate(1358.66,0)">2020</text></g></g><g class="yaxislayer-above"><path class="ytick ticks crisp" d="M89,0h-4" transform="translate(0,516.9100000000001)" style="stroke: rgb(68, 68, 68); stroke-opacity: 1; stroke-width: 1px;"/><path class="ytick ticks crisp" d="M89,0h-4" transform="translate(0,498.05)" style="stroke: rgb(68, 68, 68); stroke-opacity: 1; stroke-width: 1px;"/><path class="ytick ticks crisp" d="M89,0h-4" transform="translate(0,479.19)" style="stroke: rgb(68, 68, 68); stroke-opacity: 1; stroke-width: 1px;"/><path class="ytick ticks crisp" d="M89,0h-4" transform="translate(0,460.34)" style="stroke: rgb(68, 68, 68); stroke-opacity: 1; stroke-width: 1px;"/><path class="ytick ticks crisp" d="M89,0h-4" transform="translate(0,441.48)" style="stroke: rgb(68, 68, 68); stroke-opacity: 1; stroke-width: 1px;"/><path class="ytick ticks crisp" d="M89,0h-4" transform="translate(0,422.63)" style="stroke: rgb(68, 68, 68); stroke-opacity: 1; stroke-width: 1px;"/><path class="ytick ticks crisp" d="M89,0h-4" transform="translate(0,403.77)" style="stroke: rgb(68, 68, 68); stroke-opacity: 1; stroke-width: 1px;"/><path class="ytick ticks crisp" d="M89,0h-4" transform="translate(0,384.92)" style="stroke: rgb(68, 68, 68); stroke-opacity: 1; stroke-width: 1px;"/><path class="ytick ticks crisp" d="M89,0h-4" transform="translate(0,366.06)" style="stroke: rgb(68, 68, 68); stroke-opacity: 1; stroke-width: 1px;"/><path class="ytick ticks crisp" d="M89,0h-4" transform="translate(0,347.21000000000004)" style="stroke: rgb(68, 68, 68); stroke-opacity: 1; stroke-width: 1px;"/><path class="ytick ticks crisp" d="M89,0h-4" transform="translate(0,328.35)" style="stroke: rgb(68, 68, 68); stroke-opacity: 1; stroke-width: 1px;"/><path class="ytick ticks crisp" d="M89,0h-4" transform="translate(0,309.5)" style="stroke: rgb(68, 68, 68); stroke-opacity: 1; stroke-width: 1px;"/><path class="ytick ticks crisp" d="M89,0h-4" transform="translate(0,290.64)" style="stroke: rgb(68, 68, 68); stroke-opacity: 1; stroke-width: 1px;"/><path class="ytick ticks crisp" d="M89,0h-4" transform="translate(0,271.78999999999996)" style="stroke: rgb(68, 68, 68); stroke-opacity: 1; stroke-width: 1px;"/><path class="ytick ticks crisp" d="M89,0h-4" transform="translate(0,252.93)" style="stroke: rgb(68, 68, 68); stroke-opacity: 1; stroke-width: 1px;"/><path class="ytick ticks crisp" d="M89,0h-4" transform="translate(0,234.08)" style="stroke: rgb(68, 68, 68); stroke-opacity: 1; stroke-width: 1px;"/><path class="ytick ticks crisp" d="M89,0h-4" transform="translate(0,215.22)" style="stroke: rgb(68, 68, 68); stroke-opacity: 1; stroke-width: 1px;"/><path class="ytick ticks crisp" d="M89,0h-4" transform="translate(0,196.37)" style="stroke: rgb(68, 68, 68); stroke-opacity: 1; stroke-width: 1px;"/><path class="ytick ticks crisp" d="M89,0h-4" transform="translate(0,177.51)" style="stroke: rgb(68, 68, 68); stroke-opacity: 1; stroke-width: 1px;"/><path class="ytick ticks crisp" d="M89,0h-4" transform="translate(0,158.66)" style="stroke: rgb(68, 68, 68); stroke-opacity: 1; stroke-width: 1px;"/><path class="ytick ticks crisp" d="M89,0h-4" transform="translate(0,139.81)" style="stroke: rgb(68, 68, 68); stroke-opacity: 1; stroke-width: 1px;"/><path class="ytick ticks crisp" d="M89,0h-4" transform="translate(0,120.95)" style="stroke: rgb(68, 68, 68); stroke-opacity: 1; stroke-width: 1px;"/><path class="ytick ticks crisp" d="M89,0h-4" transform="translate(0,102.09)" style="stroke: rgb(68, 68, 68); stroke-opacity: 1; stroke-width: 1px;"/><path class="ytick ticks crisp" d="M91,0h5" transform="translate(0,498.05)" style="stroke: rgb(68, 68, 68); stroke-opacity: 1; stroke-width: 1px;"/><path class="ytick ticks crisp" d="M91,0h5" transform="translate(0,422.63)" style="stroke: rgb(68, 68, 68); stroke-opacity: 1; stroke-width: 1px;"/><path class="ytick ticks crisp" d="M91,0h5" transform="translate(0,347.21000000000004)" style="stroke: rgb(68, 68, 68); stroke-opacity: 1; stroke-width: 1px;"/><path class="ytick ticks crisp" d="M91,0h5" transform="translate(0,271.78999999999996)" style="stroke: rgb(68, 68, 68); stroke-opacity: 1; stroke-width: 1px;"/><path class="ytick ticks crisp" d="M91,0h5" transform="translate(0,196.37)" style="stroke: rgb(68, 68, 68); stroke-opacity: 1; stroke-width: 1px;"/><path class="ytick ticks crisp" d="M91,0h5" transform="translate(0,120.95)" style="stroke: rgb(68, 68, 68); stroke-opacity: 1; stroke-width: 1px;"/><g class="ytick"><text text-anchor="end" x="84.6" y="7.699999999999999" transform="translate(0,498.05)" style="font-family: 'Courier New'; font-size: 22px; fill: rgb(0, 0, 0); fill-opacity: 1; white-space: pre;">0</text></g><g class="ytick"><text text-anchor="end" x="84.6" y="7.699999999999999" style="font-family: 'Courier New'; font-size: 22px; fill: rgb(0, 0, 0); fill-opacity: 1; white-space: pre;" transform="translate(0,422.63)">0.2</text></g><g class="ytick"><text text-anchor="end" x="84.6" y="7.699999999999999" style="font-family: 'Courier New'; font-size: 22px; fill: rgb(0, 0, 0); fill-opacity: 1; white-space: pre;" transform="translate(0,347.21000000000004)">0.4</text></g><g class="ytick"><text text-anchor="end" x="84.6" y="7.699999999999999" style="font-family: 'Courier New'; font-size: 22px; fill: rgb(0, 0, 0); fill-opacity: 1; white-space: pre;" transform="translate(0,271.78999999999996)">0.6</text></g><g class="ytick"><text text-anchor="end" x="84.6" y="7.699999999999999" style="font-family: 'Courier New'; font-size: 22px; fill: rgb(0, 0, 0); fill-opacity: 1; white-space: pre;" transform="translate(0,196.37)">0.8</text></g><g class="ytick"><text text-anchor="end" x="84.6" y="7.699999999999999" style="font-family: 'Courier New'; font-size: 22px; fill: rgb(0, 0, 0); fill-opacity: 1; white-space: pre;" transform="translate(0,120.95)">1</text></g></g><g class="overaxes-above"/></g></g><g class="polarlayer"/><g class="smithlayer"/><g class="ternarylayer"/><g class="geolayer"/><g class="funnelarealayer"/><g class="pielayer"/><g class="iciclelayer"/><g class="treemaplayer"/><g class="sunburstlayer"/><g class="glimages"/><defs id="topdefs-deb180"><g class="clips"/><clipPath id="legenddeb180"><rect width="89" height="116" x="0" y="0"/></clipPath></defs><g class="layer-above"><g class="imagelayer"/><g class="shapelayer"/></g><g class="infolayer"><g class="legend" pointer-events="all" transform="translate(1498.6000000000001,100)"><rect class="bg" shape-rendering="crispEdges" style="stroke: rgb(68, 68, 68); stroke-opacity: 1; fill: rgb(255, 255, 255); fill-opacity: 1; stroke-width: 0px;" width="89" height="116" x="0" y="0"/><g class="scrollbox" transform="" clip-path="url(#legenddeb180)"><g class="groups"><g class="traces" transform="translate(0,18.200000000000003)" style="opacity: 1;"><text class="legendtext" text-anchor="start" x="40" y="7.0200000000000005" style="font-family: 'Courier New'; font-size: 18px; fill: rgb(0, 0, 0); fill-opacity: 1; white-space: pre;">OULU</text><g class="layers" style="opacity: 1;"><g class="legendfill"/><g class="legendlines"><path class="js-line" d="M5,0h30" style="fill: none; stroke: rgb(0, 0, 0); stroke-opacity: 1; stroke-width: 2px;"/></g><g class="legendsymbols"><g class="legendpoints"/></g></g><rect class="legendtoggle" x="0" y="-13.200000000000001" width="83.21875" height="26.400000000000002" style="fill: rgb(0, 0, 0); fill-opacity: 0;"/></g><g class="traces" transform="translate(0,44.6)" style="opacity: 1;"><text class="legendtext" text-anchor="start" x="40" y="7.0200000000000005" style="font-family: 'Courier New'; font-size: 18px; fill: rgb(0, 0, 0); fill-opacity: 1; white-space: pre;">PSNM</text><g class="layers" style="opacity: 1;"><g class="legendfill"/><g class="legendlines"><path class="js-line" d="M5,0h30" style="fill: none; stroke: rgb(0, 0, 255); stroke-opacity: 1; stroke-width: 2px;"/></g><g class="legendsymbols"><g class="legendpoints"/></g></g><rect class="legendtoggle" x="0" y="-13.200000000000001" width="83.21875" height="26.400000000000002" style="fill: rgb(0, 0, 0); fill-opacity: 0;"/></g><g class="traces" transform="translate(0,71)" style="opacity: 1;"><text class="legendtext" text-anchor="start" x="40" y="7.0200000000000005" style="font-family: 'Courier New'; font-size: 18px; fill: rgb(0, 0, 0); fill-opacity: 1; white-space: pre;">KP</text><g class="layers" style="opacity: 1;"><g class="legendfill"/><g class="legendlines"><path class="js-line" d="M5,0h30" style="fill: none; stroke: rgb(0, 128, 0); stroke-opacity: 1; stroke-width: 2px;"/></g><g class="legendsymbols"><g class="legendpoints"/></g></g><rect class="legendtoggle" x="0" y="-13.200000000000001" width="83.21875" height="26.400000000000002" style="fill: rgb(0, 0, 0); fill-opacity: 0;"/></g><g class="traces" transform="translate(0,97.4)" style="opacity: 1;"><text class="legendtext" text-anchor="start" x="40" y="7.0200000000000005" style="font-family: 'Courier New'; font-size: 18px; fill: rgb(0, 0, 0); fill-opacity: 1; white-space: pre;">AE</text><g class="layers" style="opacity: 1;"><g class="legendfill"/><g class="legendlines"><path class="js-line" d="M5,0h30" style="fill: none; stroke: rgb(255, 0, 0); stroke-opacity: 1; stroke-width: 2px;"/></g><g class="legendsymbols"><g class="legendpoints"/></g></g><rect class="legendtoggle" x="0" y="-13.200000000000001" width="83.21875" height="26.400000000000002" style="fill: rgb(0, 0, 0); fill-opacity: 0;"/></g></g></g><rect class="scrollbar" rx="20" ry="3" width="0" height="0" style="fill: rgb(128, 139, 164); fill-opacity: 1;" x="0" y="0"/></g><g class="g-gtitle"/><g class="g-xtitle"><text class="xtitle" x="781" y="586.600390625" text-anchor="middle" style="opacity: 1; font-family: 'Courier New'; font-size: 26px; fill: rgb(0, 0, 0); fill-opacity: 1; white-space: pre;">Year</text></g><g class="g-ytitle" transform="translate(0.109375,0)"><text class="ytitle" transform="rotate(-90,21.890234375000006,309.5)" x="21.890234375000006" y="309.5" text-anchor="middle" style="opacity: 1; font-family: 'Courier New'; font-size: 26px; fill: rgb(0, 0, 0); fill-opacity: 1; white-space: pre;">Neutron Count Rate (s⁻¹)</text></g><g class="annotation" data-index="0" style="opacity: 1;"><g class="annotation-text-g" transform="rotate(0,144.36,73.59999999999997)"><g class="cursor-pointer" transform="translate(106,58)"><rect class="bg" x="0.5" y="0.5" width="75" height="30" style="stroke-width: 1px; stroke: rgb(0, 0, 0); stroke-opacity: 0; fill: rgb(0, 0, 0); fill-opacity: 0;"/><text class="annotation-text" text-anchor="middle" x="38.0078125" y="22" style="font-family: 'Courier New'; font-size: 24px; fill: rgb(0, 0, 0); fill-opacity: 1; white-space: pre;">A > 0</text></g></g></g><g class="annotation" data-index="1" style="opacity: 1;"><g class="annotation-text-g" transform="rotate(0,343.43,73.59999999999997)"><g class="cursor-pointer" transform="translate(305,58)"><rect class="bg" x="0.5" y="0.5" width="75" height="30" style="stroke-width: 1px; stroke: rgb(0, 0, 0); stroke-opacity: 0; fill: rgb(0, 0, 0); fill-opacity: 0;"/><text class="annotation-text" text-anchor="middle" x="38.0078125" y="22" style="font-family: 'Courier New'; font-size: 24px; fill: rgb(0, 0, 0); fill-opacity: 1; white-space: pre;">A &#60; 0</text></g></g></g><g class="annotation" data-index="2" style="opacity: 1;"><g class="annotation-text-g" transform="rotate(0,634.87,73.59999999999997)"><g class="cursor-pointer" transform="translate(597,58)"><rect class="bg" x="0.5" y="0.5" width="75" height="30" style="stroke-width: 1px; stroke: rgb(0, 0, 0); stroke-opacity: 0; fill: rgb(0, 0, 0); fill-opacity: 0;"/><text class="annotation-text" text-anchor="middle" x="38.0078125" y="22" style="font-family: 'Courier New'; font-size: 24px; fill: rgb(0, 0, 0); fill-opacity: 1; white-space: pre;">A > 0</text></g></g></g><g class="annotation" data-index="3" style="opacity: 1;"><g class="annotation-text-g" transform="rotate(0,970.9,73.59999999999997)"><g class="cursor-pointer" transform="translate(933,58)"><rect class="bg" x="0.5" y="0.5" width="75" height="30" style="stroke-width: 1px; stroke: rgb(0, 0, 0); stroke-opacity: 0; fill: rgb(0, 0, 0); fill-opacity: 0;"/><text class="annotation-text" text-anchor="middle" x="38.0078125" y="22" style="font-family: 'Courier New'; font-size: 24px; fill: rgb(0, 0, 0); fill-opacity: 1; white-space: pre;">A &#60; 0</text></g></g></g><g class="annotation" data-index="4" style="opacity: 1;"><g class="annotation-text-g" transform="rotate(0,1316.09,73.59999999999997)"><g class="cursor-pointer" transform="translate(1278,58)"><rect class="bg" x="0.5" y="0.5" width="75" height="30" style="stroke-width: 1px; stroke: rgb(0, 0, 0); stroke-opacity: 0; fill: rgb(0, 0, 0); fill-opacity: 0;"/><text class="annotation-text" text-anchor="middle" x="38.0078125" y="22" style="font-family: 'Courier New'; font-size: 24px; fill: rgb(0, 0, 0); fill-opacity: 1; white-space: pre;">A > 0</text></g></g></g></g></svg>