<svg class="main-svg" xmlns="http://www.w3.org/2000/svg" xmlns:xlink="http://www.w3.org/1999/xlink" width="1600" height="600" style="" viewBox="0 0 1600 600"><rect x="0" y="0" width="1600" height="600" style="fill: rgb(255, 255, 255); fill-opacity: 1;"/><defs id="defs-f37675"><g class="clips"><clipPath id="clipf37675xyplot" class="plotclip"><rect width="1338" height="419"/></clipPath><clipPath class="axesclip" id="clipf37675x"><rect x="91" y="0" width="1338" height="600"/></clipPath><clipPath class="axesclip" id="clipf37675y"><rect x="0" y="100" width="1600" height="419"/></clipPath><clipPath class="axesclip" id="clipf37675xy"><rect x="91" y="100" width="1338" height="419"/></clipPath></g><g class="gradients"/><g class="patterns"/></defs><g class="bglayer"/><g class="layer-below"><g class="imagelayer"/><g class="shapelayer"><g class="shape-group" data-index="0" clip-path="url(#clipf37675x)"><path data-index="0" fill-rule="evenodd" d="M91,519H194.48000000000002V100H91Z" style="opacity: 1; stroke: rgb(0, 0, 0); stroke-opacity: 0; fill: rgb(200, 0, 0); fill-opacity: 0.1; stroke-width: 0px;"/></g><g class="shape-group" data-index="1" clip-path="url(#clipf37675x)"><path data-index="1" fill-rule="evenodd" d="M194.48000000000002,519H477.02V100H194.48000000000002Z" style="opacity: 1; stroke: rgb(0, 0, 0); stroke-opacity: 0; fill: rgb(0, 0, 0); fill-opacity: 0; stroke-width: 0px;"/></g><g class="shape-group" data-index="2" clip-path="url(#clipf37675x)"><path data-index="2" fill-rule="evenodd" d="M477.02,519H759.62V100H477.02Z" style="opacity: 1; stroke: rgb(0, 0, 0); stroke-opacity: 0; fill: rgb(200, 0, 0); fill-opacity: 0.1; stroke-width: 0px;"/></g><g class="shape-group" data-index="3" clip-path="url(#clipf37675x)"><path data-index="3" fill-rule="evenodd" d="M759.62,519H1128.62V100H759.62Z" style="opacity: 1; stroke: rgb(0, 0, 0); stroke-opacity: 0; fill: rgb(0, 0, 0); fill-opacity: 0; stroke-width: 0px;"/></g><g class="shape-group" data-index="4" clip-path="url(#clipf37675x)"><path data-index="4" fill-rule="evenodd" d="M1128.62,519H1429V100H1128.62Z" style="opacity: 1; stroke: rgb(0, 0, 0); stroke-opacity: 0; fill: rgb(200, 0, 0); fill-opacity: 0.1; stroke-width: 0px;"/></g></g></g><g class="cartesianlayer"><g class="subplot xy"><g class="layer-subplot"><g class="shapelayer"/><g class="imagelayer"/></g><g class="minor-gridlayer"><g class="x"><path class="xgrid crisp" transform="translate(107.5,0)" d="M0,100v419" style="stroke: rgb(211, 211, 211); stroke-opacity: 1; stroke-width: 1px;"/><path class="xgrid crisp" transform="translate(135.7,0)" d="M0,100v419" style="stroke: rgb(211, 211, 211); stroke-opacity: 1; stroke-width: 1px;"/><path class="xgrid crisp" transform="translate(163.9,0)" d="M0,100v419" style="stroke: rgb(211, 211, 211); stroke-opacity: 1; stroke-width: 1px;"/><path class="xgrid crisp" transform="translate(192.1,0)" d="M0,100v419" style="stroke: rgb(211, 211, 211); stroke-opacity: 1; stroke-width: 1px;"/><path class="xgrid crisp" transform="translate(220.3,0)" d="M0,100v419" style="stroke: rgb(211, 211, 211); stroke-opacity: 1; stroke-width: 1px;"/><path class="xgrid crisp" transform="translate(248.49,0)" d="M0,100v419" style="stroke: rgb(211, 211, 211); stroke-opacity: 1; stroke-width: 1px;"/><path class="xgrid crisp" transform="translate(276.69,0)" d="M0,100v419" style="stroke: rgb(211, 211, 211); stroke-opacity: 1; stroke-width: 1px;"/><path class="xgrid crisp" transform="translate(304.89,0)" d="M0,100v419" style="stroke: rgb(211, 211, 211); stroke-opacity: 1; stroke-width: 1px;"/><path class="xgrid crisp" transform="translate(333.09000000000003,0)" d="M0,100v419" style="stroke: rgb(211, 211, 211); stroke-opacity: 1; stroke-width: 1px;"/><path class="xgrid crisp" transform="translate(361.29,0)" d="M0,100v419" style="stroke: rgb(211, 211, 211); stroke-opacity: 1; stroke-width: 1px;"/><path class="xgrid crisp" transform="translate(389.49,0)" d="M0,100v419" style="stroke: rgb(211, 211, 211); stroke-opacity: 1; stroke-width: 1px;"/><path class="xgrid crisp" transform="translate(417.69,0)" d="M0,100v419" style="stroke: rgb(211, 211, 211); stroke-opacity: 1; stroke-width: 1px;"/><path class="xgrid crisp" transform="translate(445.89,0)" d="M0,100v419" style="stroke: rgb(211, 211, 211); stroke-opacity: 1; stroke-width: 1px;"/><path class="xgrid crisp" transform="translate(474.09,0)" d="M0,100v419" style="stroke: rgb(211, 211, 211); stroke-opacity: 1; stroke-width: 1px;"/><path class="xgrid crisp" transform="translate(502.29,0)" d="M0,100v419" style="stroke: rgb(211, 211, 211); stroke-opacity: 1; stroke-width: 1px;"/><path class="xgrid crisp" transform="translate(530.49,0)" d="M0,100v419" style="stroke: rgb(211, 211, 211); stroke-opacity: 1; stroke-width: 1px;"/><path class="xgrid crisp" transform="translate(558.69,0)" d="M0,100v419" style="stroke: rgb(211, 211, 211); stroke-opacity: 1; stroke-width: 1px;"/><path class="xgrid crisp" transform="translate(586.89,0)" d="M0,100v419" style="stroke: rgb(211, 211, 211); stroke-opacity: 1; stroke-width: 1px;"/><path class="xgrid crisp" transform="translate(615.09,0)" d="M0,100v419" style="stroke: rgb(211, 211, 211); stroke-opacity: 1; stroke-width: 1px;"/><path class="xgrid crisp" transform="translate(643.29,0)" d="M0,100v419" style="stroke: rgb(211, 211, 211); stroke-opacity: 1; stroke-width: 1px;"/><path class="xgrid crisp" transform="translate(671.49,0)" d="M0,100v419" style="stroke: rgb(211, 211, 211); stroke-opacity: 1; stroke-width: 1px;"/><path class="xgrid crisp" transform="translate(699.69,0)" d="M0,100v419" style="stroke: rgb(211, 211, 211); stroke-opacity: 1; stroke-width: 1px;"/><path class="xgrid crisp" transform="translate(727.89,0)" d="M0,100v419" style="stroke: rgb(211, 211, 211); stroke-opacity: 1; stroke-width: 1px;"/><path class="xgrid crisp" transform="translate(756.09,0)" d="M0,100v419" style="stroke: rgb(211, 211, 211); stroke-opacity: 1; stroke-width: 1px;"/><path class="xgrid crisp" transform="translate(784.28,0)" d="M0,100v419" style="stroke: rgb(211, 211, 211); stroke-opacity: 1; stroke-width: 1px;"/><path class="xgrid crisp" transform="translate(812.48,0)" d="M0,100v419" style="stroke: rgb(211, 211, 211); stroke-opacity: 1; stroke-width: 1px;"/><path class="xgrid crisp" transform="translate(840.68,0)" d="M0,100v419" style="stroke: rgb(211, 211, 211); stroke-opacity: 1; stroke-width: 1px;"/><path class="xgrid crisp" transform="translate(868.88,0)" d="M0,100v419" style="stroke: rgb(211, 211, 211); stroke-opacity: 1; stroke-width: 1px;"/><path class="xgrid crisp" transform="translate(897.08,0)" d="M0,100v419" style="stroke: rgb(211, 211, 211); stroke-opacity: 1; stroke-width: 1px;"/><path class="xgrid crisp" transform="translate(925.28,0)" d="M0,100v419" style="stroke: rgb(211, 211, 211); stroke-opacity: 1; stroke-width: 1px;"/><path class="xgrid crisp" transform="translate(953.48,0)" d="M0,100v419" style="stroke: rgb(211, 211, 211); stroke-opacity: 1; stroke-width: 1px;"/><path class="xgrid crisp" transform="translate(981.68,0)" d="M0,100v419" style="stroke: rgb(211, 211, 211); stroke-opacity: 1; stroke-width: 1px;"/><path class="xgrid crisp" transform="translate(1009.88,0)" d="M0,100v419" style="stroke: rgb(211, 211, 211); stroke-opacity: 1; stroke-width: 1px;"/><path class="xgrid crisp" transform="translate(1038.08,0)" d="M0,100v419" style="stroke: rgb(211, 211, 211); stroke-opacity: 1; stroke-width: 1px;"/><path class="xgrid crisp" transform="translate(1066.28,0)" d="M0,100v419" style="stroke: rgb(211, 211, 211); stroke-opacity: 1; stroke-width: 1px;"/><path class="xgrid crisp" transform="translate(1094.48,0)" d="M0,100v419" style="stroke: rgb(211, 211, 211); stroke-opacity: 1; stroke-width: 1px;"/><path class="xgrid crisp" transform="translate(1122.68,0)" d="M0,100v419" style="stroke: rgb(211, 211, 211); stroke-opacity: 1; stroke-width: 1px;"/><path class="xgrid crisp" transform="translate(1150.88,0)" d="M0,100v419" style="stroke: rgb(211, 211, 211); stroke-opacity: 1; stroke-width: 1px;"/><path class="xgrid crisp" transform="translate(1179.08,0)" d="M0,100v419" style="stroke: rgb(211, 211, 211); stroke-opacity: 1; stroke-width: 1px;"/><path class="xgrid crisp" transform="translate(1207.28,0)" d="M0,100v419" style="stroke: rgb(211, 211, 211); stroke-opacity: 1; stroke-width: 1px;"/><path class="xgrid crisp" transform="translate(1235.48,0)" d="M0,100v419" style="stroke: rgb(211, 211, 211); stroke-opacity: 1; stroke-width: 1px;"/><path class="xgrid crisp" transform="translate(1263.68,0)" d="M0,100v419" style="stroke: rgb(211, 211, 211); stroke-opacity: 1; stroke-width: 1px;"/><path class="xgrid crisp" transform="translate(1291.87,0)" d="M0,100v419" style="stroke: rgb(211, 211, 211); stroke-opacity: 1; stroke-width: 1px;"/><path class="xgrid crisp" transform="translate(1320.07,0)" d="M0,100v419" style="stroke: rgb(211, 211, 211); stroke-opacity: 1; stroke-width: 1px;"/><path class="xgrid crisp" transform="translate(1348.27,0)" d="M0,100v419" style="stroke: rgb(211, 211, 211); stroke-opacity: 1; stroke-width: 1px;"/><path class="xgrid crisp" transform="translate(1376.47,0)" d="M0,100v419" style="stroke: rgb(211, 211, 211); stroke-opacity: 1; stroke-width: 1px;"/><path class="xgrid crisp" transform="translate(1404.67,0)" d="M0,100v419" style="stroke: rgb(211, 211, 211); stroke-opacity: 1; stroke-width: 1px;"/></g><g class="y"><path class="ygrid crisp" transform="translate(0,508.56)" d="M91,0h1338" style="stroke: rgb(211, 211, 211); stroke-opacity: 1; stroke-width: 1px;"/><path class="ygrid crisp" transform="translate(0,492.97)" d="M91,0h1338" style="stroke: rgb(211, 211, 211); stroke-opacity: 1; stroke-width: 1px;"/><path class="ygrid crisp" transform="translate(0,477.38)" d="M91,0h1338" style="stroke: rgb(211, 211, 211); stroke-opacity: 1; stroke-width: 1px;"/><path class="ygrid crisp" transform="translate(0,461.79)" d="M91,0h1338" style="stroke: rgb(211, 211, 211); stroke-opacity: 1; stroke-width: 1px;"/><path class="ygrid crisp" transform="translate(0,446.2)" d="M91,0h1338" style="stroke: rgb(211, 211, 211); stroke-opacity: 1; stroke-width: 1px;"/><path class="ygrid crisp" transform="translate(0,430.61)" d="M91,0h1338" style="stroke: rgb(211, 211, 211); stroke-opacity: 1; stroke-width: 1px;"/><path class="ygrid crisp" transform="translate(0,415.02)" d="M91,0h1338" style="stroke: rgb(211, 211, 211); stroke-opacity: 1; stroke-width: 1px;"/><path class="ygrid crisp" transform="translate(0,399.43)" d="M91,0h1338" style="stroke: rgb(211, 211, 211); stroke-opacity: 1; stroke-width: 1px;"/><path class="ygrid crisp" transform="translate(0,383.84)" d="M91,0h1338" style="stroke: rgb(211, 211, 211); stroke-opacity: 1; stroke-width: 1px;"/><path class="ygrid crisp" transform="translate(0,368.26)" d="M91,0h1338" style="stroke: rgb(211, 211, 211); stroke-opacity: 1; stroke-width: 1px;"/><path class="ygrid crisp" transform="translate(0,352.66999999999996)" d="M91,0h1338" style="stroke: rgb(211, 211, 211); stroke-opacity: 1; stroke-width: 1px;"/><path class="ygrid crisp" transform="translate(0,337.08000000000004)" d="M91,0h1338" style="stroke: rgb(211, 211, 211); stroke-opacity: 1; stroke-width: 1px;"/><path class="ygrid crisp" transform="translate(0,321.49)" d="M91,0h1338" style="stroke: rgb(211, 211, 211); stroke-opacity: 1; stroke-width: 1px;"/><path class="ygrid crisp" transform="translate(0,305.9)" d="M91,0h1338" style="stroke: rgb(211, 211, 211); stroke-opacity: 1; stroke-width: 1px;"/><path class="ygrid crisp" transform="translate(0,290.31)" d="M91,0h1338" style="stroke: rgb(211, 211, 211); stroke-opacity: 1; stroke-width: 1px;"/><path class="ygrid crisp" transform="translate(0,274.72)" d="M91,0h1338" style="stroke: rgb(211, 211, 211); stroke-opacity: 1; stroke-width: 1px;"/><path class="ygrid crisp" transform="translate(0,259.13)" d="M91,0h1338" style="stroke: rgb(211, 211, 211); stroke-opacity: 1; stroke-width: 1px;"/><path class="ygrid crisp" transform="translate(0,243.54)" d="M91,0h1338" style="stroke: rgb(211, 211, 211); stroke-opacity: 1; stroke-width: 1px;"/><path class="ygrid crisp" transform="translate(0,227.95)" d="M91,0h1338" style="stroke: rgb(211, 211, 211); stroke-opacity: 1; stroke-width: 1px;"/><path class="ygrid crisp" transform="translate(0,212.36)" d="M91,0h1338" style="stroke: rgb(211, 211, 211); stroke-opacity: 1; stroke-width: 1px;"/><path class="ygrid crisp" transform="translate(0,196.78)" d="M91,0h1338" style="stroke: rgb(211, 211, 211); stroke-opacity: 1; stroke-width: 1px;"/><path class="ygrid crisp" transform="translate(0,181.19)" d="M91,0h1338" style="stroke: rgb(211, 211, 211); stroke-opacity: 1; stroke-width: 1px;"/><path class="ygrid crisp" transform="translate(0,165.6)" d="M91,0h1338" style="stroke: rgb(211, 211, 211); stroke-opacity: 1; stroke-width: 1px;"/><path class="ygrid crisp" transform="translate(0,150.01)" d="M91,0h1338" style="stroke: rgb(211, 211, 211); stroke-opacity: 1; stroke-width: 1px;"/><path class="ygrid crisp" transform="translate(0,134.42000000000002)" d="M91,0h1338" style="stroke: rgb(211, 211, 211); stroke-opacity: 1; stroke-width: 1px;"/><path class="ygrid crisp" transform="translate(0,118.83)" d="M91,0h1338" style="stroke: rgb(211, 211, 211); stroke-opacity: 1; stroke-width: 1px;"/><path class="ygrid crisp" transform="translate(0,103.24)" d="M91,0h1338" style="stroke: rgb(211, 211, 211); stroke-opacity: 1; stroke-width: 1px;"/></g></g><g class="gridlayer"><g class="x"><path class="xgrid crisp" transform="translate(192.1,0)" d="M0,100v419" style="stroke: rgb(211, 211, 211); stroke-opacity: 1; stroke-width: 1px;"/><path class="xgrid crisp" transform="translate(333.09000000000003,0)" d="M0,100v419" style="stroke: rgb(211, 211, 211); stroke-opacity: 1; stroke-width: 1px;"/><path class="xgrid crisp" transform="translate(474.09,0)" d="M0,100v419" style="stroke: rgb(211, 211, 211); stroke-opacity: 1; stroke-width: 1px;"/><path class="xgrid crisp" transform="translate(615.09,0)" d="M0,100v419" style="stroke: rgb(211, 211, 211); stroke-opacity: 1; stroke-width: 1px;"/><path class="xgrid crisp" transform="translate(756.09,0)" d="M0,100v419" style="stroke: rgb(211, 211, 211); stroke-opacity: 1; stroke-width: 1px;"/><path class="xgrid crisp" transform="translate(897.08,0)" d="M0,100v419" style="stroke: rgb(211, 211, 211); stroke-opacity: 1; stroke-width: 1px;"/><path class="xgrid crisp" transform="translate(1038.08,0)" d="M0,100v419" style="stroke: rgb(211, 211, 211); stroke-opacity: 1; stroke-width: 1px;"/><path class="xgrid crisp" transform="translate(1179.08,0)" d="M0,100v419" style="stroke: rgb(211, 211, 211); stroke-opacity: 1; stroke-width: 1px;"/><path class="xgrid crisp" transform="translate(1320.07,0)" d="M0,100v419" style="stroke: rgb(211, 211, 211); stroke-opacity: 1; stroke-width: 1px;"/></g><g class="y"><path class="ygrid crisp" transform="translate(0,446.2)" d="M91,0h1338" style="stroke: rgb(211, 211, 211); stroke-opacity: 1; stroke-width: 1px;"/><path class="ygrid crisp" transform="translate(0,368.26)" d="M91,0h1338" style="stroke: rgb(211, 211, 211); stroke-opacity: 1; stroke-width: 1px;"/><path class="ygrid crisp" transform="translate(0,290.31)" d="M91,0h1338" style="stroke: rgb(211, 211, 211); stroke-opacity: 1; stroke-width: 1px;"/><path class="ygrid crisp" transform="translate(0,212.36)" d="M91,0h1338" style="stroke: rgb(211, 211, 211); stroke-opacity: 1; stroke-width: 1px;"/><path class="ygrid crisp" transform="translate(0,134.42000000000002)" d="M91,0h1338" style="stroke: rgb(211, 211, 211); stroke-opacity: 1; stroke-width: 1px;"/></g></g><g class="zerolinelayer"/><g class="layer-between"><g class="shapelayer"/><g class="imagelayer"/></g><path class="xlines-below"/><path class="ylines-below"/><g class="overlines-below"/><g class="xaxislayer-below"/><g class="yaxislayer-below"/><g class="overaxes-below"/><g class="overplot"><g class="xy" transform="translate(91,100)" clip-path="url(#clipf37675xyplot)"><g class="scatterlayer mlayer"><g class="trace scatter tracec1155d" style="stroke-miterlimit: 2; opacity: 1;"><g class="fills"/><g class="errorbars"/><g class="lines"><path class="js-line" d="M888.9,161.58L888.91,143L889.18,239.04L889.63,198.71L889.64,200.93L889.96,258.86L890.31,146.18L890.39,153.22L890.4,143.48L891,97.59L891.12,224.71L891.15,197.28L891.16,192.87L891.62,156.82L891.73,244.45L891.91,216.87L891.92,199.73L892.23,244.54L892.41,158.99L892.59,202.45L892.59,167.8L892.69,150.39L893.35,282.13L893.37,263.22L893.38,239.42L893.62,157.54L894.03,282.75L894.13,246.46L894.14,257.23L894.22,278.5L894.89,149.4L894.9,153.99L894.95,133.08L895.42,255.18L895.43,238.99L895.43,259.88L895.44,249.89L895.45,232.23L895.94,152.74L895.97,305.95L896.19,214.69L896.2,232.43L896.23,239.96L896.94,126.52L896.95,149.61L896.96,154.17L897.25,109.75L897.51,249.25L897.75,232.57L897.76,195.02L897.85,160.05L898.05,251.87L898.51,194.94L898.52,212.84L898.59,218.32L898.78,143.11L898.86,145.82L898.87,123.53L899.52,215.49L899.62,190.39L899.63,182.86L900,158.13L900.28,272.54L900.4,204.28L900.41,184.23L900.97,251.34L901.1,162.69L901.16,178.17L901.17,164.63L901.28,253.71L901.41,140.8L901.92,173.8L901.93,192.71L902.24,142.36L902.37,254.94L902.67,213.76L902.68,199.6L902.84,242.78L903.35,118.19L903.37,138.12L903.37,130.98L903.41,121.23L903.59,259.46L904.12,141.17L904.13,151.34L904.25,84.62L904.52,260.18L904.88,181.55L904.89,192.68L904.92,244.93L904.94,178.81L904.95,149.31L905.58,112.41L905.69,247.21L905.7,245.85L905.71,224.15L905.75,264.78L906.33,145.87L906.46,222.63L906.47,203.48L906.64,131.45L906.92,210.31L907.06,184.84L907.07,197.82L907.57,114.53L907.77,251.67L907.82,237.56L907.83,254.83L908.58,151.31L908.63,176L908.64,169.12L908.7,183.92L909.2,110.9L909.34,127.3L909.35,122.25L909.58,105.19L909.69,233.8L910.1,168.89L910.11,172.94L910.37,211.79L910.71,134.61L910.86,168.92L910.87,178.12L911.37,214.57L911.57,113.91L911.62,156.31L911.63,159.07L911.73,115.59L911.91,215.84L912.37,128.02L912.38,170.37L912.6,113.46L913.08,203.7L913.13,178.09L913.14,201.95L913.51,126.11L913.78,210.64L913.85,197.57L913.85,209.52L913.92,212.37L914.44,116.04L914.62,135.25L914.63,125.52L914.77,180.11L914.89,95.15L915.34,113.47L915.35,84.23L915.61,187L916.03,79.24L916.12,140.66L916.13,126.04L916.52,75.68L916.84,171.15L916.88,160.52L916.89,145.13L916.92,187L917.67,90.24L917.71,103.68L917.71,118.55L917.78,135.64L918.05,57.13L918.44,134.52L918.45,138.73L918.71,68.68L919.01,170.4L919.18,133.04L919.19,150.87L919.35,100.42L919.85,185.37L919.93,167.39L919.94,172.16L920.52,80.08L920.69,96.62L920.7,93.13L920.83,77.32L921.31,142.84L921.45,118.02L921.46,135.86L921.53,153.44L921.58,65.05L922.21,70.51L922.22,84.96L922.31,62.12L922.88,161.24L922.97,104.45L922.98,85.36L923.14,48.54L923.66,155.98L923.72,105.83L923.73,106.57L924.28,32.94L924.44,138.16L924.48,105.63L924.49,95.47L924.78,62.42L925.19,156.92L925.24,86.3L925.25,95.53L925.6,130.06L925.78,63.59L926,93.97L926.01,90.34L926.5,64.57L926.59,128.02L926.76,92.82L926.77,99.13L926.86,68.87L927.12,213.68L927.52,142.4L927.53,136.76L927.89,147.75L928.12,73.52L928.28,102.89L928.29,120.66L928.52,125.38L928.87,46.84L929.04,80.33L929.05,78.16L929.17,57.3L929.36,154.5L929.8,88.31L929.81,87.48L930.04,150.79L930.26,63.57L930.56,110.96L930.57,103.03L930.98,206.57L931.24,71.27L931.32,85.83L931.33,84.94L931.7,56.54L931.98,160.96L932.08,98.96L932.09,88.86L932.41,71.82L932.52,151.95L932.84,119.04L932.85,128.98L933.22,171.49L933.42,79.32L933.57,99.22L933.58,103.92L933.8,61.78L933.93,175.44L934.28,99.96L934.29,90.46L934.51,20.95L934.83,210.86L935.04,132.15L935.05,123.25L935.08,199.98L935.35,68.73L935.8,143.29L935.81,165.65L936.12,92.33L936.56,129.86L936.57,131.31L936.93,145.44L937.21,72.47L937.32,93.6L937.33,111.18L937.53,49.56L937.93,136.03L938.08,95.78L938.09,102.68L938.12,128.22L938.75,64.26L938.84,64.46L938.85,99.78L939.18,152.05L939.46,62.21L939.6,127.14L939.61,120.5L939.91,63.06L940.1,197.5L940.35,123.73L940.36,116.2L940.38,69.68L940.9,141.02L941.11,104.83L941.12,139.05L941.32,46.7L941.48,141.02L941.87,77.43L941.88,98.8L942.28,67.48L942.5,211.68L942.63,162.73L942.64,159.13L943.16,61.34L943.39,109.51L943.4,92.83L943.4,115.61L943.51,52.63L944.15,83.18L944.16,81.14L944.32,46.52L944.47,111.94L944.91,63.91L944.92,70.35L945.12,110.28L945.39,36.62L945.67,84.96L945.68,75.54L945.92,42.77L946.43,121.08L946.44,106.14L946.83,172.65L947.03,63.26L947.19,110.57L947.2,115.87L947.4,60.9L947.59,155.56L947.95,82.25L947.96,104.4L948.49,65.64L948.68,171.42L948.71,151.82L948.72,134.27L948.75,200.13L949.4,81.87L949.47,123.17L949.48,95.29L949.73,82.96L949.78,183.03L949.94,98.83L949.95,80.66L950.08,191.03L950.63,59.69L950.72,131.55L950.72,102.89L950.73,89.74L950.91,238.2L951.44,133.13L951.45,142.01L951.89,71.19L952.1,191.15L952.16,152.46L952.17,155.11L952.67,98.79L952.92,204.93L952.93,197.47L953.07,221.72L953.52,116.14L953.68,159.26L953.69,176.42L953.71,223.16L954.41,124.31L954.44,180.3L954.45,190.42L955.1,233.41L955.13,123.95L955.2,125.82L955.21,139.07L955.75,109.76L955.95,240.93L955.96,200.44L955.96,174.97L956.02,242.69L956.47,102.22L956.68,148.72L956.69,135.25L957.06,97.06L957.41,203.39L957.44,163.86L957.45,151.62L957.97,264.86L958.14,141.05L958.2,173.12L958.21,177.82L958.61,120.6L958.64,262.08L958.96,228.8L958.97,232.9L959.14,131.09L959.4,235.74L959.71,212.84L959.71,248.69L959.89,279.09L959.99,144.42L960.23,170.42L960.24,123.12L960.3,113.58L960.39,236.5L960.99,171.6L961,167.33L961.26,216.14L961.69,115.56L961.71,185.1L961.72,212.26L961.89,223.42L962.09,109.39L962.48,152.41L962.49,146.01L962.89,219.8L963.1,132.65L963.24,198.57L963.25,200.85L963.57,121.39L963.72,251.75L964,172.51L964.01,169.81L964.28,194.13L964.58,113.25L964.76,152.3L964.77,132.54L965.25,103.45L965.45,206.82L965.52,159.05L965.53,164.68L965.98,215.33L966.26,109.03L966.28,120.64L966.29,121.09L966.95,100.06L967.06,252.53L967.07,225.68L967.08,223.9L967.56,75.96L967.83,176.54L967.84,188.08L967.9,206.93L968.11,134.97L968.59,195.3L968.6,207.58L969,73.3L969.35,116.82L969.36,124.21L969.81,108.75L970.11,236.42L970.12,205.48L970.6,256.31L970.82,121.5L970.87,183.75L970.88,204.22L971.58,107.94L971.63,191.79L971.64,197.29L971.64,220.07L972.22,82.98L972.39,166.91L972.4,172.02L972.61,139.13L973.01,234.4L973.1,207.11L973.12,171.56L973.7,214.3L973.84,129.39L973.87,206.49L973.88,218.25L973.96,266.24L974.52,117.82L974.63,178.23L974.64,198.51L974.75,94L975.39,157.54L975.4,181.03L975.68,109.37L976.03,213.15L976.15,116.76L976.16,117.62L976.4,105.02L976.57,205.18L976.91,137.63L976.92,149.05L976.94,132.15L976.95,160.19L977.1,200.88L977.69,103.45L977.7,133.38L977.71,125.8L977.99,169.34L978.45,70.49L978.46,98.44L978.47,110.6L978.7,58.69L979.02,336.04L979.22,165.34L979.23,160.67L979.54,85.18L979.81,201.92L979.98,158.1L979.99,174.86L980.6,260.6L980.71,90.13L980.74,224.92L980.75,233.1L980.78,116.01L981.37,282.63L981.5,214.99L981.51,242.74L981.55,144.79L982.13,292.17L982.23,220.08L982.24,198.79L982.31,147.32L982.84,360.54L983.02,241.36L983.02,225.03L983.08,310.03L983.57,153.43L983.71,199.79L983.71,157.7L983.96,153.97L984.06,285.37L984.33,179.4L984.34,165.71L984.41,149.19L984.61,260.27L984.97,176.87L985.25,176.36L985.57,105.79L985.75,237.45L985.98,200.4L985.99,221.22L986.15,306.56L986.67,118.62L986.74,198.96L986.75,166.12L987.22,135.34L987.29,336.1L987.5,220.21L987.51,223.64L987.89,176.12L988.25,376.3L988.26,371.97L988.27,348.29L988.61,268.85L988.72,390.41L989.02,272.21L989.03,254.9L989.08,291.36L989.64,171.76L989.79,200.97L989.8,212.24L989.96,110.15L990.11,322.1L990.55,274.9L990.56,276.25L990.72,333.39L991.3,128.51L991.31,164.6L991.32,160.32L991.38,122.08L991.87,268.35L992.07,222.56L992.08,256.41L992.1,346.93L992.68,144.66L992.83,205.59L992.84,203.79L992.95,253.38L993.23,158.26L993.59,162.28L993.6,170.76L993.81,223.56L994.26,118.1L994.35,187.75L994.36,191.06L994.75,121.25L994.89,328.52L995.11,314.48L995.12,315.55L995.78,117.52L995.87,134.92L995.88,168.22L995.92,134.05L996.07,272.7L996.63,232.04L996.64,255.29L996.69,217.26L996.78,349.16L997.1,274.29L997.11,305.87L997.12,336.29L997.79,154.77L997.81,175.72L997.82,158.55L998.17,115.26L998.26,326.32L998.55,136.81L998.56,116.06L998.63,109.37L998.97,277.11L999.32,202.13L999.33,182.27L999.63,105.49L1000.07,242.19L1000.08,238.01L1000.09,231.76L1000.39,241.88L1000.73,131.24L1000.84,155.39L1000.85,157.85L1000.87,109L1001.22,229.8L1001.6,197.75L1001.61,204.96L1002.2,97.85L1002.36,130.82L1002.37,126.83L1002.58,85.58L1002.67,179.19L1003.09,138.99L1003.1,132.63L1003.66,103.87L1003.75,263.45L1003.82,167.04L1003.83,182.66L1004.24,99.33L1004.54,236.66L1004.58,123.09L1004.59,129.34L1004.86,91.16L1005.3,261.51L1005.35,168.49L1005.36,164.7L1005.42,132.79L1005.91,398.05L1006.11,233.91L1006.12,191.07L1006.16,274.69L1006.73,126.68L1006.87,185.8L1006.88,213.43L1006.98,235.18L1007.5,69.82L1007.63,148.33L1007.64,159.24L1007.74,86.19L1007.99,298.64L1008.36,242.25L1008.37,254.55L1008.59,75.03L1008.69,396.32L1008.9,374.93L1008.9,394.12L1009.18,291.64L1009.19,261.91L1009.31,303.32L1009.78,104.63L1009.94,182.5L1009.95,165.49L1010.01,211.4L1010.15,103.67L1010.65,130.12L1010.66,168.8L1010.82,58.36L1010.93,290.73L1011.41,156.5L1011.42,152.82L1011.53,222.8L1012.12,48.65L1012.22,104.16L1012.22,118.35L1012.45,213.57L1012.97,56.38L1012.98,104.73L1012.99,132.13L1013.04,64.83L1013.4,235.88L1013.74,142.64L1013.75,125.47L1014.04,72.6L1014.38,266.6L1014.5,202.66L1014.51,190.04L1014.97,76.93L1015.15,323.64L1015.24,269.25L1015.25,267.9L1015.74,150.98L1015.94,289.43L1016,194.35L1016.01,211.68L1016.05,102.17L1016.56,356.89L1016.76,268.91L1016.77,273.99L1017.1,301.27L1017.45,120.44L1017.54,208.97L1017.55,233.55L1018.1,391.02L1018.3,184.65L1018.3,232.46L1018.31,245.9L1018.61,177.12L1019.01,397.89L1019.14,386.93L1019.2,384.72L1019.32,395.38L1019.92,229.75L1019.98,251.33L1019.99,242.74L1020.11,349.69L1020.58,196.95L1020.74,240.24L1020.75,226.9L1020.88,293.38L1021.26,162.36L1021.5,259.03L1021.51,228.16L1021.71,282.38L1022.23,153.83L1022.26,164.68L1022.27,168.86L1022.35,97.74L1022.64,320.01L1023.02,213.94L1023.03,206.23L1023.48,274.76L1023.61,158.46L1023.76,198.29L1023.77,233.34L1024.35,247.54L1024.51,136.12L1024.52,177.06L1024.53,201.58L1024.58,77.29L1025.26,337.66L1025.28,260.73L1025.29,258.08L1025.49,345.75L1025.9,192.66L1026.04,227.69L1026.05,223.89L1026.14,229.72L1026.32,131.2L1026.8,176.51L1026.81,170.18L1026.84,137.2L1027,220.05L1027.44,185.45L1027.45,142.59L1027.69,112.41L1027.95,285.78L1028.2,182.78L1028.21,201.19L1028.31,147.36L1028.83,341.7L1028.93,271.01L1028.94,263.83L1028.95,318.34L1029.69,147.27L1029.7,148.33L1030.07,113.77L1030.11,220.47L1030.45,166.77L1030.46,140.14L1030.52,243.09L1030.54,126.32L1031.21,179.55L1031.22,155.51L1031.47,126.6L1031.66,235.19L1031.97,145.44L1031.98,141.24L1032.16,83.43L1032.21,177.87L1032.73,121.62L1032.73,147.11L1032.93,262.42L1032.97,106.83L1033.46,152.96L1033.47,126.96L1033.74,253.37L1034.22,173.18L1034.23,169.47L1034.28,199.1L1034.56,105.74L1034.98,154.1L1034.99,146.4L1035.15,111.16L1035.44,273.7L1035.74,204.76L1035.75,202.63L1036.18,115.95L1036.44,237.75L1036.5,180.11L1036.51,188.72L1036.54,231.43L1037.03,86.95L1037.26,98.01L1037.27,101.08L1037.67,370.11L1038.02,206.26L1038.03,187.6L1038.13,247.19L1038.72,120.11L1038.78,140.27L1038.79,127.05L1039.11,97.29L1039.46,216.66L1039.54,195L1039.55,169.92L1039.58,144.87L1039.69,371.52L1040.3,245.6L1040.31,258.01L1040.89,126.53L1040.94,290.77L1041.06,177.06L1041.07,166.65L1041.28,146.05L1041.46,301.21L1041.82,188.27L1041.83,178.62L1041.9,167.25L1042.17,362.24L1042.66,259.92L1042.67,251.9L1042.85,347.29L1043.36,112.55L1043.42,233.13L1043.43,213.4L1043.78,331.38L1043.81,127.28L1044.18,265.43L1044.19,291.56L1044.92,132.91L1044.94,208.38L1044.95,214.04L1045.12,397.91L1045.51,142.06L1045.7,236.61L1045.71,244.7L1045.98,124.52L1046.02,287.69L1046.46,264.56L1046.47,245.67L1046.63,345.58L1046.94,186.09L1047.22,212.07L1047.23,183.2L1047.46,177.07L1047.96,302.88L1047.98,251.17L1047.99,218.56L1048.33,285.84L1048.68,168.95L1048.74,203.44L1048.75,202.24L1049.07,114.55L1049.36,290.7L1049.5,247.6L1049.51,250.69L1049.94,278.64L1050.24,137.35L1050.26,189.44L1050.27,195.63L1050.4,137.9L1050.67,299.89L1051.02,196.58L1051.03,186.16L1051.04,225.54L1051.55,114.3L1051.78,169.26L1051.79,165.24L1051.98,193.47L1052.18,70.34L1052.53,172.1L1052.54,178.03L1052.72,90.21L1052.88,257.97L1053.29,149.95L1053.3,154.74L1053.83,99.38L1054.01,194.86L1054.05,189.51L1054.06,206.77L1054.39,93.5L1054.59,213.35L1054.81,163.84L1054.82,193.99L1055.16,218.49L1055.5,92.11L1055.57,132.88L1055.58,117.45L1055.66,103.15L1055.79,220.47L1056.33,116.43L1056.34,95.45L1056.76,236L1056.8,82.04L1057.09,170.48L1057.1,145.04L1057.12,128.73L1057.57,285.87L1057.85,212.31L1057.86,208.67L1058.5,89.34L1058.61,354.28L1058.62,323.46L1058.89,121.03L1059.37,137.35L1059.38,124.15L1060.01,260.26L1060.13,194.89L1060.14,199.54L1060.52,119.44L1060.57,324.84L1060.89,159.21L1060.9,164.1L1060.93,283.8L1061.63,222.38L1061.64,217.86L1062.15,289.44L1062.36,152.76L1062.39,237.05L1062.4,233.02L1062.63,282.83L1063.05,122.73L1063.08,233.8L1063.09,251.54L1063.56,365.83L1063.68,156.5L1063.77,305.93L1063.78,369.29L1063.8,380.57L1064.29,236.02L1064.29,252.43L1064.3,234.86L1064.4,372.78L1064.91,182.2L1065,207.4L1065,189.02L1065.12,134.5L1065.49,218.82L1065.49,253.35L1066.06,112.15L1066.18,204.46L1066.19,216.69L1066.43,261.35L1066.92,107.03L1066.94,172.6L1066.95,213.02L1067.27,285.56L1067.7,111.74L1067.71,129.04L1068.09,128.02L1068.36,341.52L1068.46,228.49L1068.47,237.2L1068.5,288.74L1069.09,118.77L1069.22,181.19L1069.23,152.27L1069.31,132.77L1069.89,259.43L1069.98,215.13L1069.99,193.8L1070.25,144.34L1070.74,258.65L1070.75,264.98L1070.86,179.65L1071.49,273.56L1071.5,261.99L1071.51,253.34L1071.94,150.45L1072.22,397.18L1072.26,231.87L1072.27,250.08L1072.37,168.24L1073.05,389.46L1073.06,396.21L1073.7,209.55L1073.89,233.88L1073.89,262.95L1074.34,166.12L1074.61,293.23L1074.63,253.26L1074.64,278.22L1074.8,194.55L1075.32,349.76L1075.36,289.1L1075.37,317.58L1075.37,331.3L1075.82,167.52L1076.12,201.39L1076.13,210.2L1076.2,176.51L1076.45,326.79L1076.88,269.44L1076.89,246.2L1076.89,208.36L1077.16,355.76L1077.64,259.26L1077.65,246.37L1077.69,297.53L1078.32,102.39L1078.4,210.08L1078.41,203.54L1078.44,180.63L1079.14,352.59L1079.16,319.06L1079.17,340.96L1079.51,249.7L1079.65,391.58L1079.92,282.02L1079.93,272.7L1079.95,340.37L1080.29,191.81L1080.68,268.13L1080.69,273.21L1081.12,240.85L1081.42,388.91L1081.44,311.76L1081.45,301.2L1081.56,358.03L1082.07,248.18L1082.2,295.89L1082.21,295.05L1082.37,204.07L1082.64,394.92L1082.96,291.33L1082.97,302.94L1082.97,301.16L1083.33,395.4L1083.39,362.57L1083.76,392.48L1083.92,367.45L1083.98,385.89L1083.99,343.75L1084.28,396.41L1084.85,239.28L1084.89,251.31L1084.9,264.05L1084.96,217.93L1085.65,363.24L1085.66,336.24L1085.69,303.53L1085.72,397.89L1086.4,380.26L1086.45,392.08L1086.53,395.42L1086.93,201.86L1087.2,267.79L1087.21,265.5L1087.25,230.58L1087.71,397.43L1087.94,388.32L1088.24,392.91L1088.48,397.54L1089.18,244.59L1089.19,291.12L1089.2,314.35L1089.62,247.46L1089.69,380.06L1089.95,298.95L1089.96,286.12L1090.09,276.14L1090.58,397.27L1090.71,364.8L1090.72,353.34L1090.87,276.42L1091.14,396.38L1091.47,329.5L1091.48,310.78L1091.71,231.22L1092.12,367.36L1092.23,283.72L1092.24,282.18L1092.57,225.07L1092.84,394.04L1092.99,366.45L1093,364.7L1093.12,234.35L1093.63,388.42L1093.75,305L1093.76,316.52L1093.96,277.95L1094.01,396.94L1094.48,321.68L1094.52,342.91L1094.66,289.78L1095.16,396.23L1095.27,314.77L1095.28,301.77L1095.73,281.37L1095.76,382.35L1096.02,308.19L1096.03,298.01L1096.31,350.32L1096.58,197.01L1096.78,285.59L1096.79,272.64L1097.27,218.74L1097.48,380.26L1097.54,348.55L1097.55,358.31L1097.72,394.48L1098.29,231.22L1098.3,265.11L1098.31,298.14L1098.6,221.38L1098.8,383.83L1099.06,293.42L1099.07,300.52L1099.36,192.88L1099.79,341.41L1099.82,330.47L1099.83,342.9L1100.2,220.16L1100.41,352.84L1100.58,260.51L1100.59,243.44L1100.76,193.52L1100.8,367.31L1101.34,350.67L1101.35,375.73L1101.37,302.41L1101.92,388.81L1102.1,336.74L1102.11,357.69L1102.12,368.76L1102.84,226.21L1102.86,259.04L1102.87,247.24L1102.99,227.19L1103.34,385.84L1103.62,248.78L1103.63,258.03L1104.05,395.23L1104.32,225.46L1104.38,270.24L1104.39,262.21L1104.51,382.46L1104.86,223.51L1105.14,337.49L1105.15,300.81L1105.16,253.9L1105.69,395.74L1105.88,296.72L1105.89,308.8L1106.34,238.59L1106.59,380.06L1106.64,303.49L1106.65,316.07L1106.74,396.76L1107.1,240.77L1107.39,327.1L1107.4,315.86L1107.5,294.02L1107.68,395.17L1108.12,389.8L1108.16,388.1L1108.22,394.87L1108.49,211.74L1108.91,353.81L1108.92,351.42L1109.23,238.99L1109.46,388.7L1109.67,335.9L1109.68,339.95L1109.72,284.45L1109.85,397.86L1110.43,313.26L1110.44,323.36L1110.47,374.81L1110.73,188.6L1111.19,295.04L1111.2,277.06L1111.24,345.31L1111.81,229.14L1111.95,272.2L1111.96,247.57L1111.96,227.41L1112.17,397.16L1112.71,297.27L1112.72,277.94L1112.82,197.93L1113.08,361.76L1113.47,271.28L1113.48,261.94L1113.97,194.58L1114.22,383.96L1114.24,385.87L1114.35,397.75L1114.97,200.99L1114.99,260.38L1115,298.23L1115.05,201.53L1115.7,352.39L1115.75,315.85L1115.76,314.31L1116.06,229.42L1116.27,385.3L1116.51,243.05L1116.52,259.67L1116.64,365.61L1117.07,170.96L1117.24,276.44L1117.25,283.72L1117.68,186.63L1117.87,369.32L1118,240.93L1118.01,234.07L1118.56,395.46L1118.69,170.93L1118.74,243.7L1118.75,227.01L1118.83,89.95L1118.95,340.25L1119.5,132.51L1119.51,129.42L1119.51,114.36L1120.1,277.86L1120.24,266.31L1120.3,224.17L1120.46,183.29L1120.71,377.3L1121.05,277.36L1121.06,223.36L1121.1,341.82L1121.69,154.94L1121.78,248.16L1121.79,270.11L1121.96,302.91L1122.27,171.54L1122.54,184.54L1122.55,199.62L1122.61,152.09L1123.02,371.07L1123.3,225.24L1123.31,242L1123.32,302.05L1123.82,149.9L1124.06,190.28L1124.07,161.89L1124.8,354.6L1124.83,253.46L1124.84,223.12L1125.02,389.96L1125.54,154.47L1125.59,248.29L1125.6,259.54L1125.8,290.16L1126.16,129.59L1126.45,145.13L1126.46,174.52L1126.57,117.9L1127.05,397.94L1127.1,390.97L1127.14,386.98L1127.2,397.46L1127.62,143.64L1127.94,179.55L1127.95,209.45L1128.05,241.05L1128.05,188.91L1128.06,208.52L1128.06,180.63L1128.17,160.13L1128.8,299.85L1128.82,245L1128.83,209.86L1128.85,190.81L1129.03,392.11L1129.03,387.84L1129.04,394.64L1129.62,142.83L1129.8,298.4L1129.81,308.15L1130.13,191.93L1130.57,259.18L1130.58,262.3L1130.78,139.24L1131.28,364.3L1131.33,351.98L1131.34,364.6L1131.35,366.75L1131.54,249.42L1131.61,283L1131.62,258.04L1131.77,146.57L1131.82,312.53L1132.37,215.94L1132.38,201.16L1132.69,108.28L1132.96,277.62L1133.11,250.44L1133.15,226.62L1133.36,314.35L1133.8,181.02L1133.89,229.14L1133.9,217.39L1134.01,125.74L1134.19,313.32L1134.64,196.22L1134.65,226.62L1134.93,126.47L1135.13,323.47L1135.4,292.4L1135.41,272.81L1135.44,252.85L1135.46,295.12L1135.5,254.61L1135.51,239.09L1135.62,286.42L1136.24,104.68L1136.26,204.34L1136.27,225.82L1136.3,165.48L1136.3,135.89L1136.31,106.94L1136.65,309.72L1137.03,181.02L1137.03,218.62L1137.09,168.67L1137.36,268.74L1137.75,190.76L1137.76,194.97L1138.12,89.34L1138.27,241.99L1138.47,173.1L1138.48,162.69L1138.59,277.05L1139.09,115.26L1139.13,171.57L1139.14,128.64L1139.37,324.52L1139.92,214.3L1139.92,204.46L1140.39,110.52L1140.6,281.62L1140.62,209.91L1140.63,165.66L1140.67,271.7L1140.96,173.16L1140.97,165.43L1141.32,114.77L1141.75,274.09L1141.79,236.39L1141.79,231.04L1141.84,249.63L1142.58,127.24L1142.67,180.94L1142.67,195.94L1142.82,242.56L1143.15,114.7L1143.33,133.66L1143.34,115.67L1143.35,115.03L1143.91,263.02L1144.15,180.55L1144.15,165.29L1144.2,189.9L1144.33,133.05L1144.41,167.99L1144.42,193.37L1144.84,281.12L1145.14,140.41L1145.17,205.12L1145.18,195.83L1145.65,79.83L1145.92,212.34L1145.93,201.36L1145.94,203.42L1146,222.83L1146.31,102.68L1146.69,134.78L1146.7,144.31L1147.03,220.62L1147.4,81.61L1147.45,89.35L1147.46,95.15L1148,210.48L1148.2,88.76L1148.21,126.55L1148.22,161.77L1148.35,98.68L1148.69,210.17L1148.97,116.32L1148.98,117.66L1149.08,190.95L1149.46,87.3L1149.73,178.74L1149.74,153.85L1150.14,77.68L1150.24,184.73L1150.49,112.07L1150.5,126.92L1150.67,65.41L1150.71,182.73L1151.25,150.31L1151.26,157.51L1151.29,103.15L1151.76,233.4L1152.01,139.47L1152.02,132.99L1152.16,205.37L1152.75,68.53L1152.77,108.51L1152.78,109.53L1152.83,43.01L1153.21,232.56L1153.43,151.18L1153.43,157.43L1153.73,119.83L1153.92,230.75L1154.17,158.12L1154.17,144.04L1154.55,205.98L1154.82,81.06L1154.91,127.88L1154.92,123.37L1154.98,88.26L1155.64,197.43L1155.7,179.13L1155.7,173.65L1155.72,202.92L1155.74,169.56L1155.75,175.42L1155.76,163.29L1155.95,257.22L1156.46,127.13L1156.51,145.09L1156.52,172.01L1157,104.85L1157.03,245.26L1157.27,169.36L1157.28,174.03L1157.69,231.45L1157.93,108.62L1158.03,217.36L1158.04,223.28L1158.05,260.27L1158.45,142.67L1158.77,173.13L1158.78,160.35L1158.9,112.16L1159.21,233.8L1159.53,154.42L1159.54,145.83L1159.66,66.25L1160.28,298.72L1160.38,215.94L1160.38,207.02L1160.66,133.21L1160.96,277.52L1161.02,224.51L1161.03,250.25L1161.05,265.78L1161.64,107.13L1161.7,153.07L1161.71,128.08L1162.3,326.99L1162.46,229.2L1162.47,210.75L1162.52,256.95L1162.93,118.82L1163.19,214.5L1163.2,144.65L1163.78,95.65L1163.84,372.13L1163.95,206.23L1163.96,197.5L1164.04,162.11L1164.37,277.25L1164.71,182.45L1164.72,181.13L1165.05,124.88L1165.23,224.56L1165.47,189.53L1165.48,158.54L1165.89,93.19L1166.09,278.19L1166.23,200.51L1166.24,214.88L1166.53,248.13L1166.96,137.73L1166.99,155.97L1167,139.43L1167.38,230.16L1167.55,116.93L1167.75,174.18L1167.76,174.72L1167.9,54.67L1168.18,257.76L1168.51,146.97L1168.52,136.26L1168.71,264.89L1169.27,151.27L1169.28,163.56L1169.48,184.82L1169.98,77.21L1170.03,149.23L1170.04,134.55L1170.06,85.52L1170.33,237.39L1170.79,226.98L1170.8,195.39L1170.87,217.42L1171.44,116.17L1171.55,139.02L1171.56,143.51L1171.7,170.34L1172.15,60.27L1172.31,163.84L1172.32,174.99L1172.87,246.77L1172.97,159.07L1173.04,193.99L1173.05,171.26L1173.14,157.67L1173.25,225.24L1173.3,179.76L1173.31,163.75L1173.35,207.26L1174.01,88.93L1174.06,108.95L1174.07,110.67L1174.08,59.21L1174.74,203L1174.82,170.57L1174.83,171.65L1174.95,222.22L1175.46,133.49L1175.58,173.49L1175.59,160.67L1175.96,171.71L1176.22,30.88L1176.34,109.68L1176.35,126.83L1176.4,85.1L1176.97,208.33L1177.1,159.72L1177.11,179.65L1177.67,183.79L1177.86,84.43L1177.88,144.81L1177.88,158.07L1177.9,171.68L1178.32,55.12L1178.59,125.52L1178.59,105.33L1178.84,70.41L1179.05,218.26L1179.37,139.83L1179.38,125.51L1179.59,208.7L1180.09,99.04L1180.13,143.51L1180.14,130.43L1180.2,149.12L1180.42,55.59L1180.89,108.59L1180.9,107.73L1181.12,38.91L1181.3,164.73L1181.65,146.04L1181.66,132.93L1181.68,174.39L1182.35,78.3L1182.41,93.36L1182.42,104.83L1182.5,70.35L1182.85,170.99L1183.17,101.98L1183.18,91.88L1183.47,89.31L1183.67,179.72L1183.93,122.33L1183.94,132.99L1184.11,192.62L1184.43,81.97L1184.69,137.71L1184.7,144.26L1184.73,77.93L1185.33,241.69L1185.45,153.25L1185.46,146.26L1185.66,76.93L1186.09,241.93L1186.21,142.62L1186.22,147.72L1186.43,67.94L1186.79,191.73L1186.97,120.39L1186.98,117.32L1187.15,149.29L1187.39,70.38L1187.7,100.59L1187.7,85.57L1188.26,218.09L1188.51,181.63L1188.51,138.24L1188.6,116.28L1189.02,224.56L1189.25,145.01L1189.26,159.82L1189.79,78.93L1190.02,129.04L1190.03,138.18L1190.33,84.29L1190.6,183.84L1190.78,164.09L1190.79,173.54L1190.95,276.07L1191,75.89L1191.54,132.99L1191.55,126.61L1192.12,198.88L1192.23,86.99L1192.3,136.47L1192.31,125.19L1192.79,87.11L1192.89,206.68L1193.06,205.28L1193.07,179.01L1193.12,72.02L1193.32,192.38L1193.82,122.82L1193.83,134.47L1193.92,167.32L1194.5,54.42L1194.58,116.26L1194.59,118.38L1194.98,185.7L1195.18,87.67L1195.27,168.08L1195.32,197.23L1195.37,216.22L1195.5,114.59L1196.1,160.38L1196.11,153.6L1196.14,174.16L1196.6,70.01L1196.88,132.26L1196.88,142.92L1197.06,229.56L1197.4,133.77L1197.64,180.43L1197.65,168.11L1197.68,200.52L1197.78,115.98L1198.33,140.71L1198.43,170.26L1198.63,94.86L1199.05,217.2L1199.18,175.02L1199.18,165.2L1199.45,217.53L1199.79,118.82L1199.86,151.93L1199.87,124.09L1199.92,219.13L1200.48,78.38L1200.62,126.64L1200.63,146.79L1201.19,98.93L1201.31,201.78L1201.37,161.16L1201.38,171.6L1201.46,234.88L1202.12,109.23L1202.13,147.44L1202.14,152.48L1202.23,183.06L1202.57,95.04L1202.89,162.08L1202.9,151.35L1203.27,110.87L1203.48,206.35L1203.65,154.24L1203.66,152.49L1203.71,209.84L1203.89,98.99L1204.41,137.54L1204.42,125.99L1204.51,209.97L1205.07,98.08L1205.17,115.34L1205.18,126.25L1205.27,85.15L1205.92,179.01L1205.93,172.49L1205.94,186.83L1206.03,196.73L1206.27,104.37L1206.69,143.81L1206.7,141.33L1206.95,188L1207.35,78.58L1207.45,129.33L1207.46,126.96L1207.71,172.09L1207.98,71.57L1208.21,124.13L1208.22,122.17L1208.45,67.51L1208.63,152.13L1208.95,117.98L1208.96,114.48L1209.34,63.1L1209.56,145.77L1209.68,124.63L1209.69,159.33L1210.21,80.3L1210.35,202.47L1210.45,123.2L1210.45,150.51L1211.01,198.12L1211.07,99.19L1211.2,151.65L1211.2,150.11L1211.22,111.18L1211.34,239.56L1211.92,146.26L1211.92,153.85L1212.14,88.12L1212.58,186.21L1212.64,156.19L1212.65,148.25L1212.88,192.62L1213.23,100.61L1213.34,146.58L1213.35,162.36L1213.51,211.45L1214,92.89L1214.1,167.96L1214.11,178.63L1214.3,103.95L1214.85,226.87L1214.86,186.16L1214.87,213.23L1214.91,246.71L1215.11,134.2L1215.62,175.81L1215.63,187.78L1215.82,213.63L1216.13,95.62L1216.4,135.76L1216.41,163.4L1216.45,104.57L1216.49,241.71L1217.13,151.79L1217.13,166.41L1217.18,129.61L1217.37,266.93L1217.53,184.5L1217.54,157.92L1218.06,112.94L1218.18,214.54L1218.29,189.69L1218.3,166.71L1218.57,207.3L1218.68,114.7L1219.05,157.92L1219.06,156.93L1219.28,94.36L1219.78,171.49L1219.81,115.34L1219.82,120.91L1219.98,93.49L1220.57,178.81L1220.58,190L1220.67,192.54L1220.84,106.91L1221.33,186.72L1221.34,164.84L1221.55,204.57L1221.93,71.04L1222.09,112.16L1222.1,115.75L1222.67,182.17L1222.85,89.88L1222.86,83.01L1223.09,215.95L1223.61,128.72L1223.62,122.78L1223.96,78.66L1224.3,153.27L1224.35,113.5L1224.36,104.96L1224.41,180.44L1225.11,84.82L1225.12,59.74L1225.37,186.21L1225.75,98.38L1225.76,83.62L1226.11,63.17L1226.42,144.73L1226.52,125.83L1226.53,103.14L1226.6,85.46L1226.69,169.64L1227.28,115.78L1227.29,103.84L1227.46,169.67L1227.91,87.53L1228.03,123.78L1228.04,113.75L1228.44,97.43L1228.78,165.6L1228.79,151.62L1228.8,155.48L1228.83,123.79L1228.94,183.2L1229.07,166.55" style="vector-effect: none; fill: none; stroke: rgb(0, 0, 0); stroke-opacity: 1; stroke-width: 2px; opacity: 1;"/></g><g class="points"/><g class="text"/></g><g class="trace scatter trace52c6eb" style="stroke-miterlimit: 2; opacity: 1;"><g class="fills"/><g class="errorbars"/><g class="lines"><path class="js-line" d="M888.9,150.85L893.39,147.05L893.4,147.05L900.42,141.36L900.43,141.37L905.22,141.37L905.22,141.37L905.23,141.37L913.62,145.66L913.62,145.66L913.63,145.66L924.94,148.68L924.95,148.69L929.08,149.28L929.08,149.27L933.15,149.38L933.15,149.39L938.43,152.37L938.43,152.37L938.44,152.37L939.58,153.41L939.59,153.43L940.92,154.43L940.92,154.43L940.93,154.43L947.52,155.18L947.52,155.18L947.53,155.19L949.48,156.03L949.49,156.03L954.21,155.22L954.22,155.21L957.01,155.03L957.01,155.05L957.02,155.06L958.23,155.68L958.24,155.68L959.89,156.06L959.89,156.06L959.9,156.07L961.02,156.33L961.02,156.33L961.03,156.32L965.18,156.83L965.18,156.84L965.19,156.85L970.12,162.98L970.13,163L972.75,166.87L972.76,166.88L975.62,169.96L975.63,169.97L982.83,175.97L982.84,175.97L984.85,176.99L984.85,177L986.73,177.93L986.73,177.93L986.74,177.94L992.44,182.89L992.45,182.9L998.22,191.39L998.23,191.39L1002.12,194.28L1002.13,194.28L1005.48,193.56L1005.48,193.56L1005.49,193.55L1009.8,193.21L1009.8,193.21L1009.81,193.2L1015.43,196.15L1015.43,196.16L1017.05,197.09L1017.05,197.09L1017.06,197.09L1019.35,197.68L1019.36,197.69L1023.15,199.1L1023.15,199.1L1023.16,199.11L1025.78,201.68L1025.78,201.69L1027.83,203.8L1027.83,203.81L1031.7,207.56L1031.71,207.55L1031.72,207.55L1033.48,208.64L1033.49,208.65L1034.63,210.01L1034.64,210.02L1036.27,212.09L1036.28,212.1L1037.55,213.06L1037.56,213.06L1038.8,213.6L1038.81,213.61L1041.23,216.17L1041.23,216.17L1041.24,216.17L1042.6,217.86L1042.61,217.87L1044.78,220.54L1044.79,220.55L1046.48,221.68L1046.49,221.69L1049.73,225.09L1049.74,225.1L1055.28,233.29L1055.29,233.3L1056.85,235.72L1056.86,235.74L1063.84,244.52L1063.84,244.52L1063.85,244.53L1065.09,245.09L1065.09,245.11L1065.1,245.12L1068.74,243.96L1068.74,243.95L1070.54,244.13L1070.55,244.14L1072.44,245L1072.45,245L1074.91,245.33L1074.92,245.34L1076.59,246.8L1076.6,246.81L1079.1,247.89L1079.1,247.89L1079.11,247.9L1081.6,249.78L1081.61,249.79L1085.54,250.67L1085.55,250.66L1088.33,251.23L1088.33,251.23L1088.38,251.24L1089.55,251.07L1089.56,251.06L1092.04,251.13L1092.04,251.12L1095.2,249.63L1095.21,249.61L1097.15,247.87L1097.15,247.87L1097.16,247.88L1098.93,246.17L1098.93,246.16L1101.92,244.2L1101.97,244.2L1105.49,243.06L1105.49,243.06L1105.5,243.07L1111.76,244.02L1111.76,244.02L1111.77,244.01L1117.49,242.83L1117.5,242.82L1119.06,241.86L1119.06,241.86L1119.07,241.86L1120.7,241.64L1120.71,241.64L1123.91,240.12L1123.92,240.12L1125.82,238.57L1125.82,238.56L1130.82,233.02L1130.83,233.02L1133.68,229.12L1133.68,229.1L1138.31,220.92L1138.32,220.92L1144.39,209.63L1144.39,209.62L1149.89,200.35L1149.9,200.35L1151.44,198.22L1151.44,198.21L1157.69,187.99L1157.69,187.97L1163.55,177.59L1163.55,177.59L1163.56,177.58L1165.38,174.7L1165.39,174.68L1168.02,171.83L1168.03,171.82L1170.6,169.43L1170.61,169.42L1176.03,164.06L1176.04,164.06L1178.28,160.76L1178.28,160.75L1181.49,157.42L1181.5,157.42L1182.44,156.68L1182.44,156.67L1182.45,156.66L1191.29,151.16L1191.3,151.16L1194.2,150.22L1194.2,150.22L1194.21,150.21L1197.42,150.32L1197.42,150.32L1197.43,150.33L1204.36,150.68L1204.36,150.68L1204.37,150.68L1205.61,150.18L1205.61,150.18L1205.62,150.17L1208.27,149.27L1208.27,149.27L1208.28,149.26L1210.09,148.31L1210.09,148.31L1210.1,148.3L1212.88,146.1L1212.88,146.1L1212.89,146.1L1213.71,145.32L1213.71,145.31L1216.09,143.6L1216.09,143.6L1216.1,143.6L1221.2,141.59L1221.21,141.59L1222.1,141.4L1222.11,141.37L1222.12,141.37L1223.4,140.73L1223.52,140.85L1223.53,140.85L1224.59,140.72L1224.59,140.72L1224.6,140.71L1226.2,140.93L1226.2,140.94L1227.72,140.83L1227.72,140.84L1227.73,140.85L1229,141.14L1229,141.13L1229.01,141.12" style="vector-effect: none; fill: none; stroke: rgb(255, 0, 0); stroke-opacity: 1; stroke-width: 2px; opacity: 1;"/></g><g class="points"/><g class="text"/></g></g></g></g><g class="zerolinelayer-above"/><path class="xlines-above crisp" d="M89,520H1431M89,99H1431" style="fill: none; stroke-width: 2px; stroke: rgb(0, 0, 0); stroke-opacity: 1;"/><path class="ylines-above crisp" d="M90,100V519M1430,100V519" style="fill: none; stroke-width: 2px; stroke: rgb(0, 0, 0); stroke-opacity: 1;"/><g class="overlines-above"/><g class="xaxislayer-above"><path class="xtick ticks crisp" d="M0,521v4" transform="translate(107.5,0)" style="stroke: rgb(68, 68, 68); stroke-opacity: 1; stroke-width: 1px;"/><path class="xtick ticks crisp" d="M0,521v4" transform="translate(135.7,0)" style="stroke: rgb(68, 68, 68); stroke-opacity: 1; stroke-width: 1px;"/><path class="xtick ticks crisp" d="M0,521v4" transform="translate(163.9,0)" style="stroke: rgb(68, 68, 68); stroke-opacity: 1; stroke-width: 1px;"/><path class="xtick ticks crisp" d="M0,521v4" transform="translate(192.1,0)" style="stroke: rgb(68, 68, 68); stroke-opacity: 1; stroke-width: 1px;"/><path class="xtick ticks crisp" d="M0,521v4" transform="translate(220.3,0)" style="stroke: rgb(68, 68, 68); stroke-opacity: 1; stroke-width: 1px;"/><path class="xtick ticks crisp" d="M0,521v4" transform="translate(248.49,0)" style="stroke: rgb(68, 68, 68); stroke-opacity: 1; stroke-width: 1px;"/><path class="xtick ticks crisp" d="M0,521v4" transform="translate(276.69,0)" style="stroke: rgb(68, 68, 68); stroke-opacity: 1; stroke-width: 1px;"/><path class="xtick ticks crisp" d="M0,521v4" transform="translate(304.89,0)" style="stroke: rgb(68, 68, 68); stroke-opacity: 1; stroke-width: 1px;"/><path class="xtick ticks crisp" d="M0,521v4" transform="translate(333.09000000000003,0)" style="stroke: rgb(68, 68, 68); stroke-opacity: 1; stroke-width: 1px;"/><path class="xtick ticks crisp" d="M0,521v4" transform="translate(361.29,0)" style="stroke: rgb(68, 68, 68); stroke-opacity: 1; stroke-width: 1px;"/><path class="xtick ticks crisp" d="M0,521v4" transform="translate(389.49,0)" style="stroke: rgb(68, 68, 68); stroke-opacity: 1; stroke-width: 1px;"/><path class="xtick ticks crisp" d="M0,521v4" transform="translate(417.69,0)" style="stroke: rgb(68, 68, 68); stroke-opacity: 1; stroke-width: 1px;"/><path class="xtick ticks crisp" d="M0,521v4" transform="translate(445.89,0)" style="stroke: rgb(68, 68, 68); stroke-opacity: 1; stroke-width: 1px;"/><path class="xtick ticks crisp" d="M0,521v4" transform="translate(474.09,0)" style="stroke: rgb(68, 68, 68); stroke-opacity: 1; stroke-width: 1px;"/><path class="xtick ticks crisp" d="M0,521v4" transform="translate(502.29,0)" style="stroke: rgb(68, 68, 68); stroke-opacity: 1; stroke-width: 1px;"/><path class="xtick ticks crisp" d="M0,521v4" transform="translate(530.49,0)" style="stroke: rgb(68, 68, 68); stroke-opacity: 1; stroke-width: 1px;"/><path class="xtick ticks crisp" d="M0,521v4" transform="translate(558.69,0)" style="stroke: rgb(68, 68, 68); stroke-opacity: 1; stroke-width: 1px;"/><path class="xtick ticks crisp" d="M0,521v4" transform="translate(586.89,0)" style="stroke: rgb(68, 68, 68); stroke-opacity: 1; stroke-width: 1px;"/><path class="xtick ticks crisp" d="M0,521v4" transform="translate(615.09,0)" style="stroke: rgb(68, 68, 68); stroke-opacity: 1; stroke-width: 1px;"/><path class="xtick ticks crisp" d="M0,521v4" transform="translate(643.29,0)" style="stroke: rgb(68, 68, 68); stroke-opacity: 1; stroke-width: 1px;"/><path class="xtick ticks crisp" d="M0,521v4" transform="translate(671.49,0)" style="stroke: rgb(68, 68, 68); stroke-opacity: 1; stroke-width: 1px;"/><path class="xtick ticks crisp" d="M0,521v4" transform="translate(699.69,0)" style="stroke: rgb(68, 68, 68); stroke-opacity: 1; stroke-width: 1px;"/><path class="xtick ticks crisp" d="M0,521v4" transform="translate(727.89,0)" style="stroke: rgb(68, 68, 68); stroke-opacity: 1; stroke-width: 1px;"/><path class="xtick ticks crisp" d="M0,521v4" transform="translate(756.09,0)" style="stroke: rgb(68, 68, 68); stroke-opacity: 1; stroke-width: 1px;"/><path class="xtick ticks crisp" d="M0,521v4" transform="translate(784.28,0)" style="stroke: rgb(68, 68, 68); stroke-opacity: 1; stroke-width: 1px;"/><path class="xtick ticks crisp" d="M0,521v4" transform="translate(812.48,0)" style="stroke: rgb(68, 68, 68); stroke-opacity: 1; stroke-width: 1px;"/><path class="xtick ticks crisp" d="M0,521v4" transform="translate(840.68,0)" style="stroke: rgb(68, 68, 68); stroke-opacity: 1; stroke-width: 1px;"/><path class="xtick ticks crisp" d="M0,521v4" transform="translate(868.88,0)" style="stroke: rgb(68, 68, 68); stroke-opacity: 1; stroke-width: 1px;"/><path class="xtick ticks crisp" d="M0,521v4" transform="translate(897.08,0)" style="stroke: rgb(68, 68, 68); stroke-opacity: 1; stroke-width: 1px;"/><path class="xtick ticks crisp" d="M0,521v4" transform="translate(925.28,0)" style="stroke: rgb(68, 68, 68); stroke-opacity: 1; stroke-width: 1px;"/><path class="xtick ticks crisp" d="M0,521v4" transform="translate(953.48,0)" style="stroke: rgb(68, 68, 68); stroke-opacity: 1; stroke-width: 1px;"/><path class="xtick ticks crisp" d="M0,521v4" transform="translate(981.68,0)" style="stroke: rgb(68, 68, 68); stroke-opacity: 1; stroke-width: 1px;"/><path class="xtick ticks crisp" d="M0,521v4" transform="translate(1009.88,0)" style="stroke: rgb(68, 68, 68); stroke-opacity: 1; stroke-width: 1px;"/><path class="xtick ticks crisp" d="M0,521v4" transform="translate(1038.08,0)" style="stroke: rgb(68, 68, 68); stroke-opacity: 1; stroke-width: 1px;"/><path class="xtick ticks crisp" d="M0,521v4" transform="translate(1066.28,0)" style="stroke: rgb(68, 68, 68); stroke-opacity: 1; stroke-width: 1px;"/><path class="xtick ticks crisp" d="M0,521v4" transform="translate(1094.48,0)" style="stroke: rgb(68, 68, 68); stroke-opacity: 1; stroke-width: 1px;"/><path class="xtick ticks crisp" d="M0,521v4" transform="translate(1122.68,0)" style="stroke: rgb(68, 68, 68); stroke-opacity: 1; stroke-width: 1px;"/><path class="xtick ticks crisp" d="M0,521v4" transform="translate(1150.88,0)" style="stroke: rgb(68, 68, 68); stroke-opacity: 1; stroke-width: 1px;"/><path class="xtick ticks crisp" d="M0,521v4" transform="translate(1179.08,0)" style="stroke: rgb(68, 68, 68); stroke-opacity: 1; stroke-width: 1px;"/><path class="xtick ticks crisp" d="M0,521v4" transform="translate(1207.28,0)" style="stroke: rgb(68, 68, 68); stroke-opacity: 1; stroke-width: 1px;"/><path class="xtick ticks crisp" d="M0,521v4" transform="translate(1235.48,0)" style="stroke: rgb(68, 68, 68); stroke-opacity: 1; stroke-width: 1px;"/><path class="xtick ticks crisp" d="M0,521v4" transform="translate(1263.68,0)" style="stroke: rgb(68, 68, 68); stroke-opacity: 1; stroke-width: 1px;"/><path class="xtick ticks crisp" d="M0,521v4" transform="translate(1291.87,0)" style="stroke: rgb(68, 68, 68); stroke-opacity: 1; stroke-width: 1px;"/><path class="xtick ticks crisp" d="M0,521v4" transform="translate(1320.07,0)" style="stroke: rgb(68, 68, 68); stroke-opacity: 1; stroke-width: 1px;"/><path class="xtick ticks crisp" d="M0,521v4" transform="translate(1348.27,0)" style="stroke: rgb(68, 68, 68); stroke-opacity: 1; stroke-width: 1px;"/><path class="xtick ticks crisp" d="M0,521v4" transform="translate(1376.47,0)" style="stroke: rgb(68, 68, 68); stroke-opacity: 1; stroke-width: 1px;"/><path class="xtick ticks crisp" d="M0,521v4" transform="translate(1404.67,0)" style="stroke: rgb(68, 68, 68); stroke-opacity: 1; stroke-width: 1px;"/><path class="xtick ticks crisp" d="M0,519v-5" transform="translate(192.1,0)" style="stroke: rgb(68, 68, 68); stroke-opacity: 1; stroke-width: 1px;"/><path class="xtick ticks crisp" d="M0,519v-5" transform="translate(333.09000000000003,0)" style="stroke: rgb(68, 68, 68); stroke-opacity: 1; stroke-width: 1px;"/><path class="xtick ticks crisp" d="M0,519v-5" transform="translate(474.09,0)" style="stroke: rgb(68, 68, 68); stroke-opacity: 1; stroke-width: 1px;"/><path class="xtick ticks crisp" d="M0,519v-5" transform="translate(615.09,0)" style="stroke: rgb(68, 68, 68); stroke-opacity: 1; stroke-width: 1px;"/><path class="xtick ticks crisp" d="M0,519v-5" transform="translate(756.09,0)" style="stroke: rgb(68, 68, 68); stroke-opacity: 1; stroke-width: 1px;"/><path class="xtick ticks crisp" d="M0,519v-5" transform="translate(897.08,0)" style="stroke: rgb(68, 68, 68); stroke-opacity: 1; stroke-width: 1px;"/><path class="xtick ticks crisp" d="M0,519v-5" transform="translate(1038.08,0)" style="stroke: rgb(68, 68, 68); stroke-opacity: 1; stroke-width: 1px;"/><path class="xtick ticks crisp" d="M0,519v-5" transform="translate(1179.08,0)" style="stroke: rgb(68, 68, 68); stroke-opacity: 1; stroke-width: 1px;"/><path class="xtick ticks crisp" d="M0,519v-5" transform="translate(1320.07,0)" style="stroke: rgb(68, 68, 68); stroke-opacity: 1; stroke-width: 1px;"/><g class="xtick"><text text-anchor="middle" x="0" y="547.4" transform="translate(192.1,0)" style="font-family: 'Courier New'; font-size: 22px; fill: rgb(0, 0, 0); fill-opacity: 1; white-space: pre;">1980</text></g><g class="xtick"><text text-anchor="middle" x="0" y="547.4" style="font-family: 'Courier New'; font-size: 22px; fill: rgb(0, 0, 0); fill-opacity: 1; white-space: pre;" transform="translate(333.09000000000003,0)">1985</text></g><g class="xtick"><text text-anchor="middle" x="0" y="547.4" style="font-family: 'Courier New'; font-size: 22px; fill: rgb(0, 0, 0); fill-opacity: 1; white-space: pre;" transform="translate(474.09,0)">1990</text></g><g class="xtick"><text text-anchor="middle" x="0" y="547.4" style="font-family: 'Courier New'; font-size: 22px; fill: rgb(0, 0, 0); fill-opacity: 1; white-space: pre;" transform="translate(615.09,0)">1995</text></g><g class="xtick"><text text-anchor="middle" x="0" y="547.4" style="font-family: 'Courier New'; font-size: 22px; fill: rgb(0, 0, 0); fill-opacity: 1; white-space: pre;" transform="translate(756.09,0)">2000</text></g><g class="xtick"><text text-anchor="middle" x="0" y="547.4" style="font-family: 'Courier New'; font-size: 22px; fill: rgb(0, 0, 0); fill-opacity: 1; white-space: pre;" transform="translate(897.08,0)">2005</text></g><g class="xtick"><text text-anchor="middle" x="0" y="547.4" style="font-family: 'Courier New'; font-size: 22px; fill: rgb(0, 0, 0); fill-opacity: 1; white-space: pre;" transform="translate(1038.08,0)">2010</text></g><g class="xtick"><text text-anchor="middle" x="0" y="547.4" style="font-family: 'Courier New'; font-size: 22px; fill: rgb(0, 0, 0); fill-opacity: 1; white-space: pre;" transform="translate(1179.08,0)">2015</text></g><g class="xtick"><text text-anchor="middle" x="0" y="547.4" style="font-family: 'Courier New'; font-size: 22px; fill: rgb(0, 0, 0); fill-opacity: 1; white-space: pre;" transform="translate(1320.07,0)">2020</text></g></g><g class="yaxislayer-above"><path class="ytick ticks crisp" d="M89,0h-4" transform="translate(0,508.56)" style="stroke: rgb(68, 68, 68); stroke-opacity: 1; stroke-width: 1px;"/><path class="ytick ticks crisp" d="M89,0h-4" transform="translate(0,492.97)" style="stroke: rgb(68, 68, 68); stroke-opacity: 1; stroke-width: 1px;"/><path class="ytick ticks crisp" d="M89,0h-4" transform="translate(0,477.38)" style="stroke: rgb(68, 68, 68); stroke-opacity: 1; stroke-width: 1px;"/><path class="ytick ticks crisp" d="M89,0h-4" transform="translate(0,461.79)" style="stroke: rgb(68, 68, 68); stroke-opacity: 1; stroke-width: 1px;"/><path class="ytick ticks crisp" d="M89,0h-4" transform="translate(0,446.2)" style="stroke: rgb(68, 68, 68); stroke-opacity: 1; stroke-width: 1px;"/><path class="ytick ticks crisp" d="M89,0h-4" transform="translate(0,430.61)" style="stroke: rgb(68, 68, 68); stroke-opacity: 1; stroke-width: 1px;"/><path class="ytick ticks crisp" d="M89,0h-4" transform="translate(0,415.02)" style="stroke: rgb(68, 68, 68); stroke-opacity: 1; stroke-width: 1px;"/><path class="ytick ticks crisp" d="M89,0h-4" transform="translate(0,399.43)" style="stroke: rgb(68, 68, 68); stroke-opacity: 1; stroke-width: 1px;"/><path class="ytick ticks crisp" d="M89,0h-4" transform="translate(0,383.84)" style="stroke: rgb(68, 68, 68); stroke-opacity: 1; stroke-width: 1px;"/><path class="ytick ticks crisp" d="M89,0h-4" transform="translate(0,368.26)" style="stroke: rgb(68, 68, 68); stroke-opacity: 1; stroke-width: 1px;"/><path class="ytick ticks crisp" d="M89,0h-4" transform="translate(0,352.66999999999996)" style="stroke: rgb(68, 68, 68); stroke-opacity: 1; stroke-width: 1px;"/><path class="ytick ticks crisp" d="M89,0h-4" transform="translate(0,337.08000000000004)" style="stroke: rgb(68, 68, 68); stroke-opacity: 1; stroke-width: 1px;"/><path class="ytick ticks crisp" d="M89,0h-4" transform="translate(0,321.49)" style="stroke: rgb(68, 68, 68); stroke-opacity: 1; stroke-width: 1px;"/><path class="ytick ticks crisp" d="M89,0h-4" transform="translate(0,305.9)" style="stroke: rgb(68, 68, 68); stroke-opacity: 1; stroke-width: 1px;"/><path class="ytick ticks crisp" d="M89,0h-4" transform="translate(0,290.31)" style="stroke: rgb(68, 68, 68); stroke-opacity: 1; stroke-width: 1px;"/><path class="ytick ticks crisp" d="M89,0h-4" transform="translate(0,274.72)" style="stroke: rgb(68, 68, 68); stroke-opacity: 1; stroke-width: 1px;"/><path class="ytick ticks crisp" d="M89,0h-4" transform="translate(0,259.13)" style="stroke: rgb(68, 68, 68); stroke-opacity: 1; stroke-width: 1px;"/><path class="ytick ticks crisp" d="M89,0h-4" transform="translate(0,243.54)" style="stroke: rgb(68, 68, 68); stroke-opacity: 1; stroke-width: 1px;"/><path class="ytick ticks crisp" d="M89,0h-4" transform="translate(0,227.95)" style="stroke: rgb(68, 68, 68); stroke-opacity: 1; stroke-width: 1px;"/><path class="ytick ticks crisp" d="M89,0h-4" transform="translate(0,212.36)" style="stroke: rgb(68, 68, 68); stroke-opacity: 1; stroke-width: 1px;"/><path class="ytick ticks crisp" d="M89,0h-4" transform="translate(0,196.78)" style="stroke: rgb(68, 68, 68); stroke-opacity: 1; stroke-width: 1px;"/><path class="ytick ticks crisp" d="M89,0h-4" transform="translate(0,181.19)" style="stroke: rgb(68, 68, 68); stroke-opacity: 1; stroke-width: 1px;"/><path class="ytick ticks crisp" d="M89,0h-4" transform="translate(0,165.6)" style="stroke: rgb(68, 68, 68); stroke-opacity: 1; stroke-width: 1px;"/><path class="ytick ticks crisp" d="M89,0h-4" transform="translate(0,150.01)" style="stroke: rgb(68, 68, 68); stroke-opacity: 1; stroke-width: 1px;"/><path class="ytick ticks crisp" d="M89,0h-4" transform="translate(0,134.42000000000002)" style="stroke: rgb(68, 68, 68); stroke-opacity: 1; stroke-width: 1px;"/><path class="ytick ticks crisp" d="M89,0h-4" transform="translate(0,118.83)" style="stroke: rgb(68, 68, 68); stroke-opacity: 1; stroke-width: 1px;"/><path class="ytick ticks crisp" d="M89,0h-4" transform="translate(0,103.24)" style="stroke: rgb(68, 68, 68); stroke-opacity: 1; stroke-width: 1px;"/><path class="ytick ticks crisp" d="M91,0h5" transform="translate(0,446.2)" style="stroke: rgb(68, 68, 68); stroke-opacity: 1; stroke-width: 1px;"/><path class="ytick ticks crisp" d="M91,0h5" transform="translate(0,368.26)" style="stroke: rgb(68, 68, 68); stroke-opacity: 1; stroke-width: 1px;"/><path class="ytick ticks crisp" d="M91,0h5" transform="translate(0,290.31)" style="stroke: rgb(68, 68, 68); stroke-opacity: 1; stroke-width: 1px;"/><path class="ytick ticks crisp" d="M91,0h5" transform="translate(0,212.36)" style="stroke: rgb(68, 68, 68); stroke-opacity: 1; stroke-width: 1px;"/><path class="ytick ticks crisp" d="M91,0h5" transform="translate(0,134.42000000000002)" style="stroke: rgb(68, 68, 68); stroke-opacity: 1; stroke-width: 1px;"/><g class="ytick"><text text-anchor="end" x="84.6" y="7.699999999999999" transform="translate(0,446.2)" style="font-family: 'Courier New'; font-size: 22px; fill: rgb(0, 0, 0); fill-opacity: 1; white-space: pre;">605</text></g><g class="ytick"><text text-anchor="end" x="84.6" y="7.699999999999999" style="font-family: 'Courier New'; font-size: 22px; fill: rgb(0, 0, 0); fill-opacity: 1; white-space: pre;" transform="translate(0,368.26)">610</text></g><g class="ytick"><text text-anchor="end" x="84.6" y="7.699999999999999" style="font-family: 'Courier New'; font-size: 22px; fill: rgb(0, 0, 0); fill-opacity: 1; white-space: pre;" transform="translate(0,290.31)">615</text></g><g class="ytick"><text text-anchor="end" x="84.6" y="7.699999999999999" style="font-family: 'Courier New'; font-size: 22px; fill: rgb(0, 0, 0); fill-opacity: 1; white-space: pre;" transform="translate(0,212.36)">620</text></g><g class="ytick"><text text-anchor="end" x="84.6" y="7.699999999999999" style="font-family: 'Courier New'; font-size: 22px; fill: rgb(0, 0, 0); fill-opacity: 1; white-space: pre;" transform="translate(0,134.42000000000002)">625</text></g></g><g class="overaxes-above"/></g></g><g class="polarlayer"/><g class="smithlayer"/><g class="ternarylayer"/><g class="geolayer"/><g class="funnelarealayer"/><g class="pielayer"/><g class="iciclelayer"/><g class="treemaplayer"/><g class="sunburstlayer"/><g class="glimages"/><defs id="topdefs-f37675"><g class="clips"/><clipPath id="legendf37675"><rect width="132" height="63" x="0" y="0"/></clipPath></defs><g class="layer-above"><g class="imagelayer"/><g class="shapelayer"/></g><g class="infolayer"><g class="legend" pointer-events="all" transform="translate(1455.76,100)"><rect class="bg" shape-rendering="crispEdges" style="stroke: rgb(68, 68, 68); stroke-opacity: 1; fill: rgb(255, 255, 255); fill-opacity: 1; stroke-width: 0px;" width="132" height="63" x="0" y="0"/><g class="scrollbox" transform="" clip-path="url(#legendf37675)"><g class="groups"><g class="traces" transform="translate(0,18.200000000000003)" style="opacity: 1;"><text class="legendtext" text-anchor="start" x="40" y="7.0200000000000005" style="font-family: 'Courier New'; font-size: 18px; fill: rgb(0, 0, 0); fill-opacity: 1; white-space: pre;">PSNM</text><g class="layers" style="opacity: 1;"><g class="legendfill"/><g class="legendlines"><path class="js-line" d="M5,0h30" style="fill: none; stroke: rgb(0, 0, 0); stroke-opacity: 1; stroke-width: 2px;"/></g><g class="legendsymbols"><g class="legendpoints"/></g></g><rect class="legendtoggle" x="0" y="-13.200000000000001" width="126.421875" height="26.400000000000002" style="fill: rgb(0, 0, 0); fill-opacity: 0;"/></g><g class="traces" transform="translate(0,44.6)" style="opacity: 1;"><text class="legendtext" text-anchor="start" x="40" y="7.0200000000000005" style="font-family: 'Courier New'; font-size: 18px; fill: rgb(0, 0, 0); fill-opacity: 1; white-space: pre;">Trendine</text><g class="layers" style="opacity: 1;"><g class="legendfill"/><g class="legendlines"><path class="js-line" d="M5,0h30" style="fill: none; stroke: rgb(255, 0, 0); stroke-opacity: 1; stroke-width: 2px;"/></g><g class="legendsymbols"><g class="legendpoints"/></g></g><rect class="legendtoggle" x="0" y="-13.200000000000001" width="126.421875" height="26.400000000000002" style="fill: rgb(0, 0, 0); fill-opacity: 0;"/></g></g></g><rect class="scrollbar" rx="20" ry="3" width="0" height="0" style="fill: rgb(128, 139, 164); fill-opacity: 1;" x="0" y="0"/></g><g class="g-gtitle"/><g class="g-xtitle"><text class="xtitle" x="760" y="586.600390625" text-anchor="middle" style="opacity: 1; font-family: 'Courier New'; font-size: 26px; fill: rgb(0, 0, 0); fill-opacity: 1; white-space: pre;">Year</text></g><g class="g-ytitle" transform="translate(0.109375,0)"><text class="ytitle" transform="rotate(-90,21.890234375000006,309.5)" x="21.890234375000006" y="309.5" text-anchor="middle" style="opacity: 1; font-family: 'Courier New'; font-size: 26px; fill: rgb(0, 0, 0); fill-opacity: 1; white-space: pre;">Neutron Count Rate (s⁻¹)</text></g><g class="annotation" data-index="0" style="opacity: 1;"><g class="annotation-text-g" transform="rotate(0,142.74,73.59999999999997)"><g class="cursor-pointer" transform="translate(105,58)"><rect class="bg" x="0.5" y="0.5" width="75" height="30" style="stroke-width: 1px; stroke: rgb(0, 0, 0); stroke-opacity: 0; fill: rgb(0, 0, 0); fill-opacity: 0;"/><text class="annotation-text" text-anchor="middle" x="38.0078125" y="22" style="font-family: 'Courier New'; font-size: 24px; fill: rgb(0, 0, 0); fill-opacity: 1; white-space: pre;">A > 0</text></g></g></g><g class="annotation" data-index="1" style="opacity: 1;"><g class="annotation-text-g" transform="rotate(0,335.75,73.59999999999997)"><g class="cursor-pointer" transform="translate(298,58)"><rect class="bg" x="0.5" y="0.5" width="75" height="30" style="stroke-width: 1px; stroke: rgb(0, 0, 0); stroke-opacity: 0; fill: rgb(0, 0, 0); fill-opacity: 0;"/><text class="annotation-text" text-anchor="middle" x="38.0078125" y="22" style="font-family: 'Courier New'; font-size: 24px; fill: rgb(0, 0, 0); fill-opacity: 1; white-space: pre;">A &#60; 0</text></g></g></g><g class="annotation" data-index="2" style="opacity: 1;"><g class="annotation-text-g" transform="rotate(0,618.32,73.59999999999997)"><g class="cursor-pointer" transform="translate(580,58)"><rect class="bg" x="0.5" y="0.5" width="75" height="30" style="stroke-width: 1px; stroke: rgb(0, 0, 0); stroke-opacity: 0; fill: rgb(0, 0, 0); fill-opacity: 0;"/><text class="annotation-text" text-anchor="middle" x="38.0078125" y="22" style="font-family: 'Courier New'; font-size: 24px; fill: rgb(0, 0, 0); fill-opacity: 1; white-space: pre;">A > 0</text></g></g></g><g class="annotation" data-index="3" style="opacity: 1;"><g class="annotation-text-g" transform="rotate(0,944.12,73.59999999999997)"><g class="cursor-pointer" transform="translate(906,58)"><rect class="bg" x="0.5" y="0.5" width="75" height="30" style="stroke-width: 1px; stroke: rgb(0, 0, 0); stroke-opacity: 0; fill: rgb(0, 0, 0); fill-opacity: 0;"/><text class="annotation-text" text-anchor="middle" x="38.0078125" y="22" style="font-family: 'Courier New'; font-size: 24px; fill: rgb(0, 0, 0); fill-opacity: 1; white-space: pre;">A &#60; 0</text></g></g></g><g class="annotation" data-index="4" style="opacity: 1;"><g class="annotation-text-g" transform="rotate(0,1278.81,73.59999999999997)"><g class="cursor-pointer" transform="translate(1241,58)"><rect class="bg" x="0.5" y="0.5" width="75" height="30" style="stroke-width: 1px; stroke: rgb(0, 0, 0); stroke-opacity: 0; fill: rgb(0, 0, 0); fill-opacity: 0;"/><text class="annotation-text" text-anchor="middle" x="38.0078125" y="22" style="font-family: 'Courier New'; font-size: 24px; fill: rgb(0, 0, 0); fill-opacity: 1; white-space: pre;">A > 0</text></g></g></g></g></svg>