<svg class="main-svg" xmlns="http://www.w3.org/2000/svg" xmlns:xlink="http://www.w3.org/1999/xlink" width="1600" height="600" style="" viewBox="0 0 1600 600"><rect x="0" y="0" width="1600" height="600" style="fill: rgb(255, 255, 255); fill-opacity: 1;"/><defs id="defs-1a0897"><g class="clips"><clipPath id="clip1a0897xyplot" class="plotclip"><rect width="1389" height="419"/></clipPath><clipPath class="axesclip" id="clip1a0897x"><rect x="104" y="0" width="1389" height="600"/></clipPath><clipPath class="axesclip" id="clip1a0897y"><rect x="0" y="100" width="1600" height="419"/></clipPath><clipPath class="axesclip" id="clip1a0897xy"><rect x="104" y="100" width="1389" height="419"/></clipPath></g><g class="gradients"/><g class="patterns"/></defs><g class="bglayer"/><g class="layer-below"><g class="imagelayer"/><g class="shapelayer"><g class="shape-group" data-index="0" clip-path="url(#clip1a0897x)"><path data-index="0" fill-rule="evenodd" d="M104,519H211.42000000000002V100H104Z" style="opacity: 1; stroke: rgb(0, 0, 0); stroke-opacity: 0; fill: rgb(200, 0, 0); fill-opacity: 0.1; stroke-width: 0px;"/></g><g class="shape-group" data-index="1" clip-path="url(#clip1a0897x)"><path data-index="1" fill-rule="evenodd" d="M211.42000000000002,519H504.73V100H211.42000000000002Z" style="opacity: 1; stroke: rgb(0, 0, 0); stroke-opacity: 0; fill: rgb(0, 0, 0); fill-opacity: 0; stroke-width: 0px;"/></g><g class="shape-group" data-index="2" clip-path="url(#clip1a0897x)"><path data-index="2" fill-rule="evenodd" d="M504.73,519H798.11V100H504.73Z" style="opacity: 1; stroke: rgb(0, 0, 0); stroke-opacity: 0; fill: rgb(200, 0, 0); fill-opacity: 0.1; stroke-width: 0px;"/></g><g class="shape-group" data-index="3" clip-path="url(#clip1a0897x)"><path data-index="3" fill-rule="evenodd" d="M798.11,519H1181.17V100H798.11Z" style="opacity: 1; stroke: rgb(0, 0, 0); stroke-opacity: 0; fill: rgb(0, 0, 0); fill-opacity: 0; stroke-width: 0px;"/></g><g class="shape-group" data-index="4" clip-path="url(#clip1a0897x)"><path data-index="4" fill-rule="evenodd" d="M1181.17,519H1493V100H1181.17Z" style="opacity: 1; stroke: rgb(0, 0, 0); stroke-opacity: 0; fill: rgb(200, 0, 0); fill-opacity: 0.1; stroke-width: 0px;"/></g></g></g><g class="cartesianlayer"><g class="subplot xy"><g class="layer-subplot"><g class="shapelayer"/><g class="imagelayer"/></g><g class="minor-gridlayer"><g class="x"><path class="xgrid crisp" transform="translate(121.13,0)" d="M0,100v419" style="stroke: rgb(211, 211, 211); stroke-opacity: 1; stroke-width: 1px;"/><path class="xgrid crisp" transform="translate(150.4,0)" d="M0,100v419" style="stroke: rgb(211, 211, 211); stroke-opacity: 1; stroke-width: 1px;"/><path class="xgrid crisp" transform="translate(179.67000000000002,0)" d="M0,100v419" style="stroke: rgb(211, 211, 211); stroke-opacity: 1; stroke-width: 1px;"/><path class="xgrid crisp" transform="translate(208.95,0)" d="M0,100v419" style="stroke: rgb(211, 211, 211); stroke-opacity: 1; stroke-width: 1px;"/><path class="xgrid crisp" transform="translate(238.22,0)" d="M0,100v419" style="stroke: rgb(211, 211, 211); stroke-opacity: 1; stroke-width: 1px;"/><path class="xgrid crisp" transform="translate(267.5,0)" d="M0,100v419" style="stroke: rgb(211, 211, 211); stroke-opacity: 1; stroke-width: 1px;"/><path class="xgrid crisp" transform="translate(296.77,0)" d="M0,100v419" style="stroke: rgb(211, 211, 211); stroke-opacity: 1; stroke-width: 1px;"/><path class="xgrid crisp" transform="translate(326.05,0)" d="M0,100v419" style="stroke: rgb(211, 211, 211); stroke-opacity: 1; stroke-width: 1px;"/><path class="xgrid crisp" transform="translate(355.32,0)" d="M0,100v419" style="stroke: rgb(211, 211, 211); stroke-opacity: 1; stroke-width: 1px;"/><path class="xgrid crisp" transform="translate(384.6,0)" d="M0,100v419" style="stroke: rgb(211, 211, 211); stroke-opacity: 1; stroke-width: 1px;"/><path class="xgrid crisp" transform="translate(413.87,0)" d="M0,100v419" style="stroke: rgb(211, 211, 211); stroke-opacity: 1; stroke-width: 1px;"/><path class="xgrid crisp" transform="translate(443.14,0)" d="M0,100v419" style="stroke: rgb(211, 211, 211); stroke-opacity: 1; stroke-width: 1px;"/><path class="xgrid crisp" transform="translate(472.42,0)" d="M0,100v419" style="stroke: rgb(211, 211, 211); stroke-opacity: 1; stroke-width: 1px;"/><path class="xgrid crisp" transform="translate(501.69,0)" d="M0,100v419" style="stroke: rgb(211, 211, 211); stroke-opacity: 1; stroke-width: 1px;"/><path class="xgrid crisp" transform="translate(530.97,0)" d="M0,100v419" style="stroke: rgb(211, 211, 211); stroke-opacity: 1; stroke-width: 1px;"/><path class="xgrid crisp" transform="translate(560.24,0)" d="M0,100v419" style="stroke: rgb(211, 211, 211); stroke-opacity: 1; stroke-width: 1px;"/><path class="xgrid crisp" transform="translate(589.52,0)" d="M0,100v419" style="stroke: rgb(211, 211, 211); stroke-opacity: 1; stroke-width: 1px;"/><path class="xgrid crisp" transform="translate(618.79,0)" d="M0,100v419" style="stroke: rgb(211, 211, 211); stroke-opacity: 1; stroke-width: 1px;"/><path class="xgrid crisp" transform="translate(648.06,0)" d="M0,100v419" style="stroke: rgb(211, 211, 211); stroke-opacity: 1; stroke-width: 1px;"/><path class="xgrid crisp" transform="translate(677.34,0)" d="M0,100v419" style="stroke: rgb(211, 211, 211); stroke-opacity: 1; stroke-width: 1px;"/><path class="xgrid crisp" transform="translate(706.61,0)" d="M0,100v419" style="stroke: rgb(211, 211, 211); stroke-opacity: 1; stroke-width: 1px;"/><path class="xgrid crisp" transform="translate(735.89,0)" d="M0,100v419" style="stroke: rgb(211, 211, 211); stroke-opacity: 1; stroke-width: 1px;"/><path class="xgrid crisp" transform="translate(765.16,0)" d="M0,100v419" style="stroke: rgb(211, 211, 211); stroke-opacity: 1; stroke-width: 1px;"/><path class="xgrid crisp" transform="translate(794.44,0)" d="M0,100v419" style="stroke: rgb(211, 211, 211); stroke-opacity: 1; stroke-width: 1px;"/><path class="xgrid crisp" transform="translate(823.71,0)" d="M0,100v419" style="stroke: rgb(211, 211, 211); stroke-opacity: 1; stroke-width: 1px;"/><path class="xgrid crisp" transform="translate(852.98,0)" d="M0,100v419" style="stroke: rgb(211, 211, 211); stroke-opacity: 1; stroke-width: 1px;"/><path class="xgrid crisp" transform="translate(882.26,0)" d="M0,100v419" style="stroke: rgb(211, 211, 211); stroke-opacity: 1; stroke-width: 1px;"/><path class="xgrid crisp" transform="translate(911.53,0)" d="M0,100v419" style="stroke: rgb(211, 211, 211); stroke-opacity: 1; stroke-width: 1px;"/><path class="xgrid crisp" transform="translate(940.81,0)" d="M0,100v419" style="stroke: rgb(211, 211, 211); stroke-opacity: 1; stroke-width: 1px;"/><path class="xgrid crisp" transform="translate(970.08,0)" d="M0,100v419" style="stroke: rgb(211, 211, 211); stroke-opacity: 1; stroke-width: 1px;"/><path class="xgrid crisp" transform="translate(999.36,0)" d="M0,100v419" style="stroke: rgb(211, 211, 211); stroke-opacity: 1; stroke-width: 1px;"/><path class="xgrid crisp" transform="translate(1028.63,0)" d="M0,100v419" style="stroke: rgb(211, 211, 211); stroke-opacity: 1; stroke-width: 1px;"/><path class="xgrid crisp" transform="translate(1057.9,0)" d="M0,100v419" style="stroke: rgb(211, 211, 211); stroke-opacity: 1; stroke-width: 1px;"/><path class="xgrid crisp" transform="translate(1087.1799999999998,0)" d="M0,100v419" style="stroke: rgb(211, 211, 211); stroke-opacity: 1; stroke-width: 1px;"/><path class="xgrid crisp" transform="translate(1116.45,0)" d="M0,100v419" style="stroke: rgb(211, 211, 211); stroke-opacity: 1; stroke-width: 1px;"/><path class="xgrid crisp" transform="translate(1145.73,0)" d="M0,100v419" style="stroke: rgb(211, 211, 211); stroke-opacity: 1; stroke-width: 1px;"/><path class="xgrid crisp" transform="translate(1175,0)" d="M0,100v419" style="stroke: rgb(211, 211, 211); stroke-opacity: 1; stroke-width: 1px;"/><path class="xgrid crisp" transform="translate(1204.28,0)" d="M0,100v419" style="stroke: rgb(211, 211, 211); stroke-opacity: 1; stroke-width: 1px;"/><path class="xgrid crisp" transform="translate(1233.55,0)" d="M0,100v419" style="stroke: rgb(211, 211, 211); stroke-opacity: 1; stroke-width: 1px;"/><path class="xgrid crisp" transform="translate(1262.83,0)" d="M0,100v419" style="stroke: rgb(211, 211, 211); stroke-opacity: 1; stroke-width: 1px;"/><path class="xgrid crisp" transform="translate(1292.1,0)" d="M0,100v419" style="stroke: rgb(211, 211, 211); stroke-opacity: 1; stroke-width: 1px;"/><path class="xgrid crisp" transform="translate(1321.37,0)" d="M0,100v419" style="stroke: rgb(211, 211, 211); stroke-opacity: 1; stroke-width: 1px;"/><path class="xgrid crisp" transform="translate(1350.65,0)" d="M0,100v419" style="stroke: rgb(211, 211, 211); stroke-opacity: 1; stroke-width: 1px;"/><path class="xgrid crisp" transform="translate(1379.92,0)" d="M0,100v419" style="stroke: rgb(211, 211, 211); stroke-opacity: 1; stroke-width: 1px;"/><path class="xgrid crisp" transform="translate(1409.2,0)" d="M0,100v419" style="stroke: rgb(211, 211, 211); stroke-opacity: 1; stroke-width: 1px;"/><path class="xgrid crisp" transform="translate(1438.47,0)" d="M0,100v419" style="stroke: rgb(211, 211, 211); stroke-opacity: 1; stroke-width: 1px;"/><path class="xgrid crisp" transform="translate(1467.75,0)" d="M0,100v419" style="stroke: rgb(211, 211, 211); stroke-opacity: 1; stroke-width: 1px;"/></g><g class="y"><path class="ygrid crisp" transform="translate(0,511.57)" d="M104,0h1389" style="stroke: rgb(211, 211, 211); stroke-opacity: 1; stroke-width: 1px;"/><path class="ygrid crisp" transform="translate(0,498.05)" d="M104,0h1389" style="stroke: rgb(211, 211, 211); stroke-opacity: 1; stroke-width: 1px;"/><path class="ygrid crisp" transform="translate(0,484.53)" d="M104,0h1389" style="stroke: rgb(211, 211, 211); stroke-opacity: 1; stroke-width: 1px;"/><path class="ygrid crisp" transform="translate(0,471.02)" d="M104,0h1389" style="stroke: rgb(211, 211, 211); stroke-opacity: 1; stroke-width: 1px;"/><path class="ygrid crisp" transform="translate(0,457.5)" d="M104,0h1389" style="stroke: rgb(211, 211, 211); stroke-opacity: 1; stroke-width: 1px;"/><path class="ygrid crisp" transform="translate(0,443.99)" d="M104,0h1389" style="stroke: rgb(211, 211, 211); stroke-opacity: 1; stroke-width: 1px;"/><path class="ygrid crisp" transform="translate(0,430.47)" d="M104,0h1389" style="stroke: rgb(211, 211, 211); stroke-opacity: 1; stroke-width: 1px;"/><path class="ygrid crisp" transform="translate(0,416.95)" d="M104,0h1389" style="stroke: rgb(211, 211, 211); stroke-opacity: 1; stroke-width: 1px;"/><path class="ygrid crisp" transform="translate(0,403.44)" d="M104,0h1389" style="stroke: rgb(211, 211, 211); stroke-opacity: 1; stroke-width: 1px;"/><path class="ygrid crisp" transform="translate(0,389.92)" d="M104,0h1389" style="stroke: rgb(211, 211, 211); stroke-opacity: 1; stroke-width: 1px;"/><path class="ygrid crisp" transform="translate(0,376.4)" d="M104,0h1389" style="stroke: rgb(211, 211, 211); stroke-opacity: 1; stroke-width: 1px;"/><path class="ygrid crisp" transform="translate(0,362.89)" d="M104,0h1389" style="stroke: rgb(211, 211, 211); stroke-opacity: 1; stroke-width: 1px;"/><path class="ygrid crisp" transform="translate(0,349.37)" d="M104,0h1389" style="stroke: rgb(211, 211, 211); stroke-opacity: 1; stroke-width: 1px;"/><path class="ygrid crisp" transform="translate(0,335.86)" d="M104,0h1389" style="stroke: rgb(211, 211, 211); stroke-opacity: 1; stroke-width: 1px;"/><path class="ygrid crisp" transform="translate(0,322.34000000000003)" d="M104,0h1389" style="stroke: rgb(211, 211, 211); stroke-opacity: 1; stroke-width: 1px;"/><path class="ygrid crisp" transform="translate(0,308.82)" d="M104,0h1389" style="stroke: rgb(211, 211, 211); stroke-opacity: 1; stroke-width: 1px;"/><path class="ygrid crisp" transform="translate(0,295.31)" d="M104,0h1389" style="stroke: rgb(211, 211, 211); stroke-opacity: 1; stroke-width: 1px;"/><path class="ygrid crisp" transform="translate(0,281.78999999999996)" d="M104,0h1389" style="stroke: rgb(211, 211, 211); stroke-opacity: 1; stroke-width: 1px;"/><path class="ygrid crisp" transform="translate(0,268.28)" d="M104,0h1389" style="stroke: rgb(211, 211, 211); stroke-opacity: 1; stroke-width: 1px;"/><path class="ygrid crisp" transform="translate(0,254.76)" d="M104,0h1389" style="stroke: rgb(211, 211, 211); stroke-opacity: 1; stroke-width: 1px;"/><path class="ygrid crisp" transform="translate(0,241.24)" d="M104,0h1389" style="stroke: rgb(211, 211, 211); stroke-opacity: 1; stroke-width: 1px;"/><path class="ygrid crisp" transform="translate(0,227.73000000000002)" d="M104,0h1389" style="stroke: rgb(211, 211, 211); stroke-opacity: 1; stroke-width: 1px;"/><path class="ygrid crisp" transform="translate(0,214.20999999999998)" d="M104,0h1389" style="stroke: rgb(211, 211, 211); stroke-opacity: 1; stroke-width: 1px;"/><path class="ygrid crisp" transform="translate(0,200.7)" d="M104,0h1389" style="stroke: rgb(211, 211, 211); stroke-opacity: 1; stroke-width: 1px;"/><path class="ygrid crisp" transform="translate(0,187.18)" d="M104,0h1389" style="stroke: rgb(211, 211, 211); stroke-opacity: 1; stroke-width: 1px;"/><path class="ygrid crisp" transform="translate(0,173.66)" d="M104,0h1389" style="stroke: rgb(211, 211, 211); stroke-opacity: 1; stroke-width: 1px;"/><path class="ygrid crisp" transform="translate(0,160.15)" d="M104,0h1389" style="stroke: rgb(211, 211, 211); stroke-opacity: 1; stroke-width: 1px;"/><path class="ygrid crisp" transform="translate(0,146.63)" d="M104,0h1389" style="stroke: rgb(211, 211, 211); stroke-opacity: 1; stroke-width: 1px;"/><path class="ygrid crisp" transform="translate(0,133.11)" d="M104,0h1389" style="stroke: rgb(211, 211, 211); stroke-opacity: 1; stroke-width: 1px;"/><path class="ygrid crisp" transform="translate(0,119.6)" d="M104,0h1389" style="stroke: rgb(211, 211, 211); stroke-opacity: 1; stroke-width: 1px;"/><path class="ygrid crisp" transform="translate(0,106.08)" d="M104,0h1389" style="stroke: rgb(211, 211, 211); stroke-opacity: 1; stroke-width: 1px;"/></g></g><g class="gridlayer"><g class="x"><path class="xgrid crisp" transform="translate(208.95,0)" d="M0,100v419" style="stroke: rgb(211, 211, 211); stroke-opacity: 1; stroke-width: 1px;"/><path class="xgrid crisp" transform="translate(355.32,0)" d="M0,100v419" style="stroke: rgb(211, 211, 211); stroke-opacity: 1; stroke-width: 1px;"/><path class="xgrid crisp" transform="translate(501.69,0)" d="M0,100v419" style="stroke: rgb(211, 211, 211); stroke-opacity: 1; stroke-width: 1px;"/><path class="xgrid crisp" transform="translate(648.06,0)" d="M0,100v419" style="stroke: rgb(211, 211, 211); stroke-opacity: 1; stroke-width: 1px;"/><path class="xgrid crisp" transform="translate(794.44,0)" d="M0,100v419" style="stroke: rgb(211, 211, 211); stroke-opacity: 1; stroke-width: 1px;"/><path class="xgrid crisp" transform="translate(940.81,0)" d="M0,100v419" style="stroke: rgb(211, 211, 211); stroke-opacity: 1; stroke-width: 1px;"/><path class="xgrid crisp" transform="translate(1087.1799999999998,0)" d="M0,100v419" style="stroke: rgb(211, 211, 211); stroke-opacity: 1; stroke-width: 1px;"/><path class="xgrid crisp" transform="translate(1233.55,0)" d="M0,100v419" style="stroke: rgb(211, 211, 211); stroke-opacity: 1; stroke-width: 1px;"/><path class="xgrid crisp" transform="translate(1379.92,0)" d="M0,100v419" style="stroke: rgb(211, 211, 211); stroke-opacity: 1; stroke-width: 1px;"/></g><g class="y"><path class="ygrid crisp" transform="translate(0,457.5)" d="M104,0h1389" style="stroke: rgb(211, 211, 211); stroke-opacity: 1; stroke-width: 1px;"/><path class="ygrid crisp" transform="translate(0,389.92)" d="M104,0h1389" style="stroke: rgb(211, 211, 211); stroke-opacity: 1; stroke-width: 1px;"/><path class="ygrid crisp" transform="translate(0,254.76)" d="M104,0h1389" style="stroke: rgb(211, 211, 211); stroke-opacity: 1; stroke-width: 1px;"/><path class="ygrid crisp" transform="translate(0,187.18)" d="M104,0h1389" style="stroke: rgb(211, 211, 211); stroke-opacity: 1; stroke-width: 1px;"/><path class="ygrid crisp" transform="translate(0,119.6)" d="M104,0h1389" style="stroke: rgb(211, 211, 211); stroke-opacity: 1; stroke-width: 1px;"/></g></g><g class="zerolinelayer"><path class="yzl zl crisp" transform="translate(0,322.34000000000003)" d="M104,0h1389" style="stroke: rgb(169, 169, 169); stroke-opacity: 1; stroke-width: 2px;"/></g><g class="layer-between"><g class="shapelayer"/><g class="imagelayer"/></g><path class="xlines-below"/><path class="ylines-below"/><g class="overlines-below"/><g class="xaxislayer-below"/><g class="yaxislayer-below"/><g class="overaxes-below"/><g class="overplot"><g class="xy" transform="translate(104,100)" clip-path="url(#clip1a0897xyplot)"><g class="scatterlayer mlayer"><g class="trace scatter trace8127f5" style="stroke-miterlimit: 2; opacity: 1;"><g class="fills"/><g class="errorbars"/><g class="lines"><path class="js-line" d="M0,72.31L2.4,79.07L3.2,80.42L12.8,96.64L13.6,96.64L16.8,100.7L17.6,100.7L19.2,102.05L20,102.05L21.61,103.4L22.41,103.4L24.01,104.75L24.82,104.75L26.42,104.75L27.22,106.1L36.85,106.1L37.65,104.75L40.86,104.75L41.66,103.4L44.07,103.4L44.87,102.05L52.89,102.05L53.69,103.4L55.29,103.4L56.1,104.75L59.3,108.8L60.11,108.8L76.95,138.54L77.75,141.24L83.36,152.06L84.17,154.76L86.57,160.17L87.38,162.87L89.78,168.28L90.58,170.98L97.8,196.66L98.6,200.71L114.62,279.11L115.42,281.81L118.62,291.27L119.42,292.62L120.22,295.33L121.02,295.33L123.42,298.03L124.22,298.03L127.42,298.03L128.22,296.68L133.01,289.92L133.81,289.92L140.23,280.46L141.03,280.46L142.64,279.11L143.44,279.11L145.04,277.76L145.84,277.76L149.05,277.76L149.85,279.11L151.46,279.11L152.26,280.46L156.27,285.87L157.07,285.87L158.68,289.92L159.48,291.27L163.49,299.38L164.29,302.09L167.5,308.84L168.3,311.55L179.53,330.47L180.33,330.47L183.54,334.52L184.34,334.52L185.14,334.52L185.95,335.88L186.75,335.88L187.55,337.23L188.35,337.23L189.15,338.58L191.56,341.28L192.36,341.28L196.37,346.69L197.17,346.69L201.18,352.1L201.99,352.1L206,357.5L206.8,357.5L210.01,361.56L210.81,361.56L213.21,364.26L214.02,364.26L216.42,366.96L217.22,366.96L218.83,368.31L219.63,368.31L221.23,369.67L222.04,369.67L223.64,371.02L224.44,371.02L227.64,371.02L228.44,372.37L230.84,372.37L231.64,371.02L246.83,371.02L247.63,372.37L251.63,372.37L252.43,373.72L274.09,373.72L274.89,375.07L281.31,375.07L282.11,376.42L301.36,376.42L302.16,377.78L304.57,377.78L305.37,379.13L307.77,379.13L308.58,380.48L319,380.48L319.81,379.13L321.41,379.13L322.21,377.78L323.01,377.78L323.82,376.42L325.42,376.42L326.22,375.07L327.83,375.07L328.63,373.72L330.23,373.72L331.03,372.37L332.64,372.37L333.44,371.02L335.04,371.02L335.85,369.67L337.45,369.67L338.25,368.31L339.05,368.31L339.85,366.96L340.65,366.96L341.45,365.61L348.65,353.45L349.45,350.74L351.05,346.69L351.85,343.99L353.45,339.93L354.25,337.23L371.06,281.81L371.86,280.46L374.26,273.7L375.07,272.35L376.67,268.3L377.47,266.94L391.11,242.61L391.91,239.91L395.12,233.15L395.92,230.45L397.52,226.4L398.32,223.69L399.93,219.64L400.73,216.93L407.15,196.66L407.95,195.31L410.36,188.55L411.16,187.2L412.76,183.14L413.56,181.79L421.58,169.63L422.39,169.63L424.79,166.92L425.59,166.92L436.82,149.35L437.62,146.65L441.63,138.54L442.44,135.84L444.84,130.43L445.64,127.73L448.05,122.32L448.85,119.62L451.26,114.21L452.06,111.51L455.27,104.75L456.07,102.05L463.27,91.23L464.07,91.23L465.67,89.88L466.47,89.88L468.87,89.88L469.67,91.23L471.27,91.23L472.07,92.59L472.87,92.59L473.67,93.94L482.47,107.45L483.27,107.45L488.87,115.56L489.68,115.56L492.08,118.27L492.88,118.27L494.49,119.62L495.29,119.62L496.89,120.97L497.7,120.97L499.3,120.97L500.1,122.32L504.11,122.32L504.92,120.97L508.12,120.97L508.93,119.62L511.33,119.62L512.13,118.27L513.74,118.27L514.54,116.91L516.14,116.91L516.95,115.56L518.55,115.56L519.35,114.21L521.76,114.21L522.56,112.86L524.97,112.86L525.77,111.51L528.98,111.51L529.78,110.16L531.38,110.16L532.18,108.8L534.59,108.8L535.39,107.45L536.19,107.45L537,106.1L538.6,106.1L539.4,104.75L540.2,104.75L541.01,103.4L542.61,103.4L543.41,102.05L544.22,102.05L545.02,100.7L546.62,100.7L547.42,99.34L549.03,99.34L549.83,97.99L552.24,97.99L553.04,96.64L555.44,96.64L556.25,95.29L559.45,95.29L560.26,93.94L562.66,93.94L563.46,92.59L565.87,92.59L566.67,91.23L568.28,91.23L569.08,89.88L570.68,89.88L571.48,88.53L573.89,88.53L574.69,87.18L578.69,87.18L579.49,85.83L588.29,85.83L589.09,87.18L606.69,87.18L607.5,88.53L610.7,88.53L611.51,89.88L613.11,89.88L613.91,91.23L616.32,91.23L617.12,92.59L619.53,92.59L620.33,93.94L639.58,93.94L640.38,95.29L642.79,95.29L643.59,96.64L645.19,96.64L645.99,97.99L646.8,97.99L647.6,99.34L648.4,99.34L649.2,100.7L653.21,106.1L654.01,106.1L659.63,116.91L660.43,118.27L662.84,125.02L663.64,126.38L678.07,173.68L678.88,175.03L682.09,184.5L682.89,185.85L684.49,189.9L685.29,191.25L690.91,202.07L691.71,203.42L701.3,220.99L702.1,223.69L703.7,227.75L704.5,230.45L706.1,234.5L706.9,237.21L716.5,271L717.3,275.05L722.91,292.62L723.71,293.98L725.31,298.03L726.12,299.38L728.52,302.09L729.33,302.09L732.53,302.09L733.34,300.73L734.14,300.73L734.94,299.38L741.36,287.22L742.16,284.51L749.38,273.7L750.18,273.7L751.78,272.35L752.58,272.35L754.99,272.35L755.79,273.7L756.59,273.7L757.4,275.05L761.41,280.46L762.21,280.46L772.63,296.68L773.44,296.68L776.65,300.73L777.45,300.73L779.85,303.44L780.66,303.44L782.26,304.79L783.06,304.79L784.67,306.14L785.47,306.14L792.69,306.14L793.49,304.79L795.89,304.79L796.7,303.44L799.1,303.44L799.9,302.09L802.31,302.09L803.11,300.73L805.52,300.73L806.32,299.38L814.32,299.38L815.12,298.03L821.52,298.03L822.32,299.38L823.92,299.38L824.72,298.03L833.52,298.03L834.32,296.68L836.72,296.68L837.52,295.33L839.12,295.33L839.93,293.98L841.53,293.98L842.33,292.62L843.13,292.62L843.94,291.27L844.74,291.27L845.54,289.92L846.34,289.92L847.14,288.57L848.75,288.57L849.55,287.22L850.35,287.22L851.15,285.87L853.56,285.87L854.36,284.51L857.57,284.51L858.37,285.87L860.78,285.87L861.58,287.22L862.38,287.22L863.18,288.57L863.99,288.57L864.79,289.92L865.59,289.92L866.39,291.27L868.8,293.98L869.6,293.98L872.81,298.03L873.61,298.03L876.82,302.09L877.62,302.09L879.23,303.44L880.03,303.44L882.43,306.14L883.24,306.14L884.84,306.14L885.64,307.49L888.85,307.49L889.65,308.84L897.67,308.84L898.47,307.49L900.88,307.49L901.68,306.14L904.09,306.14L904.89,304.79L905.69,304.79L906.49,303.44L908.1,303.44L908.9,302.09L910.51,302.09L911.31,300.73L913.71,300.73L914.52,299.38L917.72,299.38L918.53,298.03L932.14,298.03L932.94,296.68L938.54,296.68L939.34,295.33L942.54,295.33L943.34,293.98L946.54,293.98L947.34,292.62L950.54,292.62L951.34,291.27L953.74,291.27L954.54,289.92L956.14,289.92L956.94,288.57L959.35,288.57L960.15,287.22L961.76,287.22L962.56,285.87L964.96,285.87L965.77,284.51L968.17,284.51L968.97,283.16L980.2,283.16L981,284.51L983.41,284.51L984.21,283.16L988.22,283.16L989.02,281.81L990.63,281.81L991.43,280.46L992.23,280.46L993.03,279.11L993.84,279.11L994.64,277.76L999.45,271L1000.25,271L1009.88,256.13L1010.68,256.13L1015.49,249.37L1016.29,249.37L1018.7,246.67L1019.5,246.67L1021.91,243.97L1022.71,243.97L1024.31,243.97L1025.12,242.61L1027.52,242.61L1028.32,241.26L1033.94,241.26L1034.74,239.91L1037.15,239.91L1037.95,238.56L1039.55,238.56L1040.35,237.21L1041.96,237.21L1042.76,235.86L1043.56,235.86L1044.36,234.5L1047.56,230.45L1048.36,230.45L1053.16,223.69L1053.96,223.69L1058.75,216.93L1059.55,216.93L1061.95,214.23L1062.75,214.23L1065.15,211.53L1065.95,211.53L1067.55,210.18L1068.35,210.18L1069.95,208.82L1070.75,208.82L1072.36,207.47L1073.16,207.47L1073.96,207.47L1074.76,206.12L1084.39,206.12L1085.19,207.47L1086.79,207.47L1087.59,208.82L1089.2,208.82L1090,210.18L1090.8,210.18L1091.6,211.53L1092.41,211.53L1093.21,212.88L1095.62,215.58L1096.42,215.58L1099.63,219.64L1100.43,219.64L1102.83,222.34L1103.64,222.34L1105.24,223.69L1106.04,223.69L1106.84,223.69L1107.65,225.04L1114.06,225.04L1114.86,223.69L1118.07,223.69L1118.87,222.34L1119.68,222.34L1120.48,220.99L1122.08,220.99L1122.88,219.64L1123.69,219.64L1124.49,218.29L1125.29,218.29L1126.09,216.93L1126.89,216.93L1127.7,215.58L1128.5,215.58L1129.3,214.23L1130.1,214.23L1130.9,212.88L1131.71,212.88L1132.51,211.53L1133.31,211.53L1134.11,210.18L1134.91,210.18L1135.72,208.82L1137.32,208.82L1138.12,207.47L1138.93,207.47L1139.73,206.12L1140.53,206.12L1141.33,204.77L1142.94,204.77L1143.74,203.42L1144.54,203.42L1145.34,202.07L1146.95,202.07L1147.75,200.71L1148.55,200.71L1149.35,199.36L1150.15,199.36L1150.96,198.01L1151.76,198.01L1152.56,196.66L1153.36,196.66L1154.16,195.31L1154.97,195.31L1155.77,193.96L1156.57,193.96L1157.37,192.6L1158.17,192.6L1158.98,191.25L1159.78,191.25L1160.58,189.9L1161.38,189.9L1162.17,188.55L1162.97,188.55L1163.77,187.2L1164.57,187.2L1165.37,185.85L1166.17,185.85L1166.97,184.5L1167.77,184.5L1168.57,183.14L1169.37,183.14L1170.17,181.79L1170.97,181.79L1171.77,180.44L1173.37,180.44L1174.17,179.09L1174.97,179.09L1175.77,177.74L1176.57,177.74L1177.37,176.39L1178.17,176.39L1178.97,175.03L1179.77,175.03L1180.57,173.68L1182.97,170.98L1183.77,170.98L1187.77,165.57L1188.57,165.57L1193.38,158.81L1194.19,158.81L1197.39,154.76L1198.2,154.76L1200.6,152.06L1201.4,152.06L1203.01,150.7L1203.81,150.7L1205.41,149.35L1206.22,149.35L1207.82,148L1208.62,148L1210.23,146.65L1211.03,146.65L1211.83,146.65L1212.63,145.3L1215.84,145.3L1216.64,143.95L1219.05,143.95L1219.85,142.6L1223.06,142.6L1223.86,141.24L1227.07,141.24L1227.87,139.89L1231.08,139.89L1231.88,138.54L1235.09,138.54L1235.89,137.19L1237.5,137.19L1238.3,135.84L1239.9,135.84L1240.7,134.49L1242.31,134.49L1243.11,133.13L1244.71,133.13L1245.52,131.78L1246.32,131.78L1247.12,130.43L1247.92,130.43L1248.72,129.08L1250.33,129.08L1251.13,127.73L1251.93,127.73L1252.73,126.38L1254.34,126.38L1255.14,125.02L1256.74,125.02L1257.55,123.67L1260.75,123.67L1261.56,122.32L1271.98,122.32L1272.78,123.67L1275.19,123.67L1275.99,125.02L1278.39,126.38L1279.19,127.73L1279.99,127.73L1280.79,129.08L1281.59,129.08L1282.39,130.43L1284.79,133.13L1285.59,133.13L1289.59,138.54L1290.39,138.54L1292.79,141.24L1293.59,141.24L1295.99,143.95L1296.79,143.95L1297.59,143.95L1298.39,145.3L1302.39,145.3L1303.19,146.65L1311.2,146.65L1312,148L1316.01,148L1316.82,149.35L1320.83,149.35L1321.63,150.7L1325.64,150.7L1326.44,152.06L1335.26,152.06L1336.07,153.41L1338.47,153.41L1339.27,154.76L1340.88,154.76L1341.68,156.11L1342.48,156.11L1343.28,157.46L1344.09,157.46L1344.89,158.81L1351.3,170.98L1352.11,173.68L1359.32,196.66L1360.13,198.01L1363.33,207.47L1364.14,208.82L1365.74,212.88L1366.54,214.23L1372.96,223.69L1373.76,223.69L1375.37,223.69L1376.17,225.04L1379.38,225.04L1380.18,223.69L1382.58,223.69L1383.39,222.34L1384.19,222.34L1384.99,220.99L1385.79,220.99L1386.59,219.64L1389,216.93" style="vector-effect: none; fill: none; stroke: rgb(0, 0, 0); stroke-opacity: 1; stroke-width: 2px; opacity: 1;"/></g><g class="points"/><g class="text"/></g><g class="trace scatter trace8ce3d9" style="stroke-miterlimit: 2; opacity: 1;"><g class="fills"/><g class="errorbars"/><g class="lines"><path class="js-line" d="M0,346.69L0.8,346.69L1.6,348.04L3.2,348.04L4,349.39L4.8,349.39L5.6,350.74L7.2,350.74L8,352.1L9.6,352.1L10.4,353.45L12,353.45L12.8,354.8L16,354.8L16.8,356.15L19.2,356.15L20,357.5L22.41,357.5L23.21,358.85L24.82,358.85L25.62,360.2L26.42,360.2L27.22,361.56L28.02,361.56L28.83,362.91L29.63,362.91L30.43,364.26L32.84,366.96L33.64,366.96L36.85,371.02L37.65,371.02L39.25,372.37L40.05,372.37L41.66,373.72L42.46,373.72L44.87,373.72L45.67,372.37L47.27,372.37L48.08,371.02L48.88,371.02L49.68,369.67L58.5,354.8L59.3,352.1L62.51,345.34L63.31,342.63L66.52,335.88L67.32,333.17L69.73,327.77L70.53,325.06L72.94,319.66L73.74,316.95L76.95,310.2L77.75,307.49L82.56,298.03L83.36,295.33L88.98,284.51L89.78,283.16L91.39,279.11L92.19,277.76L95.4,271L96.2,268.3L98.6,262.89L99.41,260.19L101.81,254.78L102.61,252.08L105.02,246.67L105.82,243.97L108.22,238.56L109.02,235.86L111.42,230.45L112.22,227.75L123.42,189.9L124.22,185.85L128.22,170.98L129.02,166.92L135.42,146.65L136.22,145.3L137.82,141.24L138.63,139.89L142.64,134.49L143.44,134.49L148.25,134.49L149.05,135.84L149.85,135.84L150.66,137.19L154.67,142.6L155.47,142.6L162.69,153.41L163.49,153.41L166.7,157.46L167.5,157.46L169.1,158.81L169.9,158.81L171.51,160.17L172.31,160.17L173.91,160.17L174.72,158.81L176.32,158.81L177.12,157.46L177.92,157.46L178.73,156.11L179.53,156.11L180.33,154.76L198.78,123.67L199.58,120.97L205.19,110.16L206,107.45L209.2,100.7L210.01,97.99L213.21,91.23L214.02,88.53L218.83,79.07L219.63,76.37L237.23,45.28L238.03,42.58L247.63,27.71L248.43,27.71L250.83,25L251.63,25L254.04,22.3L254.84,22.3L257.25,22.3L258.05,20.95L269.28,20.95L270.08,22.3L273.29,22.3L274.09,23.65L276.5,23.65L277.3,25L279.7,25L280.51,26.36L282.91,26.36L283.71,27.71L286.92,27.71L287.72,29.06L295.74,29.06L296.55,30.41L299.75,30.41L300.56,31.76L302.16,31.76L302.96,33.11L303.76,33.11L304.57,34.47L305.37,34.47L306.17,35.82L306.97,35.82L307.77,37.17L311.78,42.58L312.59,42.58L318.2,50.69L319,50.69L334.24,75.01L335.04,77.72L339.85,85.83L340.65,88.53L352.65,107.45L353.45,107.45L367.05,130.43L367.85,133.13L371.06,139.89L371.86,142.6L374.26,148L375.07,150.7L389.5,198.01L390.3,199.36L393.51,208.82L394.31,210.18L395.92,214.23L396.72,215.58L399.13,218.29L399.93,218.29L400.73,218.29L401.53,219.64L402.33,219.64L403.14,218.29L404.74,218.29L405.54,216.93L416.77,199.36L417.57,199.36L419.98,196.66L420.78,196.66L423.19,196.66L423.99,198.01L424.79,198.01L425.59,199.36L430.41,208.82L431.21,211.53L435.22,226.4L436.02,230.45L437.62,237.21L438.43,241.26L452.06,307.49L452.86,310.2L465.67,352.1L466.47,353.45L471.27,368.31L472.07,369.67L475.27,379.13L476.07,380.48L477.67,384.53L478.47,385.89L480.07,389.94L480.87,391.29L484.87,396.7L485.67,396.7L487.27,398.05L488.07,398.05L491.28,398.05L492.08,396.7L493.69,396.7L494.49,395.35L495.29,395.35L496.09,394L497.7,394L498.5,392.64L499.3,392.64L500.1,391.29L500.91,391.29L501.71,389.94L504.11,389.94L504.92,388.59L516.95,388.59L517.75,389.94L522.56,389.94L523.36,391.29L529.78,391.29L530.58,389.94L533.79,389.94L534.59,388.59L536.19,388.59L537,387.24L538.6,387.24L539.4,385.89L540.2,385.89L541.01,384.53L541.81,384.53L542.61,383.18L543.41,383.18L544.22,381.83L545.02,381.83L545.82,380.48L546.62,380.48L547.42,379.13L549.83,376.42L550.63,376.42L553.04,373.72L553.84,373.72L556.25,371.02L557.05,371.02L561.06,365.61L561.86,365.61L569.08,354.8L569.88,354.8L577.89,342.63L578.69,342.63L581.09,339.93L581.89,339.93L582.69,339.93L583.49,338.58L586.69,338.58L587.49,337.23L601.88,337.23L602.68,335.88L606.69,335.88L607.5,334.52L609.1,334.52L609.9,333.17L611.51,333.17L612.31,331.82L613.11,331.82L613.91,330.47L614.71,330.47L615.52,329.12L630.75,303.44L631.56,300.73L638.78,289.92L639.58,289.92L641.98,287.22L642.79,287.22L644.39,287.22L645.19,285.87L647.6,285.87L648.4,284.51L651.61,284.51L652.41,283.16L654.01,283.16L654.82,281.81L655.62,281.81L656.42,280.46L657.22,280.46L658.02,279.11L665.24,268.3L666.04,265.59L671.66,254.78L672.46,252.08L675.67,245.32L676.47,242.61L679.68,235.86L680.48,233.15L683.69,226.4L684.49,223.69L695.71,204.77L696.51,204.77L698.1,203.42L698.9,203.42L700.5,202.07L701.3,202.07L705.3,202.07L706.1,203.42L708.5,203.42L709.3,204.77L711.7,204.77L712.5,206.12L716.5,206.12L717.3,207.47L718.1,207.47L718.9,206.12L722.11,206.12L722.91,204.77L723.71,204.77L724.51,203.42L725.31,203.42L726.12,202.07L732.53,189.9L733.34,187.2L738.15,172.33L738.95,170.98L742.96,158.81L743.76,157.46L749.38,149.35L750.18,149.35L750.98,148L751.78,149.35L753.39,149.35L754.19,150.7L754.99,150.7L755.79,152.06L771.83,179.09L772.63,179.09L774.24,180.44L775.04,180.44L776.65,180.44L777.45,179.09L779.05,179.09L779.85,177.74L786.27,166.92L787.07,165.57L789.48,158.81L790.28,157.46L793.49,148L794.29,146.65L796.7,139.89L797.5,138.54L799.1,134.49L799.9,133.13L805.52,125.02L806.32,125.02L807.92,123.67L808.72,123.67L811.12,123.67L811.92,125.02L813.52,125.02L814.32,126.38L817.52,130.43L818.32,130.43L824.72,139.89L825.52,139.89L829.52,145.3L830.32,145.3L832.72,148L833.52,148L835.12,149.35L835.92,149.35L836.72,149.35L837.52,150.7L842.33,150.7L843.13,149.35L845.54,149.35L846.34,148L848.75,148L849.55,146.65L851.15,146.65L851.96,145.3L853.56,145.3L854.36,143.95L865.59,143.95L866.39,145.3L871.21,145.3L872.01,146.65L876.82,146.65L877.62,145.3L883.24,145.3L884.04,143.95L898.47,143.95L899.28,145.3L902.48,145.3L903.29,146.65L905.69,146.65L906.49,148L908.1,148L908.9,149.35L911.31,149.35L912.11,150.7L913.71,150.7L914.52,152.06L916.12,152.06L916.92,153.41L920.93,153.41L921.73,154.76L924.94,154.76L925.74,153.41L929.74,153.41L930.54,152.06L932.14,152.06L932.94,150.7L934.54,150.7L935.34,149.35L936.14,149.35L936.94,148L938.54,148L939.34,146.65L941.74,146.65L942.54,145.3L951.34,145.3L952.14,146.65L955.34,146.65L956.14,148L958.55,148L959.35,149.35L962.56,149.35L963.36,150.7L970.58,150.7L971.38,152.06L977.8,152.06L978.6,153.41L981.81,153.41L982.61,154.76L985.82,154.76L986.62,156.11L989.02,156.11L989.83,157.46L991.43,157.46L992.23,158.81L993.84,158.81L994.64,160.17L996.24,160.17L997.04,161.52L998.65,161.52L999.45,162.87L1001.05,162.87L1001.86,164.22L1002.66,164.22L1003.46,165.57L1004.26,165.57L1005.07,166.92L1006.67,166.92L1007.47,168.28L1009.08,168.28L1009.88,169.63L1012.28,169.63L1013.09,170.98L1019.5,170.98L1020.3,169.63L1022.71,169.63L1023.51,168.28L1025.12,168.28L1025.92,166.92L1026.72,166.92L1027.52,165.57L1029.13,165.57L1029.93,164.22L1032.33,164.22L1033.14,162.87L1040.35,162.87L1041.16,164.22L1043.56,164.22L1044.36,165.57L1045.96,165.57L1046.76,166.92L1048.36,166.92L1049.16,168.28L1049.96,168.28L1050.76,169.63L1053.16,172.33L1053.96,172.33L1059.55,180.44L1060.35,180.44L1082.78,216.93L1083.58,216.93L1090.8,227.75L1091.6,227.75L1094.81,231.8L1095.62,231.8L1098.82,235.86L1099.63,235.86L1101.23,237.21L1102.03,237.21L1104.44,239.91L1105.24,239.91L1107.65,242.61L1108.45,242.61L1111.66,246.67L1112.46,246.67L1123.69,266.94L1124.49,269.65L1126.89,275.05L1127.7,277.76L1130.1,283.16L1130.9,285.87L1133.31,291.27L1134.11,293.98L1136.52,299.38L1137.32,302.09L1140.53,308.84L1141.33,311.55L1146.14,321.01L1146.95,323.71L1151.76,330.47L1152.56,330.47L1154.97,333.17L1155.77,333.17L1160.58,333.17L1161.38,331.82L1162.97,331.82L1163.77,330.47L1165.37,330.47L1166.17,329.12L1166.97,329.12L1167.77,327.77L1168.57,327.77L1169.37,326.41L1170.17,326.41L1170.97,325.06L1173.37,322.36L1174.17,322.36L1174.97,322.36L1175.77,321.01L1176.57,321.01L1177.37,319.66L1178.97,319.66L1179.77,318.3L1182.17,318.3L1182.97,316.95L1188.57,316.95L1189.37,315.6L1194.19,315.6L1194.99,316.95L1200.6,316.95L1201.4,318.3L1206.22,318.3L1207.02,319.66L1214.24,319.66L1215.04,318.3L1219.05,318.3L1219.85,316.95L1222.26,316.95L1223.06,315.6L1225.46,315.6L1226.27,314.25L1227.87,314.25L1228.67,312.9L1230.28,312.9L1231.08,311.55L1232.68,311.55L1233.49,310.2L1234.29,310.2L1235.09,308.84L1236.69,308.84L1237.5,307.49L1238.3,307.49L1239.1,306.14L1239.9,306.14L1240.7,304.79L1242.31,304.79L1243.11,303.44L1243.91,303.44L1244.71,302.09L1247.12,302.09L1247.92,300.73L1250.33,300.73L1251.13,299.38L1257.55,299.38L1258.35,298.03L1265.57,298.03L1266.37,296.68L1269.58,296.68L1270.38,295.33L1272.78,295.33L1273.59,293.98L1275.99,293.98L1278.39,292.62L1286.39,292.62L1287.19,293.98L1291.19,293.98L1291.99,295.33L1305.59,295.33L1306.39,293.98L1311.2,293.98L1312,292.62L1316.01,292.62L1316.82,291.27L1322.43,291.27L1323.23,289.92L1327.24,289.92L1328.05,288.57L1330.45,288.57L1331.25,287.22L1332.86,287.22L1333.66,285.87L1334.46,285.87L1335.26,284.51L1336.87,284.51L1337.67,283.16L1338.47,283.16L1339.27,281.81L1341.68,279.11L1342.48,279.11L1352.11,262.89L1352.91,260.19L1366.54,237.21L1367.35,237.21L1368.15,235.86L1369.75,235.86L1372.16,233.15L1372.96,233.15L1373.76,233.15L1374.56,231.8L1376.17,231.8L1376.97,230.45L1378.57,230.45L1379.38,229.1L1380.18,229.1L1380.98,227.75L1381.78,227.75L1382.58,226.4L1383.39,226.4L1384.19,225.04L1384.99,225.04L1385.79,223.69L1389,219.64" style="vector-effect: none; fill: none; stroke: rgb(0, 0, 255); stroke-opacity: 1; stroke-width: 2px; opacity: 1;"/></g><g class="points"/><g class="text"/></g></g></g></g><g class="zerolinelayer-above"/><path class="xlines-above crisp" d="M102,520H1495M102,99H1495" style="fill: none; stroke-width: 2px; stroke: rgb(0, 0, 0); stroke-opacity: 1;"/><path class="ylines-above crisp" d="M103,100V519M1494,100V519" style="fill: none; stroke-width: 2px; stroke: rgb(0, 0, 0); stroke-opacity: 1;"/><g class="overlines-above"/><g class="xaxislayer-above"><path class="xtick ticks crisp" d="M0,521v4" transform="translate(121.13,0)" style="stroke: rgb(68, 68, 68); stroke-opacity: 1; stroke-width: 1px;"/><path class="xtick ticks crisp" d="M0,521v4" transform="translate(150.4,0)" style="stroke: rgb(68, 68, 68); stroke-opacity: 1; stroke-width: 1px;"/><path class="xtick ticks crisp" d="M0,521v4" transform="translate(179.67000000000002,0)" style="stroke: rgb(68, 68, 68); stroke-opacity: 1; stroke-width: 1px;"/><path class="xtick ticks crisp" d="M0,521v4" transform="translate(208.95,0)" style="stroke: rgb(68, 68, 68); stroke-opacity: 1; stroke-width: 1px;"/><path class="xtick ticks crisp" d="M0,521v4" transform="translate(238.22,0)" style="stroke: rgb(68, 68, 68); stroke-opacity: 1; stroke-width: 1px;"/><path class="xtick ticks crisp" d="M0,521v4" transform="translate(267.5,0)" style="stroke: rgb(68, 68, 68); stroke-opacity: 1; stroke-width: 1px;"/><path class="xtick ticks crisp" d="M0,521v4" transform="translate(296.77,0)" style="stroke: rgb(68, 68, 68); stroke-opacity: 1; stroke-width: 1px;"/><path class="xtick ticks crisp" d="M0,521v4" transform="translate(326.05,0)" style="stroke: rgb(68, 68, 68); stroke-opacity: 1; stroke-width: 1px;"/><path class="xtick ticks crisp" d="M0,521v4" transform="translate(355.32,0)" style="stroke: rgb(68, 68, 68); stroke-opacity: 1; stroke-width: 1px;"/><path class="xtick ticks crisp" d="M0,521v4" transform="translate(384.6,0)" style="stroke: rgb(68, 68, 68); stroke-opacity: 1; stroke-width: 1px;"/><path class="xtick ticks crisp" d="M0,521v4" transform="translate(413.87,0)" style="stroke: rgb(68, 68, 68); stroke-opacity: 1; stroke-width: 1px;"/><path class="xtick ticks crisp" d="M0,521v4" transform="translate(443.14,0)" style="stroke: rgb(68, 68, 68); stroke-opacity: 1; stroke-width: 1px;"/><path class="xtick ticks crisp" d="M0,521v4" transform="translate(472.42,0)" style="stroke: rgb(68, 68, 68); stroke-opacity: 1; stroke-width: 1px;"/><path class="xtick ticks crisp" d="M0,521v4" transform="translate(501.69,0)" style="stroke: rgb(68, 68, 68); stroke-opacity: 1; stroke-width: 1px;"/><path class="xtick ticks crisp" d="M0,521v4" transform="translate(530.97,0)" style="stroke: rgb(68, 68, 68); stroke-opacity: 1; stroke-width: 1px;"/><path class="xtick ticks crisp" d="M0,521v4" transform="translate(560.24,0)" style="stroke: rgb(68, 68, 68); stroke-opacity: 1; stroke-width: 1px;"/><path class="xtick ticks crisp" d="M0,521v4" transform="translate(589.52,0)" style="stroke: rgb(68, 68, 68); stroke-opacity: 1; stroke-width: 1px;"/><path class="xtick ticks crisp" d="M0,521v4" transform="translate(618.79,0)" style="stroke: rgb(68, 68, 68); stroke-opacity: 1; stroke-width: 1px;"/><path class="xtick ticks crisp" d="M0,521v4" transform="translate(648.06,0)" style="stroke: rgb(68, 68, 68); stroke-opacity: 1; stroke-width: 1px;"/><path class="xtick ticks crisp" d="M0,521v4" transform="translate(677.34,0)" style="stroke: rgb(68, 68, 68); stroke-opacity: 1; stroke-width: 1px;"/><path class="xtick ticks crisp" d="M0,521v4" transform="translate(706.61,0)" style="stroke: rgb(68, 68, 68); stroke-opacity: 1; stroke-width: 1px;"/><path class="xtick ticks crisp" d="M0,521v4" transform="translate(735.89,0)" style="stroke: rgb(68, 68, 68); stroke-opacity: 1; stroke-width: 1px;"/><path class="xtick ticks crisp" d="M0,521v4" transform="translate(765.16,0)" style="stroke: rgb(68, 68, 68); stroke-opacity: 1; stroke-width: 1px;"/><path class="xtick ticks crisp" d="M0,521v4" transform="translate(794.44,0)" style="stroke: rgb(68, 68, 68); stroke-opacity: 1; stroke-width: 1px;"/><path class="xtick ticks crisp" d="M0,521v4" transform="translate(823.71,0)" style="stroke: rgb(68, 68, 68); stroke-opacity: 1; stroke-width: 1px;"/><path class="xtick ticks crisp" d="M0,521v4" transform="translate(852.98,0)" style="stroke: rgb(68, 68, 68); stroke-opacity: 1; stroke-width: 1px;"/><path class="xtick ticks crisp" d="M0,521v4" transform="translate(882.26,0)" style="stroke: rgb(68, 68, 68); stroke-opacity: 1; stroke-width: 1px;"/><path class="xtick ticks crisp" d="M0,521v4" transform="translate(911.53,0)" style="stroke: rgb(68, 68, 68); stroke-opacity: 1; stroke-width: 1px;"/><path class="xtick ticks crisp" d="M0,521v4" transform="translate(940.81,0)" style="stroke: rgb(68, 68, 68); stroke-opacity: 1; stroke-width: 1px;"/><path class="xtick ticks crisp" d="M0,521v4" transform="translate(970.08,0)" style="stroke: rgb(68, 68, 68); stroke-opacity: 1; stroke-width: 1px;"/><path class="xtick ticks crisp" d="M0,521v4" transform="translate(999.36,0)" style="stroke: rgb(68, 68, 68); stroke-opacity: 1; stroke-width: 1px;"/><path class="xtick ticks crisp" d="M0,521v4" transform="translate(1028.63,0)" style="stroke: rgb(68, 68, 68); stroke-opacity: 1; stroke-width: 1px;"/><path class="xtick ticks crisp" d="M0,521v4" transform="translate(1057.9,0)" style="stroke: rgb(68, 68, 68); stroke-opacity: 1; stroke-width: 1px;"/><path class="xtick ticks crisp" d="M0,521v4" transform="translate(1087.1799999999998,0)" style="stroke: rgb(68, 68, 68); stroke-opacity: 1; stroke-width: 1px;"/><path class="xtick ticks crisp" d="M0,521v4" transform="translate(1116.45,0)" style="stroke: rgb(68, 68, 68); stroke-opacity: 1; stroke-width: 1px;"/><path class="xtick ticks crisp" d="M0,521v4" transform="translate(1145.73,0)" style="stroke: rgb(68, 68, 68); stroke-opacity: 1; stroke-width: 1px;"/><path class="xtick ticks crisp" d="M0,521v4" transform="translate(1175,0)" style="stroke: rgb(68, 68, 68); stroke-opacity: 1; stroke-width: 1px;"/><path class="xtick ticks crisp" d="M0,521v4" transform="translate(1204.28,0)" style="stroke: rgb(68, 68, 68); stroke-opacity: 1; stroke-width: 1px;"/><path class="xtick ticks crisp" d="M0,521v4" transform="translate(1233.55,0)" style="stroke: rgb(68, 68, 68); stroke-opacity: 1; stroke-width: 1px;"/><path class="xtick ticks crisp" d="M0,521v4" transform="translate(1262.83,0)" style="stroke: rgb(68, 68, 68); stroke-opacity: 1; stroke-width: 1px;"/><path class="xtick ticks crisp" d="M0,521v4" transform="translate(1292.1,0)" style="stroke: rgb(68, 68, 68); stroke-opacity: 1; stroke-width: 1px;"/><path class="xtick ticks crisp" d="M0,521v4" transform="translate(1321.37,0)" style="stroke: rgb(68, 68, 68); stroke-opacity: 1; stroke-width: 1px;"/><path class="xtick ticks crisp" d="M0,521v4" transform="translate(1350.65,0)" style="stroke: rgb(68, 68, 68); stroke-opacity: 1; stroke-width: 1px;"/><path class="xtick ticks crisp" d="M0,521v4" transform="translate(1379.92,0)" style="stroke: rgb(68, 68, 68); stroke-opacity: 1; stroke-width: 1px;"/><path class="xtick ticks crisp" d="M0,521v4" transform="translate(1409.2,0)" style="stroke: rgb(68, 68, 68); stroke-opacity: 1; stroke-width: 1px;"/><path class="xtick ticks crisp" d="M0,521v4" transform="translate(1438.47,0)" style="stroke: rgb(68, 68, 68); stroke-opacity: 1; stroke-width: 1px;"/><path class="xtick ticks crisp" d="M0,521v4" transform="translate(1467.75,0)" style="stroke: rgb(68, 68, 68); stroke-opacity: 1; stroke-width: 1px;"/><path class="xtick ticks crisp" d="M0,519v-5" transform="translate(208.95,0)" style="stroke: rgb(68, 68, 68); stroke-opacity: 1; stroke-width: 1px;"/><path class="xtick ticks crisp" d="M0,519v-5" transform="translate(355.32,0)" style="stroke: rgb(68, 68, 68); stroke-opacity: 1; stroke-width: 1px;"/><path class="xtick ticks crisp" d="M0,519v-5" transform="translate(501.69,0)" style="stroke: rgb(68, 68, 68); stroke-opacity: 1; stroke-width: 1px;"/><path class="xtick ticks crisp" d="M0,519v-5" transform="translate(648.06,0)" style="stroke: rgb(68, 68, 68); stroke-opacity: 1; stroke-width: 1px;"/><path class="xtick ticks crisp" d="M0,519v-5" transform="translate(794.44,0)" style="stroke: rgb(68, 68, 68); stroke-opacity: 1; stroke-width: 1px;"/><path class="xtick ticks crisp" d="M0,519v-5" transform="translate(940.81,0)" style="stroke: rgb(68, 68, 68); stroke-opacity: 1; stroke-width: 1px;"/><path class="xtick ticks crisp" d="M0,519v-5" transform="translate(1087.1799999999998,0)" style="stroke: rgb(68, 68, 68); stroke-opacity: 1; stroke-width: 1px;"/><path class="xtick ticks crisp" d="M0,519v-5" transform="translate(1233.55,0)" style="stroke: rgb(68, 68, 68); stroke-opacity: 1; stroke-width: 1px;"/><path class="xtick ticks crisp" d="M0,519v-5" transform="translate(1379.92,0)" style="stroke: rgb(68, 68, 68); stroke-opacity: 1; stroke-width: 1px;"/><g class="xtick"><text text-anchor="middle" x="0" y="547.4" transform="translate(208.95,0)" style="font-family: 'Courier New'; font-size: 22px; fill: rgb(0, 0, 0); fill-opacity: 1; white-space: pre;">1980</text></g><g class="xtick"><text text-anchor="middle" x="0" y="547.4" style="font-family: 'Courier New'; font-size: 22px; fill: rgb(0, 0, 0); fill-opacity: 1; white-space: pre;" transform="translate(355.32,0)">1985</text></g><g class="xtick"><text text-anchor="middle" x="0" y="547.4" style="font-family: 'Courier New'; font-size: 22px; fill: rgb(0, 0, 0); fill-opacity: 1; white-space: pre;" transform="translate(501.69,0)">1990</text></g><g class="xtick"><text text-anchor="middle" x="0" y="547.4" style="font-family: 'Courier New'; font-size: 22px; fill: rgb(0, 0, 0); fill-opacity: 1; white-space: pre;" transform="translate(648.06,0)">1995</text></g><g class="xtick"><text text-anchor="middle" x="0" y="547.4" style="font-family: 'Courier New'; font-size: 22px; fill: rgb(0, 0, 0); fill-opacity: 1; white-space: pre;" transform="translate(794.44,0)">2000</text></g><g class="xtick"><text text-anchor="middle" x="0" y="547.4" style="font-family: 'Courier New'; font-size: 22px; fill: rgb(0, 0, 0); fill-opacity: 1; white-space: pre;" transform="translate(940.81,0)">2005</text></g><g class="xtick"><text text-anchor="middle" x="0" y="547.4" style="font-family: 'Courier New'; font-size: 22px; fill: rgb(0, 0, 0); fill-opacity: 1; white-space: pre;" transform="translate(1087.1799999999998,0)">2010</text></g><g class="xtick"><text text-anchor="middle" x="0" y="547.4" style="font-family: 'Courier New'; font-size: 22px; fill: rgb(0, 0, 0); fill-opacity: 1; white-space: pre;" transform="translate(1233.55,0)">2015</text></g><g class="xtick"><text text-anchor="middle" x="0" y="547.4" style="font-family: 'Courier New'; font-size: 22px; fill: rgb(0, 0, 0); fill-opacity: 1; white-space: pre;" transform="translate(1379.92,0)">2020</text></g></g><g class="yaxislayer-above"><path class="ytick ticks crisp" d="M102,0h-4" transform="translate(0,511.57)" style="stroke: rgb(68, 68, 68); stroke-opacity: 1; stroke-width: 1px;"/><path class="ytick ticks crisp" d="M102,0h-4" transform="translate(0,498.05)" style="stroke: rgb(68, 68, 68); stroke-opacity: 1; stroke-width: 1px;"/><path class="ytick ticks crisp" d="M102,0h-4" transform="translate(0,484.53)" style="stroke: rgb(68, 68, 68); stroke-opacity: 1; stroke-width: 1px;"/><path class="ytick ticks crisp" d="M102,0h-4" transform="translate(0,471.02)" style="stroke: rgb(68, 68, 68); stroke-opacity: 1; stroke-width: 1px;"/><path class="ytick ticks crisp" d="M102,0h-4" transform="translate(0,457.5)" style="stroke: rgb(68, 68, 68); stroke-opacity: 1; stroke-width: 1px;"/><path class="ytick ticks crisp" d="M102,0h-4" transform="translate(0,443.99)" style="stroke: rgb(68, 68, 68); stroke-opacity: 1; stroke-width: 1px;"/><path class="ytick ticks crisp" d="M102,0h-4" transform="translate(0,430.47)" style="stroke: rgb(68, 68, 68); stroke-opacity: 1; stroke-width: 1px;"/><path class="ytick ticks crisp" d="M102,0h-4" transform="translate(0,416.95)" style="stroke: rgb(68, 68, 68); stroke-opacity: 1; stroke-width: 1px;"/><path class="ytick ticks crisp" d="M102,0h-4" transform="translate(0,403.44)" style="stroke: rgb(68, 68, 68); stroke-opacity: 1; stroke-width: 1px;"/><path class="ytick ticks crisp" d="M102,0h-4" transform="translate(0,389.92)" style="stroke: rgb(68, 68, 68); stroke-opacity: 1; stroke-width: 1px;"/><path class="ytick ticks crisp" d="M102,0h-4" transform="translate(0,376.4)" style="stroke: rgb(68, 68, 68); stroke-opacity: 1; stroke-width: 1px;"/><path class="ytick ticks crisp" d="M102,0h-4" transform="translate(0,362.89)" style="stroke: rgb(68, 68, 68); stroke-opacity: 1; stroke-width: 1px;"/><path class="ytick ticks crisp" d="M102,0h-4" transform="translate(0,349.37)" style="stroke: rgb(68, 68, 68); stroke-opacity: 1; stroke-width: 1px;"/><path class="ytick ticks crisp" d="M102,0h-4" transform="translate(0,335.86)" style="stroke: rgb(68, 68, 68); stroke-opacity: 1; stroke-width: 1px;"/><path class="ytick ticks crisp" d="M102,0h-4" transform="translate(0,322.34000000000003)" style="stroke: rgb(68, 68, 68); stroke-opacity: 1; stroke-width: 1px;"/><path class="ytick ticks crisp" d="M102,0h-4" transform="translate(0,308.82)" style="stroke: rgb(68, 68, 68); stroke-opacity: 1; stroke-width: 1px;"/><path class="ytick ticks crisp" d="M102,0h-4" transform="translate(0,295.31)" style="stroke: rgb(68, 68, 68); stroke-opacity: 1; stroke-width: 1px;"/><path class="ytick ticks crisp" d="M102,0h-4" transform="translate(0,281.78999999999996)" style="stroke: rgb(68, 68, 68); stroke-opacity: 1; stroke-width: 1px;"/><path class="ytick ticks crisp" d="M102,0h-4" transform="translate(0,268.28)" style="stroke: rgb(68, 68, 68); stroke-opacity: 1; stroke-width: 1px;"/><path class="ytick ticks crisp" d="M102,0h-4" transform="translate(0,254.76)" style="stroke: rgb(68, 68, 68); stroke-opacity: 1; stroke-width: 1px;"/><path class="ytick ticks crisp" d="M102,0h-4" transform="translate(0,241.24)" style="stroke: rgb(68, 68, 68); stroke-opacity: 1; stroke-width: 1px;"/><path class="ytick ticks crisp" d="M102,0h-4" transform="translate(0,227.73000000000002)" style="stroke: rgb(68, 68, 68); stroke-opacity: 1; stroke-width: 1px;"/><path class="ytick ticks crisp" d="M102,0h-4" transform="translate(0,214.20999999999998)" style="stroke: rgb(68, 68, 68); stroke-opacity: 1; stroke-width: 1px;"/><path class="ytick ticks crisp" d="M102,0h-4" transform="translate(0,200.7)" style="stroke: rgb(68, 68, 68); stroke-opacity: 1; stroke-width: 1px;"/><path class="ytick ticks crisp" d="M102,0h-4" transform="translate(0,187.18)" style="stroke: rgb(68, 68, 68); stroke-opacity: 1; stroke-width: 1px;"/><path class="ytick ticks crisp" d="M102,0h-4" transform="translate(0,173.66)" style="stroke: rgb(68, 68, 68); stroke-opacity: 1; stroke-width: 1px;"/><path class="ytick ticks crisp" d="M102,0h-4" transform="translate(0,160.15)" style="stroke: rgb(68, 68, 68); stroke-opacity: 1; stroke-width: 1px;"/><path class="ytick ticks crisp" d="M102,0h-4" transform="translate(0,146.63)" style="stroke: rgb(68, 68, 68); stroke-opacity: 1; stroke-width: 1px;"/><path class="ytick ticks crisp" d="M102,0h-4" transform="translate(0,133.11)" style="stroke: rgb(68, 68, 68); stroke-opacity: 1; stroke-width: 1px;"/><path class="ytick ticks crisp" d="M102,0h-4" transform="translate(0,119.6)" style="stroke: rgb(68, 68, 68); stroke-opacity: 1; stroke-width: 1px;"/><path class="ytick ticks crisp" d="M102,0h-4" transform="translate(0,106.08)" style="stroke: rgb(68, 68, 68); stroke-opacity: 1; stroke-width: 1px;"/><path class="ytick ticks crisp" d="M104,0h5" transform="translate(0,457.5)" style="stroke: rgb(68, 68, 68); stroke-opacity: 1; stroke-width: 1px;"/><path class="ytick ticks crisp" d="M104,0h5" transform="translate(0,389.92)" style="stroke: rgb(68, 68, 68); stroke-opacity: 1; stroke-width: 1px;"/><path class="ytick ticks crisp" d="M104,0h5" transform="translate(0,322.34000000000003)" style="stroke: rgb(68, 68, 68); stroke-opacity: 1; stroke-width: 1px;"/><path class="ytick ticks crisp" d="M104,0h5" transform="translate(0,254.76)" style="stroke: rgb(68, 68, 68); stroke-opacity: 1; stroke-width: 1px;"/><path class="ytick ticks crisp" d="M104,0h5" transform="translate(0,187.18)" style="stroke: rgb(68, 68, 68); stroke-opacity: 1; stroke-width: 1px;"/><path class="ytick ticks crisp" d="M104,0h5" transform="translate(0,119.6)" style="stroke: rgb(68, 68, 68); stroke-opacity: 1; stroke-width: 1px;"/><g class="ytick"><text text-anchor="end" x="97.6" y="7.699999999999999" transform="translate(0,457.5)" style="font-family: 'Courier New'; font-size: 22px; fill: rgb(0, 0, 0); fill-opacity: 1; white-space: pre;">−100</text></g><g class="ytick"><text text-anchor="end" x="97.6" y="7.699999999999999" style="font-family: 'Courier New'; font-size: 22px; fill: rgb(0, 0, 0); fill-opacity: 1; white-space: pre;" transform="translate(0,389.92)">−50</text></g><g class="ytick"><text text-anchor="end" x="97.6" y="7.699999999999999" style="font-family: 'Courier New'; font-size: 22px; fill: rgb(0, 0, 0); fill-opacity: 1; white-space: pre;" transform="translate(0,322.34000000000003)">0</text></g><g class="ytick"><text text-anchor="end" x="97.6" y="7.699999999999999" style="font-family: 'Courier New'; font-size: 22px; fill: rgb(0, 0, 0); fill-opacity: 1; white-space: pre;" transform="translate(0,254.76)">50</text></g><g class="ytick"><text text-anchor="end" x="97.6" y="7.699999999999999" style="font-family: 'Courier New'; font-size: 22px; fill: rgb(0, 0, 0); fill-opacity: 1; white-space: pre;" transform="translate(0,187.18)">100</text></g><g class="ytick"><text text-anchor="end" x="97.6" y="7.699999999999999" style="font-family: 'Courier New'; font-size: 22px; fill: rgb(0, 0, 0); fill-opacity: 1; white-space: pre;" transform="translate(0,119.6)">150</text></g></g><g class="overaxes-above"/></g></g><g class="polarlayer"/><g class="smithlayer"/><g class="ternarylayer"/><g class="geolayer"/><g class="funnelarealayer"/><g class="pielayer"/><g class="iciclelayer"/><g class="treemaplayer"/><g class="sunburstlayer"/><g class="glimages"/><defs id="topdefs-1a0897"><g class="clips"/><clipPath id="legend1a0897"><rect width="67" height="63" x="0" y="0"/></clipPath></defs><g class="layer-above"><g class="imagelayer"/><g class="shapelayer"/></g><g class="infolayer"><g class="legend" pointer-events="all" transform="translate(1520.78,100)"><rect class="bg" shape-rendering="crispEdges" style="stroke: rgb(68, 68, 68); stroke-opacity: 1; fill: rgb(255, 255, 255); fill-opacity: 1; stroke-width: 0px;" width="67" height="63" x="0" y="0"/><g class="scrollbox" transform="" clip-path="url(#legend1a0897)"><g class="groups"><g class="traces" transform="translate(0,18.200000000000003)" style="opacity: 1;"><text class="legendtext" text-anchor="start" x="40" y="7.0200000000000005" style="font-family: 'Courier New'; font-size: 18px; fill: rgb(0, 0, 0); fill-opacity: 1; white-space: pre;">NF</text><g class="layers" style="opacity: 1;"><g class="legendfill"/><g class="legendlines"><path class="js-line" d="M5,0h30" style="fill: none; stroke: rgb(0, 0, 0); stroke-opacity: 1; stroke-width: 2px;"/></g><g class="legendsymbols"><g class="legendpoints"/></g></g><rect class="legendtoggle" x="0" y="-13.200000000000001" width="61.609375" height="26.400000000000002" style="fill: rgb(0, 0, 0); fill-opacity: 0;"/></g><g class="traces" transform="translate(0,44.6)" style="opacity: 1;"><text class="legendtext" text-anchor="start" x="40" y="7.0200000000000005" style="font-family: 'Courier New'; font-size: 18px; fill: rgb(0, 0, 0); fill-opacity: 1; white-space: pre;">SF</text><g class="layers" style="opacity: 1;"><g class="legendfill"/><g class="legendlines"><path class="js-line" d="M5,0h30" style="fill: none; stroke: rgb(0, 0, 255); stroke-opacity: 1; stroke-width: 2px;"/></g><g class="legendsymbols"><g class="legendpoints"/></g></g><rect class="legendtoggle" x="0" y="-13.200000000000001" width="61.609375" height="26.400000000000002" style="fill: rgb(0, 0, 0); fill-opacity: 0;"/></g></g></g><rect class="scrollbar" rx="20" ry="3" width="0" height="0" style="fill: rgb(128, 139, 164); fill-opacity: 1;" x="0" y="0"/></g><g class="g-gtitle"/><g class="g-xtitle"><text class="xtitle" x="798.5" y="586.600390625" text-anchor="middle" style="opacity: 1; font-family: 'Courier New'; font-size: 26px; fill: rgb(0, 0, 0); fill-opacity: 1; white-space: pre;">Year</text></g><g class="g-ytitle" transform="translate(0.3125,0)"><text class="ytitle" transform="rotate(-90,21.687109375000006,309.5)" x="21.687109375000006" y="309.5" text-anchor="middle" style="opacity: 1; font-family: 'Courier New'; font-size: 26px; fill: rgb(0, 0, 0); fill-opacity: 1; white-space: pre;">Magnetic field (G)</text></g><g class="annotation" data-index="0" style="opacity: 1;"><g class="annotation-text-g" transform="rotate(0,157.71,73.59999999999997)"><g class="cursor-pointer" transform="translate(120,58)"><rect class="bg" x="0.5" y="0.5" width="75" height="30" style="stroke-width: 1px; stroke: rgb(0, 0, 0); stroke-opacity: 0; fill: rgb(0, 0, 0); fill-opacity: 0;"/><text class="annotation-text" text-anchor="middle" x="38.0078125" y="22" style="font-family: 'Courier New'; font-size: 24px; fill: rgb(0, 0, 0); fill-opacity: 1; white-space: pre;">A > 0</text></g></g></g><g class="annotation" data-index="1" style="opacity: 1;"><g class="annotation-text-g" transform="rotate(0,358.07,73.59999999999997)"><g class="cursor-pointer" transform="translate(320,58)"><rect class="bg" x="0.5" y="0.5" width="75" height="30" style="stroke-width: 1px; stroke: rgb(0, 0, 0); stroke-opacity: 0; fill: rgb(0, 0, 0); fill-opacity: 0;"/><text class="annotation-text" text-anchor="middle" x="38.0078125" y="22" style="font-family: 'Courier New'; font-size: 24px; fill: rgb(0, 0, 0); fill-opacity: 1; white-space: pre;">A &#60; 0</text></g></g></g><g class="annotation" data-index="2" style="opacity: 1;"><g class="annotation-text-g" transform="rotate(0,651.42,73.59999999999997)"><g class="cursor-pointer" transform="translate(613,58)"><rect class="bg" x="0.5" y="0.5" width="75" height="30" style="stroke-width: 1px; stroke: rgb(0, 0, 0); stroke-opacity: 0; fill: rgb(0, 0, 0); fill-opacity: 0;"/><text class="annotation-text" text-anchor="middle" x="38.0078125" y="22" style="font-family: 'Courier New'; font-size: 24px; fill: rgb(0, 0, 0); fill-opacity: 1; white-space: pre;">A > 0</text></g></g></g><g class="annotation" data-index="3" style="opacity: 1;"><g class="annotation-text-g" transform="rotate(0,989.64,73.59999999999997)"><g class="cursor-pointer" transform="translate(952,58)"><rect class="bg" x="0.5" y="0.5" width="75" height="30" style="stroke-width: 1px; stroke: rgb(0, 0, 0); stroke-opacity: 0; fill: rgb(0, 0, 0); fill-opacity: 0;"/><text class="annotation-text" text-anchor="middle" x="38.0078125" y="22" style="font-family: 'Courier New'; font-size: 24px; fill: rgb(0, 0, 0); fill-opacity: 1; white-space: pre;">A &#60; 0</text></g></g></g><g class="annotation" data-index="4" style="opacity: 1;"><g class="annotation-text-g" transform="rotate(0,1337.08,73.59999999999997)"><g class="cursor-pointer" transform="translate(1299,58)"><rect class="bg" x="0.5" y="0.5" width="75" height="30" style="stroke-width: 1px; stroke: rgb(0, 0, 0); stroke-opacity: 0; fill: rgb(0, 0, 0); fill-opacity: 0;"/><text class="annotation-text" text-anchor="middle" x="38.0078125" y="22" style="font-family: 'Courier New'; font-size: 24px; fill: rgb(0, 0, 0); fill-opacity: 1; white-space: pre;">A > 0</text></g></g></g></g></svg>